{"glyphs":{"0":{"ha":754,"x_min":63,"x_max":692,"o":"m 378 833 q 332 833 378 833 q 217 735 285 833 q 150 456 150 636 q 215 174 150 276 q 379 72 281 72 q 541 172 478 72 q 604 456 604 272 q 538 736 604 639 q 378 833 472 833 m 376 917 q 446 917 376 917 q 603 793 515 917 q 692 458 692 669 q 608 117 692 246 q 380 -11 525 -11 q 149 117 235 -11 q 63 457 63 246 q 150 792 63 668 q 376 917 238 917 z "},"1":{"ha":428,"x_min":28,"x_max":317,"o":"m 317 0 l 232 0 l 232 815 l 28 688 l 28 783 l 232 908 l 317 908 l 317 0 z "},"2":{"ha":683,"x_min":56,"x_max":621,"o":"m 621 0 l 56 0 l 56 76 q 500 643 500 417 q 447 787 500 738 q 296 836 393 836 q 89 756 199 836 l 89 842 q 303 917 183 917 q 506 847 422 917 q 589 647 589 776 q 176 76 589 406 l 621 76 l 621 0 z "},"3":{"ha":640,"x_min":56,"x_max":564,"o":"m 564 250 q 489 65 564 139 q 283 -8 414 -8 q 56 38 151 -8 l 56 124 q 263 72 154 72 q 424 122 371 72 q 476 253 476 172 q 418 378 476 335 q 258 421 360 421 l 197 421 l 197 497 l 258 497 q 392 545 336 497 q 447 674 447 593 q 398 795 447 754 q 257 836 349 836 q 81 781 165 836 l 81 867 q 275 917 156 917 q 465 849 394 917 q 536 682 536 781 q 392 461 536 524 q 517 388 469 443 q 564 250 564 332 z "},"4":{"ha":742,"x_min":63,"x_max":707,"o":"m 567 0 l 483 0 l 483 228 l 63 228 l 63 304 l 426 908 l 567 908 l 567 304 l 707 304 l 707 228 l 567 228 l 567 0 m 483 304 l 483 860 l 150 304 l 483 304 z "},"5":{"ha":711,"x_min":90,"x_max":642,"o":"m 343 544 q 560 472 478 544 q 642 272 642 400 q 556 67 642 144 q 328 -11 469 -11 q 90 35 188 -11 l 90 121 q 307 69 179 69 q 553 282 553 69 q 494 417 553 369 q 341 464 436 464 q 136 415 246 464 l 136 908 l 578 908 l 578 832 l 222 832 l 222 529 q 343 544 290 544 z "},"6":{"ha":726,"x_min":79,"x_max":672,"o":"m 163 394 q 231 151 167 235 q 388 68 294 68 q 533 132 482 68 q 583 294 583 196 q 533 449 583 393 q 407 504 482 504 q 268 473 332 504 q 163 394 204 442 m 403 585 q 601 506 529 585 q 672 292 672 426 q 596 73 672 157 q 396 -11 519 -11 q 162 106 244 -11 q 79 410 79 222 q 261 864 79 722 q 486 938 356 938 q 610 917 551 938 l 610 831 q 485 857 553 857 q 264 750 346 857 q 167 483 182 643 q 275 558 211 531 q 403 585 339 585 z "},"7":{"ha":615,"x_min":14,"x_max":601,"o":"m 14 832 l 14 908 l 601 908 l 601 832 l 219 0 l 128 0 l 511 832 l 14 832 z "},"8":{"ha":740,"x_min":76,"x_max":664,"o":"m 367 836 q 324 836 367 836 q 230 787 281 836 q 179 658 179 738 q 233 536 179 579 q 369 493 286 493 q 502 539 451 493 q 553 663 553 585 q 503 788 553 740 q 367 836 454 836 m 369 413 q 317 412 369 413 q 215 359 265 411 q 164 235 164 307 q 217 116 164 163 q 369 69 269 69 q 522 120 468 69 q 576 243 576 171 q 524 365 576 315 q 369 413 472 414 m 664 232 q 578 56 664 122 q 368 -11 492 -11 q 160 53 244 -11 q 76 225 76 118 q 124 369 76 311 q 254 451 172 428 q 135 531 178 475 q 92 665 92 588 q 174 850 92 783 q 367 917 257 917 q 558 851 476 917 q 640 663 640 785 q 598 533 640 589 q 481 454 556 478 q 615 376 567 432 q 664 232 664 321 z "},"9":{"ha":689,"x_min":56,"x_max":628,"o":"m 628 528 q 534 134 628 279 q 243 -11 440 -11 q 88 15 163 -11 l 88 101 q 243 69 161 69 q 539 414 506 69 q 328 328 467 328 q 138 409 219 328 q 56 621 56 490 q 130 835 56 751 q 332 919 204 919 q 555 807 482 919 q 628 528 628 694 m 349 407 q 544 501 469 407 l 544 528 q 503 738 544 649 q 437 812 481 785 q 333 839 393 839 q 196 781 247 839 q 144 622 144 724 q 199 463 144 519 q 349 407 254 407 z "}," ":{"ha":336,"x_min":0,"x_max":0,"o":""},"!":{"ha":335,"x_min":96,"x_max":238,"o":"m 166 129 q 181 129 166 129 q 217 108 196 129 q 238 58 238 88 q 217 8 238 28 q 165 -11 196 -11 q 115 8 135 -11 q 96 58 96 28 q 116 108 96 88 q 166 129 136 129 m 210 272 l 125 272 l 125 936 l 210 936 l 210 272 z "},"\"":{"ha":376,"x_min":63,"x_max":314,"o":"m 142 626 l 63 626 l 63 946 l 142 946 l 142 626 m 314 626 l 235 626 l 235 946 l 314 946 l 314 626 z "},"#":{"ha":968,"x_min":76,"x_max":892,"o":"m 590 313 l 656 624 l 392 624 l 326 313 l 590 313 m 76 242 l 76 313 l 246 313 l 311 624 l 158 624 l 158 694 l 326 694 l 376 936 l 458 936 l 407 694 l 671 694 l 722 936 l 801 936 l 751 694 l 892 694 l 892 624 l 736 624 l 671 313 l 813 313 l 813 242 l 656 242 l 606 0 l 524 0 l 575 242 l 311 242 l 260 0 l 181 0 l 231 242 l 76 242 z "},"$":{"ha":697,"x_min":81,"x_max":621,"o":"m 354 -149 l 278 -149 l 278 -7 q 83 51 168 1 l 83 147 q 191 94 125 115 q 340 74 257 74 q 478 117 424 74 q 533 240 533 160 q 469 358 533 315 q 328 432 421 393 q 321 435 324 433 q 314 438 318 436 q 283 451 310 439 q 223 481 256 463 q 153 529 190 499 q 81 699 81 590 q 158 872 81 807 q 349 944 235 938 l 349 1085 l 425 1085 l 425 942 q 567 903 510 932 l 567 807 q 479 844 533 829 q 374 860 425 860 q 225 816 281 860 q 169 700 169 772 q 232 581 169 625 q 335 524 282 546 q 417 488 388 501 q 480 456 447 475 q 549 408 513 438 q 621 237 621 347 q 547 62 621 126 q 354 -10 472 -3 l 354 -149 z "},"%":{"ha":1131,"x_min":69,"x_max":1061,"o":"m 760 291 q 741 272 760 291 q 722 199 722 253 q 760 106 722 144 q 853 68 799 68 q 945 106 907 68 q 983 199 983 144 q 945 291 983 253 q 853 329 907 329 q 760 291 799 329 m 853 407 q 896 407 853 407 q 1000 345 939 407 q 1061 198 1061 283 q 1000 51 1061 113 q 853 -10 939 -10 q 706 51 767 -10 q 644 199 644 113 q 706 346 644 285 q 853 407 767 407 m 185 801 q 166 782 185 801 q 147 708 147 763 q 185 616 147 654 q 278 578 224 578 q 370 616 332 578 q 408 708 408 654 q 370 801 408 763 q 278 839 332 839 q 185 801 224 839 m 425 856 q 456 825 425 856 q 486 708 486 794 q 425 561 486 622 q 278 500 364 500 q 131 561 192 500 q 69 708 69 622 q 131 856 69 794 q 278 917 192 917 q 425 856 364 917 m 363 -1 l 278 -1 l 767 908 l 853 908 l 363 -1 z "},"&":{"ha":963,"x_min":96,"x_max":961,"o":"m 429 72 q 669 156 579 72 l 378 426 q 233 344 281 385 q 185 234 185 304 q 253 118 185 164 q 429 72 322 72 m 433 -11 q 190 59 285 -11 q 96 242 96 129 q 153 381 96 324 q 319 483 210 438 q 216 617 246 561 q 186 733 186 672 q 253 897 186 833 q 433 960 321 960 q 616 891 546 960 q 686 733 686 822 q 633 580 686 644 q 457 463 581 515 l 721 221 q 763 360 754 279 l 847 360 q 783 164 833 244 l 961 0 l 839 0 l 732 99 q 433 -11 622 -11 m 438 876 q 401 876 438 876 q 320 838 364 876 q 276 742 276 800 q 300 640 276 685 q 397 519 324 596 q 549 614 501 567 q 597 725 597 661 q 555 833 597 789 q 438 876 513 876 z "},"'":{"ha":204,"x_min":63,"x_max":142,"o":"m 142 626 l 63 626 l 63 946 l 142 946 l 142 626 z "},"(":{"ha":421,"x_min":111,"x_max":431,"o":"m 111 364 q 168 692 111 529 q 322 982 225 854 l 421 982 q 201 355 201 681 q 431 -272 201 29 l 333 -272 q 111 364 111 11 z "},")":{"ha":421,"x_min":-10,"x_max":310,"o":"m -10 -272 q 219 355 219 29 q 0 982 219 681 l 99 982 q 253 692 196 854 q 310 364 310 529 q 88 -272 310 11 l -10 -272 z "},"*":{"ha":529,"x_min":40,"x_max":488,"o":"m 228 700 q 205 699 222 699 q 167 706 188 699 l 40 747 l 61 814 l 189 772 q 240 743 224 760 q 228 803 228 771 l 228 936 l 297 936 l 297 803 q 288 746 297 769 q 338 775 307 765 l 465 815 l 488 750 l 360 707 q 314 700 339 700 l 303 700 q 346 661 325 690 l 424 553 l 368 511 l 289 619 q 264 674 268 647 q 240 618 261 647 l 161 511 l 104 551 l 183 660 q 228 700 204 689 z "},"+":{"ha":756,"x_min":83,"x_max":672,"o":"m 672 433 l 411 433 l 411 167 l 332 167 l 332 433 l 83 433 l 83 511 l 332 511 l 332 778 l 411 778 l 411 511 l 672 511 l 672 433 z "},",":{"ha":288,"x_min":-11,"x_max":240,"o":"m 64 -169 l -11 -169 l 115 128 l 240 128 l 64 -169 z "},"-":{"ha":479,"x_min":83,"x_max":396,"o":"m 396 338 l 83 338 l 83 414 l 396 414 l 396 338 z "},".":{"ha":197,"x_min":28,"x_max":169,"o":"m 149 110 q 159 100 149 110 q 169 60 169 90 q 149 9 169 29 q 99 -11 129 -11 q 48 9 68 -11 q 28 60 28 29 q 48 110 28 90 q 99 131 68 131 q 149 110 129 131 z "},"/":{"ha":538,"x_min":-15,"x_max":579,"o":"m 69 -142 l -15 -142 l 493 982 l 579 982 l 69 -142 z "},":":{"ha":308,"x_min":83,"x_max":225,"o":"m 153 139 q 168 139 153 139 q 204 118 183 139 q 225 67 225 97 q 204 18 225 38 q 153 -1 183 -1 q 103 18 122 -1 q 83 67 83 38 q 103 118 83 97 q 153 139 124 139 m 153 583 q 168 583 153 583 q 204 563 183 583 q 225 512 225 542 q 204 463 225 482 q 153 443 183 443 q 103 463 122 443 q 83 512 83 482 q 103 563 83 542 q 153 583 124 583 z "},";":{"ha":288,"x_min":-11,"x_max":240,"o":"m 166 582 q 181 582 166 582 q 217 561 196 582 q 238 510 238 540 q 217 461 238 481 q 165 442 196 442 q 115 461 135 442 q 96 510 96 481 q 116 561 96 540 q 166 582 136 582 m 64 -169 l -11 -169 l 115 128 l 240 128 l 64 -169 z "},"<":{"ha":708,"x_min":83,"x_max":639,"o":"m 639 257 l 639 167 l 83 432 l 83 515 l 639 781 l 639 690 l 176 475 l 639 257 z "},"=":{"ha":756,"x_min":83,"x_max":672,"o":"m 672 299 l 83 299 l 83 376 l 672 376 l 672 299 m 672 569 l 83 569 l 83 646 l 672 646 l 672 569 z "},">":{"ha":708,"x_min":69,"x_max":625,"o":"m 625 432 l 69 167 l 69 257 l 532 475 l 69 690 l 69 781 l 625 515 l 625 432 z "},"?":{"ha":625,"x_min":56,"x_max":569,"o":"m 241 129 q 256 129 241 129 q 292 108 271 129 q 313 58 313 88 q 292 8 313 28 q 240 -11 271 -11 q 190 8 210 -11 q 171 58 171 28 q 191 108 171 88 q 241 129 211 129 m 285 272 l 200 272 l 200 508 q 406 555 331 508 q 481 686 481 601 q 431 819 481 771 q 274 867 381 867 q 56 796 167 867 l 56 886 q 155 929 93 911 q 279 947 217 947 q 491 881 413 947 q 569 694 569 814 q 487 510 569 575 q 285 433 404 444 l 285 272 z "},"@":{"ha":1231,"x_min":90,"x_max":1161,"o":"m 440 278 q 440 238 440 278 q 478 152 440 197 q 576 107 515 107 q 689 147 636 107 q 767 260 742 188 q 772 336 767 278 q 725 450 761 411 q 613 489 689 489 q 489 424 538 489 q 440 278 440 360 m 556 -215 q 216 -80 342 -215 q 90 271 90 56 q 260 671 90 513 q 672 829 429 829 q 1020 701 879 829 q 1161 361 1161 574 q 1088 119 1161 203 q 925 36 1015 36 q 774 147 806 36 q 571 32 697 32 q 413 101 471 32 q 356 283 356 171 q 431 481 356 396 q 618 565 506 565 q 783 479 731 565 q 788 557 785 511 l 861 557 l 836 322 q 832 246 832 283 q 931 107 832 107 q 1038 178 994 107 q 1082 357 1082 249 q 965 649 1082 543 q 661 756 849 756 q 325 619 474 756 q 176 278 176 482 q 288 -33 176 74 q 549 -139 400 -139 q 797 -81 699 -139 l 792 -171 q 556 -215 708 -215 z "},"A":{"ha":885,"x_min":53,"x_max":832,"o":"m 146 0 l 53 0 l 383 936 l 508 936 l 832 0 l 739 0 l 650 260 l 236 260 l 146 0 m 446 864 q 263 336 393 703 l 625 336 l 446 864 z "},"B":{"ha":781,"x_min":111,"x_max":718,"o":"m 410 435 l 197 435 l 197 76 l 436 76 q 577 122 526 76 q 628 253 628 167 q 570 387 628 339 q 410 435 513 435 m 382 860 l 197 860 l 197 511 l 365 511 q 543 563 486 511 q 600 690 600 615 q 545 813 600 765 q 382 860 490 860 m 436 0 l 111 0 l 111 936 l 372 936 q 602 872 514 936 q 690 693 690 807 q 644 551 690 610 q 524 476 597 492 q 660 408 603 467 q 718 243 718 350 q 645 68 718 136 q 436 0 572 0 z "},"C":{"ha":832,"x_min":69,"x_max":776,"o":"m 543 -11 q 200 118 331 -11 q 69 466 69 247 q 204 817 69 685 q 538 949 339 949 q 774 899 675 949 l 774 808 q 665 853 713 840 q 535 867 618 867 q 266 758 374 867 q 158 469 158 649 q 265 181 158 290 q 547 71 371 71 q 776 143 685 71 l 776 49 q 543 -11 692 -11 z "},"D":{"ha":910,"x_min":111,"x_max":847,"o":"m 378 857 l 197 857 l 197 79 l 385 79 q 554 113 481 79 q 671 203 628 146 q 757 475 757 317 q 651 745 757 633 q 378 857 544 857 m 385 0 l 111 0 l 111 936 l 378 936 q 715 808 583 936 q 847 474 847 681 q 642 69 847 200 q 385 0 535 0 z "},"E":{"ha":681,"x_min":111,"x_max":618,"o":"m 618 0 l 111 0 l 111 936 l 610 936 l 610 857 l 197 857 l 197 507 l 561 507 l 561 428 l 197 428 l 197 79 l 618 79 l 618 0 z "},"F":{"ha":672,"x_min":111,"x_max":610,"o":"m 561 421 l 197 421 l 197 0 l 111 0 l 111 936 l 610 936 l 610 857 l 197 857 l 197 500 l 561 500 l 561 421 z "},"G":{"ha":918,"x_min":69,"x_max":821,"o":"m 543 -11 q 199 117 329 -11 q 69 463 69 246 q 197 817 69 681 q 518 953 324 953 q 790 888 683 953 l 790 792 q 524 867 683 867 q 262 758 365 867 q 158 467 158 649 q 261 180 158 285 q 544 75 364 75 q 735 118 651 75 l 735 439 l 514 439 l 514 515 l 821 515 l 821 69 q 543 -11 711 -11 z "},"H":{"ha":878,"x_min":111,"x_max":767,"o":"m 767 0 l 681 0 l 681 438 l 197 438 l 197 0 l 111 0 l 111 936 l 197 936 l 197 517 l 681 517 l 681 936 l 767 936 l 767 0 z "},"I":{"ha":322,"x_min":118,"x_max":204,"o":"m 204 0 l 118 0 l 118 936 l 204 936 l 204 0 z "},"J":{"ha":485,"x_min":42,"x_max":374,"o":"m 374 229 q 169 0 374 0 q 42 32 94 0 l 42 119 q 161 82 97 82 q 288 215 288 82 l 288 936 l 374 936 l 374 229 z "},"K":{"ha":763,"x_min":111,"x_max":721,"o":"m 197 0 l 111 0 l 111 936 l 197 936 l 197 0 m 721 0 l 607 0 l 222 461 l 593 936 l 701 936 l 332 461 l 721 0 z "},"L":{"ha":658,"x_min":111,"x_max":610,"o":"m 610 0 l 111 0 l 111 936 l 197 936 l 197 79 l 610 79 l 610 0 z "},"M":{"ha":1178,"x_min":104,"x_max":1075,"o":"m 190 0 l 104 0 l 169 936 l 288 936 l 410 593 l 575 117 q 878 936 671 379 l 996 936 l 1075 0 l 989 0 l 919 824 q 625 24 831 575 l 524 24 l 246 814 q 190 0 233 610 z "},"N":{"ha":926,"x_min":111,"x_max":815,"o":"m 197 0 l 111 0 l 111 936 l 229 936 l 732 101 q 729 539 729 246 l 729 936 l 815 936 l 815 0 l 697 0 l 194 835 q 197 396 197 685 l 197 0 z "},"O":{"ha":960,"x_min":69,"x_max":890,"o":"m 481 872 q 405 872 481 872 q 244 766 329 872 q 158 474 158 660 q 247 180 158 288 q 485 72 335 72 q 718 178 635 72 q 801 473 801 285 q 717 767 801 661 q 481 872 633 872 m 482 956 q 578 956 482 956 q 782 826 674 956 q 890 473 890 696 q 781 119 890 250 q 483 -11 671 -11 q 183 121 296 -11 q 69 473 69 253 q 180 824 69 693 q 482 956 290 956 z "},"P":{"ha":750,"x_min":111,"x_max":688,"o":"m 346 860 l 197 860 l 197 432 l 361 432 q 535 490 471 432 q 600 644 600 549 q 533 799 600 739 q 346 860 467 860 m 351 356 l 197 356 l 197 0 l 111 0 l 111 936 l 336 936 q 594 853 500 936 q 688 645 688 771 q 597 438 688 519 q 351 356 506 356 z "},"Q":{"ha":974,"x_min":69,"x_max":928,"o":"m 481 872 q 405 872 481 872 q 244 766 329 872 q 158 474 158 660 q 247 180 158 288 q 485 72 335 72 q 718 178 635 72 q 801 473 801 285 q 717 767 801 661 q 481 872 633 872 m 890 472 q 828 190 890 307 q 653 24 765 74 l 928 -154 l 838 -193 l 557 -6 q 482 -11 525 -11 q 183 121 296 -11 q 69 473 69 253 q 180 824 69 693 q 482 956 290 956 q 782 826 674 956 q 890 472 890 696 z "},"R":{"ha":738,"x_min":111,"x_max":703,"o":"m 339 381 l 197 381 l 197 0 l 111 0 l 111 936 l 322 936 q 567 862 486 936 q 649 651 649 788 q 596 489 646 557 q 454 396 546 421 l 703 0 l 600 0 l 365 382 q 339 381 357 381 m 332 860 l 197 860 l 197 457 l 349 457 q 507 514 451 457 q 563 656 563 571 q 332 860 563 860 z "},"S":{"ha":732,"x_min":101,"x_max":642,"o":"m 642 242 q 560 55 642 119 q 342 -10 478 -10 q 104 51 206 -10 l 104 147 q 212 94 146 115 q 361 74 278 74 q 499 117 444 74 q 554 231 554 160 q 513 339 554 301 q 343 433 467 381 q 205 503 228 483 q 160 543 182 522 q 128 585 138 564 q 101 694 101 642 q 186 878 101 813 q 390 944 271 944 q 588 903 510 944 l 588 807 q 500 844 554 829 q 394 860 446 860 q 246 816 301 860 q 190 700 190 772 q 254 581 190 625 q 374 515 306 543 q 467 474 442 486 q 531 438 492 463 q 589 389 569 413 q 642 242 642 325 z "},"T":{"ha":646,"x_min":21,"x_max":625,"o":"m 625 857 l 365 857 l 365 0 l 279 0 l 279 857 l 21 857 l 21 936 l 625 936 l 625 857 z "},"U":{"ha":888,"x_min":111,"x_max":776,"o":"m 776 354 q 689 81 776 174 q 443 -11 601 -11 q 198 79 285 -11 q 111 343 111 169 l 111 936 l 197 936 l 197 344 q 263 138 197 204 q 442 72 329 72 q 690 351 690 72 l 690 936 l 776 936 l 776 354 z "},"V":{"ha":876,"x_min":56,"x_max":821,"o":"m 492 0 l 374 0 l 56 936 l 149 936 l 433 76 l 728 936 l 821 936 l 492 0 z "},"W":{"ha":1290,"x_min":56,"x_max":1235,"o":"m 417 0 l 299 0 l 56 936 l 146 936 l 360 88 q 600 922 439 368 l 701 922 l 961 82 q 1149 936 1029 396 l 1235 936 l 1022 0 l 904 0 l 653 810 q 417 0 607 644 z "},"X":{"ha":833,"x_min":58,"x_max":775,"o":"m 158 0 l 58 0 l 361 472 l 76 936 l 176 936 l 408 550 l 640 936 l 740 936 l 457 472 l 775 0 l 675 0 l 410 399 l 158 0 z "},"Y":{"ha":806,"x_min":42,"x_max":764,"o":"m 444 0 l 358 0 l 358 350 l 42 936 l 140 936 l 214 799 l 401 438 q 665 936 413 464 l 764 936 l 444 350 l 444 0 z "},"Z":{"ha":771,"x_min":69,"x_max":701,"o":"m 701 0 l 69 0 l 69 76 l 583 860 l 75 860 l 75 936 l 681 936 l 681 860 l 167 76 l 701 76 l 701 0 z "},"[":{"ha":411,"x_min":111,"x_max":411,"o":"m 411 -249 l 111 -249 l 111 982 l 411 982 l 411 906 l 197 906 l 197 -171 l 411 -171 l 411 -249 z "},"\\":{"ha":536,"x_min":-42,"x_max":553,"o":"m 553 -143 l 467 -143 l -42 982 l 44 982 l 553 -143 z "},"]":{"ha":411,"x_min":0,"x_max":300,"o":"m 300 -249 l 0 -249 l 0 -171 l 214 -171 l 214 906 l 0 906 l 0 982 l 300 982 l 300 -249 z "},"^":{"ha":629,"x_min":67,"x_max":563,"o":"m 156 461 l 67 461 l 261 825 l 375 825 l 563 461 l 474 461 l 317 775 l 156 461 z "},"_":{"ha":785,"x_min":42,"x_max":743,"o":"m 743 -114 l 42 -114 l 42 -37 l 743 -37 l 743 -114 z "},"`":{"ha":556,"x_min":153,"x_max":407,"o":"m 407 900 l 331 900 l 153 1108 l 265 1108 l 407 900 z "},"a":{"ha":675,"x_min":69,"x_max":578,"o":"m 290 -7 q 131 51 193 -7 q 69 204 69 108 q 148 356 69 300 q 356 413 226 413 l 493 413 l 493 444 q 453 587 493 539 q 310 635 413 635 q 121 575 208 635 l 121 667 q 319 715 201 715 q 578 444 578 715 l 578 0 l 493 0 l 493 82 q 290 -7 435 -7 m 160 201 q 160 172 160 201 q 198 107 160 143 q 315 71 236 71 q 443 117 393 71 q 493 233 493 163 l 493 335 l 356 335 q 208 297 257 335 q 160 201 160 258 z "},"b":{"ha":776,"x_min":111,"x_max":714,"o":"m 196 356 q 261 135 196 201 q 417 69 326 69 q 566 146 507 69 q 625 353 625 222 q 564 559 625 483 q 408 635 503 635 q 272 578 338 635 q 217 491 239 549 q 196 356 196 433 m 196 0 l 111 0 l 111 982 l 196 982 l 196 599 q 409 715 274 715 q 629 612 544 715 q 714 352 714 508 q 635 92 714 196 q 413 -11 556 -11 q 196 103 269 -11 l 196 0 z "},"c":{"ha":656,"x_min":63,"x_max":579,"o":"m 425 -17 q 158 91 254 -17 q 63 348 63 199 q 160 607 63 497 q 425 717 258 717 q 579 679 511 717 l 579 593 q 433 635 517 635 q 228 551 304 635 q 151 348 151 467 q 225 147 151 229 q 435 65 299 65 q 579 110 519 65 l 579 24 q 425 -17 519 -17 z "},"d":{"ha":771,"x_min":63,"x_max":665,"o":"m 665 0 l 581 0 l 581 103 q 364 -11 507 -11 q 142 92 221 -11 q 63 352 63 196 q 147 612 63 508 q 367 715 232 715 q 581 599 503 715 l 581 982 l 665 982 l 665 0 m 368 635 q 213 559 274 635 q 151 353 151 483 q 210 146 151 222 q 360 69 269 69 q 515 135 450 69 q 581 356 581 201 q 559 491 581 433 q 503 578 538 549 q 368 635 439 635 z "},"e":{"ha":721,"x_min":63,"x_max":654,"o":"m 567 424 q 513 576 567 519 q 370 633 460 633 q 221 571 281 633 q 151 392 161 508 l 567 392 l 567 424 m 415 -7 q 160 91 258 -7 q 63 353 63 189 q 149 615 63 518 q 368 713 235 713 q 578 628 501 713 q 654 389 654 543 q 649 314 654 342 l 151 314 q 232 135 161 197 q 421 74 303 74 q 610 121 539 74 l 610 35 q 415 -7 526 -7 z "},"f":{"ha":451,"x_min":42,"x_max":418,"o":"m 417 632 l 256 632 l 256 0 l 171 0 l 171 632 l 42 632 l 42 704 l 171 704 l 171 779 q 221 932 171 875 q 361 989 271 989 q 418 981 388 989 l 418 897 q 352 908 389 908 q 285 876 315 908 q 256 778 256 843 l 256 704 l 417 704 l 417 632 z "},"g":{"ha":749,"x_min":63,"x_max":651,"o":"m 364 635 q 208 557 265 635 q 151 354 151 479 q 215 163 151 229 q 358 97 279 97 q 501 159 436 97 q 567 358 567 221 q 504 565 567 494 q 364 635 442 635 m 651 54 q 565 -185 651 -106 q 351 -265 479 -265 q 138 -225 222 -265 l 138 -142 q 333 -185 224 -185 q 504 -127 442 -185 q 567 54 567 -69 l 567 146 q 356 17 496 17 q 148 107 233 17 q 63 353 63 197 q 141 613 63 510 q 347 715 219 715 q 567 581 499 715 l 567 704 l 651 704 l 651 54 z "},"h":{"ha":735,"x_min":106,"x_max":638,"o":"m 638 0 l 553 0 l 553 465 q 511 590 553 547 q 392 633 469 633 q 253 567 315 633 q 190 389 190 501 l 190 0 l 106 0 l 106 982 l 190 982 l 190 583 q 414 715 254 715 q 576 653 515 715 q 638 492 638 590 l 638 0 z "},"i":{"ha":307,"x_min":94,"x_max":213,"o":"m 195 972 q 204 963 195 972 q 213 929 213 954 q 195 888 213 904 q 153 871 178 871 q 111 888 128 871 q 94 929 94 904 q 111 972 94 954 q 153 989 128 989 q 195 972 178 989 m 196 0 l 111 0 l 111 704 l 196 704 l 196 0 z "},"j":{"ha":300,"x_min":-65,"x_max":211,"o":"m 194 972 q 202 963 194 972 q 211 929 211 954 q 194 888 211 904 q 151 871 176 871 q 110 888 126 871 q 93 929 93 904 q 110 972 93 954 q 151 989 126 989 q 194 972 176 989 m 196 -89 q 152 -222 196 -175 q 31 -269 108 -269 q -65 -250 -15 -269 l -65 -167 q 32 -189 -17 -189 q 111 -86 111 -189 l 111 704 l 196 704 l 196 -89 z "},"k":{"ha":642,"x_min":106,"x_max":611,"o":"m 314 369 l 611 0 l 506 0 l 211 369 l 497 704 l 601 704 l 314 369 m 190 0 l 106 0 l 106 982 l 190 982 l 190 0 z "},"l":{"ha":307,"x_min":111,"x_max":196,"o":"m 196 0 l 111 0 l 111 982 l 196 982 l 196 0 z "},"m":{"ha":1121,"x_min":106,"x_max":1024,"o":"m 1024 0 l 939 0 l 939 465 q 792 633 939 633 q 663 567 719 633 q 607 389 607 500 l 607 0 l 522 0 l 522 465 q 375 633 522 633 q 247 567 303 633 q 190 389 190 500 l 190 0 l 106 0 l 106 704 l 190 704 l 190 589 q 388 715 250 715 q 596 576 557 715 q 804 715 661 715 q 969 653 915 715 q 1024 492 1024 592 l 1024 0 z "},"n":{"ha":735,"x_min":106,"x_max":638,"o":"m 638 0 l 553 0 l 553 465 q 511 590 553 547 q 392 633 469 633 q 253 567 315 633 q 190 389 190 501 l 190 0 l 106 0 l 106 704 l 190 704 l 190 583 q 414 715 256 715 q 576 653 515 715 q 638 492 638 590 l 638 0 z "},"o":{"ha":779,"x_min":63,"x_max":717,"o":"m 392 633 q 334 633 392 633 q 214 550 276 633 q 151 350 151 467 q 216 151 151 233 q 391 68 281 68 q 565 149 501 68 q 628 351 628 231 q 568 552 628 471 q 392 633 508 633 m 393 714 q 468 714 393 714 q 630 610 543 714 q 717 349 717 507 q 628 90 717 192 q 389 -12 540 -12 q 150 90 238 -12 q 63 348 63 193 q 153 608 63 503 q 393 714 243 714 z "},"p":{"ha":771,"x_min":106,"x_max":708,"o":"m 190 349 q 212 213 190 271 q 267 125 233 156 q 403 69 332 69 q 558 145 497 69 q 619 351 619 221 q 560 558 619 482 q 411 635 501 635 q 256 569 321 635 q 190 349 190 503 m 190 -278 l 106 -278 l 106 704 l 190 704 l 190 601 q 407 715 264 715 q 629 612 550 715 q 708 352 708 508 q 624 92 708 196 q 403 -11 539 -11 q 190 106 268 -11 l 190 -278 z "},"q":{"ha":771,"x_min":63,"x_max":665,"o":"m 665 -278 l 581 -278 l 581 106 q 367 -11 503 -11 q 147 92 232 -11 q 63 352 63 196 q 142 612 63 508 q 364 715 221 715 q 581 601 507 715 l 581 704 l 665 704 l 665 -278 m 360 635 q 315 635 360 635 q 210 558 269 635 q 151 351 151 482 q 213 145 151 221 q 368 69 274 69 q 503 125 439 69 q 559 213 538 156 q 581 349 581 271 q 515 569 581 503 q 360 635 450 635 z "},"r":{"ha":436,"x_min":106,"x_max":422,"o":"m 190 0 l 106 0 l 106 704 l 190 704 l 190 585 q 388 713 249 713 q 422 710 397 713 l 422 624 q 367 632 394 632 q 241 558 292 632 q 190 393 190 483 l 190 0 z "},"s":{"ha":564,"x_min":79,"x_max":515,"o":"m 328 387 q 369 370 328 387 q 463 306 411 353 q 515 176 515 260 q 455 42 515 93 q 278 -8 394 -8 q 83 33 161 -8 l 83 121 q 283 68 176 68 q 391 97 354 68 q 428 178 428 126 q 390 260 428 229 q 265 324 351 290 q 129 403 179 358 q 79 528 79 447 q 142 660 79 610 q 308 711 204 711 q 474 679 413 711 l 474 594 q 297 632 408 632 q 201 603 236 632 q 165 538 165 575 q 176 481 165 501 q 211 442 186 460 q 328 387 244 421 z "},"t":{"ha":506,"x_min":35,"x_max":443,"o":"m 350 -7 q 150 199 150 -7 l 150 632 l 35 632 l 35 704 l 150 704 l 150 881 l 236 881 l 236 704 l 438 704 l 438 632 l 236 632 l 236 194 q 349 74 236 74 q 443 106 404 74 l 443 19 q 350 -7 403 -7 z "},"u":{"ha":735,"x_min":97,"x_max":629,"o":"m 629 0 l 544 0 l 544 126 q 321 -10 489 -10 q 158 52 218 -10 q 97 215 97 114 l 97 704 l 182 704 l 182 239 q 224 115 182 158 q 336 72 267 72 q 487 139 429 72 q 544 313 544 206 l 544 704 l 629 704 l 629 0 z "},"v":{"ha":690,"x_min":42,"x_max":649,"o":"m 399 0 l 285 0 l 42 704 l 131 704 l 342 68 q 560 704 351 106 l 649 704 l 399 0 z "},"w":{"ha":1094,"x_min":42,"x_max":1053,"o":"m 371 0 l 257 0 l 42 704 l 135 704 q 313 85 282 208 q 490 704 319 110 l 590 704 l 774 82 q 964 704 797 168 l 1053 704 l 831 0 l 717 0 l 540 606 q 371 0 500 454 z "},"x":{"ha":646,"x_min":38,"x_max":608,"o":"m 133 0 l 38 0 l 269 363 l 51 706 l 151 706 l 324 428 l 494 706 l 593 706 l 372 361 l 608 0 l 507 0 l 322 296 l 133 0 z "},"y":{"ha":669,"x_min":13,"x_max":643,"o":"m 99 -233 q 46 -226 71 -233 l 46 -143 q 93 -150 71 -150 q 300 19 242 -150 l 13 704 l 110 704 l 342 129 q 549 704 356 175 l 643 704 l 388 18 q 263 -179 335 -125 q 99 -233 190 -233 z "},"z":{"ha":619,"x_min":63,"x_max":557,"o":"m 557 0 l 63 0 l 63 71 l 432 622 l 76 622 l 76 704 l 538 704 l 538 640 l 163 83 l 557 83 l 557 0 z "},"{":{"ha":447,"x_min":69,"x_max":433,"o":"m 375 -257 q 255 -204 304 -257 q 206 -61 206 -151 q 222 47 206 -22 q 238 149 238 115 q 114 322 238 292 q 69 325 103 325 l 69 410 q 206 469 165 410 q 238 583 238 517 q 222 685 238 617 q 206 793 206 754 q 255 936 206 883 q 375 989 304 989 q 433 979 406 989 l 433 893 q 386 906 410 906 q 317 874 340 906 q 294 799 294 843 q 310 679 294 754 q 326 561 326 604 q 284 433 326 486 q 156 367 242 381 q 284 299 242 353 q 326 171 326 246 q 310 53 326 128 q 294 -67 294 -22 q 317 -142 294 -111 q 386 -174 340 -174 q 433 -161 411 -174 l 433 -247 q 375 -257 406 -257 z "},"|":{"ha":297,"x_min":111,"x_max":186,"o":"m 186 -269 l 111 -269 l 111 965 l 186 965 l 186 -269 z "},"}":{"ha":447,"x_min":14,"x_max":378,"o":"m 242 -61 q 192 -204 242 -151 q 72 -257 143 -257 q 14 -247 42 -257 l 14 -161 q 61 -174 36 -174 q 130 -142 107 -174 q 153 -67 153 -111 q 137 53 153 -22 q 121 171 121 128 q 163 299 121 246 q 292 367 206 353 q 163 433 206 381 q 121 561 121 486 q 137 679 121 604 q 153 799 153 754 q 130 874 153 843 q 61 906 107 906 q 14 893 36 906 l 14 979 q 72 989 42 989 q 192 936 143 989 q 242 793 242 883 q 226 685 242 754 q 210 583 210 617 q 242 469 210 517 q 378 410 282 410 l 378 325 q 333 322 344 325 q 210 149 210 292 q 226 47 210 115 q 242 -61 242 -22 z "},"~":{"ha":813,"x_min":53,"x_max":758,"o":"m 274 383 q 108 283 176 383 l 53 335 q 264 461 143 461 q 428 406 333 461 q 571 350 524 350 q 693 433 649 350 l 758 389 q 571 271 685 271 q 409 327 508 271 q 274 383 310 383 z "}," ":{"ha":336,"x_min":0,"x_max":0,"o":""},"¡":{"ha":335,"x_min":96,"x_max":238,"o":"m 165 718 q 181 718 165 718 q 217 699 196 718 q 238 649 238 679 q 217 599 238 619 q 166 578 196 578 q 116 599 136 578 q 96 649 96 619 q 115 699 96 679 q 165 718 135 718 m 210 -229 l 125 -229 l 125 435 l 210 435 l 210 -229 z "},"¢":{"ha":618,"x_min":69,"x_max":563,"o":"m 454 -154 l 378 -154 l 378 -8 q 151 111 232 10 q 69 348 69 213 q 152 587 69 483 q 378 708 235 690 l 378 853 l 454 853 l 454 710 q 563 683 506 707 l 563 597 q 440 629 503 629 q 235 547 311 629 q 158 348 158 465 q 232 151 158 231 q 442 71 306 71 q 563 101 508 71 l 563 15 q 454 -10 506 -8 l 454 -154 z "},"£":{"ha":718,"x_min":90,"x_max":663,"o":"m 663 0 l 90 0 l 90 72 q 207 169 176 111 q 238 346 238 228 q 233 415 238 378 l 100 415 l 100 486 l 226 486 q 214 635 214 606 q 286 843 214 771 q 486 915 358 915 q 626 882 560 915 l 626 796 q 488 833 558 833 q 297 643 297 833 q 310 486 297 608 l 565 486 l 565 415 l 318 415 q 321 347 321 368 q 290 168 321 226 q 204 76 258 110 l 663 76 l 663 0 z "},"¤":{"ha":744,"x_min":50,"x_max":694,"o":"m 213 595 q 181 564 213 595 q 150 435 150 532 q 213 274 150 338 q 372 211 275 211 q 532 274 469 211 q 594 433 594 336 q 532 594 594 531 q 372 658 469 658 q 213 595 275 658 m 131 249 q 75 428 75 324 q 135 613 75 533 l 50 699 l 107 756 l 192 669 q 376 731 272 731 q 557 675 479 731 l 638 756 l 694 699 l 614 618 q 669 438 669 540 q 607 254 669 335 l 694 168 l 638 111 l 550 197 q 367 139 472 139 q 189 193 263 139 l 107 111 l 50 168 l 131 249 z "},"¥":{"ha":794,"x_min":56,"x_max":733,"o":"m 685 232 l 436 232 l 436 0 l 350 0 l 350 232 l 101 232 l 101 301 l 350 301 l 350 350 l 306 433 l 101 433 l 101 503 l 269 503 l 56 908 l 150 908 l 393 432 l 639 908 l 733 908 l 518 503 l 685 503 l 685 433 l 481 433 l 436 350 l 436 301 l 685 301 l 685 232 z "},"¦":{"ha":297,"x_min":111,"x_max":186,"o":"m 186 -269 l 111 -269 l 111 188 l 186 188 l 186 -269 m 186 508 l 111 508 l 111 965 l 186 965 l 186 508 z "},"§":{"ha":679,"x_min":69,"x_max":610,"o":"m 550 118 q 610 -36 610 56 q 528 -223 610 -158 q 310 -287 446 -287 q 72 -226 174 -287 l 72 -131 q 180 -183 114 -162 q 329 -204 246 -204 q 467 -161 413 -204 q 522 -47 522 -118 q 481 61 522 24 q 311 156 435 103 q 173 225 196 206 q 128 265 150 244 q 96 307 106 286 q 69 417 69 364 q 125 574 69 510 q 69 708 69 626 q 153 885 69 825 q 357 944 236 944 q 556 903 478 944 l 556 807 q 468 844 522 829 q 363 860 414 860 q 213 822 267 860 q 158 714 158 785 q 186 635 158 665 q 244 595 211 608 q 310 569 278 582 q 376 542 342 557 q 435 516 410 528 q 499 479 460 504 q 558 431 538 454 q 610 274 610 367 q 550 118 610 182 m 483 168 q 525 278 525 213 q 482 383 525 344 q 360 457 439 422 q 283 488 340 465 q 196 525 225 511 q 156 419 156 485 q 244 283 156 335 q 365 225 285 260 q 483 168 444 190 z "},"¨":{"ha":556,"x_min":90,"x_max":465,"o":"m 149 1068 q 162 1068 149 1068 q 192 1051 175 1068 q 210 1009 210 1035 q 192 966 210 983 q 149 949 175 949 q 107 966 124 949 q 90 1009 90 983 q 107 1051 90 1035 q 149 1068 124 1068 m 406 1068 q 419 1068 406 1068 q 449 1051 432 1068 q 465 1009 465 1035 q 449 966 465 983 q 406 949 432 949 q 363 966 381 949 q 346 1009 346 983 q 363 1051 346 1035 q 406 1068 381 1068 z "},"©":{"ha":1083,"x_min":63,"x_max":1021,"o":"m 262 749 q 203 690 262 749 q 144 467 144 631 q 262 185 144 303 q 543 68 379 68 q 824 185 707 68 q 942 467 942 303 q 824 749 942 631 q 543 867 707 867 q 262 749 379 867 m 879 805 q 950 734 879 805 q 1021 467 1021 663 q 879 129 1021 271 q 542 -12 738 -12 q 204 129 346 -12 q 63 467 63 271 q 204 805 63 663 q 542 947 346 947 q 879 805 738 947 m 578 194 q 382 274 453 194 q 311 463 311 353 q 383 653 311 572 q 578 735 454 735 q 690 707 642 735 l 690 628 q 583 660 643 660 q 444 604 497 660 q 392 465 392 549 q 444 325 392 381 q 574 269 497 269 q 690 304 650 269 l 690 225 q 578 194 649 194 z "},"ª":{"ha":468,"x_min":0,"x_max":426,"o":"m 356 619 q 196 539 289 539 q 51 585 103 539 q 0 715 0 632 q 66 845 0 797 q 243 893 132 893 l 356 893 l 356 918 q 322 1038 356 997 q 202 1079 289 1079 q 43 1029 115 1079 l 43 1103 q 210 1146 113 1146 q 426 918 426 1146 l 426 544 l 356 544 l 356 619 m 74 713 q 107 636 74 665 q 203 607 140 607 q 311 644 267 607 q 356 732 356 682 l 356 824 l 260 824 q 74 713 74 824 z "},"«":{"ha":625,"x_min":38,"x_max":589,"o":"m 343 126 l 246 126 l 38 351 l 246 576 l 343 576 l 139 351 l 343 126 m 385 351 l 589 126 l 492 126 l 283 351 l 492 576 l 589 576 l 385 351 z "},"¬":{"ha":743,"x_min":28,"x_max":694,"o":"m 694 231 l 610 231 l 610 490 l 28 490 l 28 572 l 694 572 l 694 231 z "},"­":{"ha":479,"x_min":83,"x_max":396,"o":"m 396 338 l 83 338 l 83 414 l 396 414 l 396 338 z "},"®":{"ha":608,"x_min":14,"x_max":594,"o":"m 139 971 q 108 939 139 971 q 76 804 76 907 q 139 638 76 701 q 305 575 201 575 q 472 638 408 575 q 535 804 535 701 q 472 971 535 907 q 305 1035 408 1035 q 139 971 201 1035 m 513 1013 q 553 972 513 1013 q 594 804 594 931 q 513 597 594 678 q 304 515 431 515 q 96 597 178 515 q 14 804 14 678 q 96 1013 14 931 q 304 1094 178 1094 q 513 1013 431 1094 m 304 911 l 272 911 l 272 821 l 308 821 q 350 866 350 821 q 304 911 350 911 m 272 669 l 215 669 l 215 958 l 297 958 q 407 867 407 958 q 358 786 407 807 l 431 669 l 364 669 l 301 775 l 272 775 l 272 669 z "},"¯":{"ha":556,"x_min":94,"x_max":460,"o":"m 460 978 l 94 978 l 94 1040 l 460 1040 l 460 978 z "},"°":{"ha":461,"x_min":42,"x_max":419,"o":"m 228 871 q 203 871 228 871 q 147 837 178 871 q 115 752 115 803 q 149 667 115 701 q 233 632 183 632 q 315 666 283 632 q 346 751 346 700 q 312 836 346 801 q 228 871 278 871 m 368 886 q 394 861 368 886 q 419 754 419 836 q 365 619 419 672 q 228 567 311 567 q 93 617 144 567 q 42 749 42 667 q 96 883 42 831 q 233 936 150 936 q 368 886 317 936 z "},"±":{"ha":756,"x_min":83,"x_max":672,"o":"m 672 43 l 83 43 l 83 121 l 672 121 l 672 43 m 672 461 l 411 461 l 411 215 l 332 215 l 332 461 l 83 461 l 83 539 l 332 539 l 332 785 l 411 785 l 411 539 l 672 539 l 672 461 z "},"²":{"ha":507,"x_min":69,"x_max":451,"o":"m 451 544 l 69 544 l 69 601 q 354 964 354 818 q 323 1051 354 1022 q 242 1079 292 1079 q 90 1018 167 1079 l 90 1100 q 241 1146 165 1146 q 374 1099 317 1146 q 431 969 431 1053 q 360 791 431 886 q 178 608 290 696 l 451 608 l 451 544 z "},"³":{"ha":442,"x_min":49,"x_max":393,"o":"m 265 849 q 355 803 317 844 q 393 697 393 763 q 343 585 393 631 q 206 539 293 539 q 49 572 118 539 l 49 643 q 186 606 118 606 q 318 706 318 606 q 281 785 318 757 q 178 814 243 814 l 140 814 l 140 878 l 178 878 q 263 906 228 878 q 299 983 299 935 q 190 1079 299 1079 q 64 1036 131 1079 l 64 1110 q 200 1146 121 1146 q 326 1101 279 1146 q 374 988 374 1056 q 265 849 374 876 z "},"´":{"ha":556,"x_min":153,"x_max":407,"o":"m 229 900 l 153 900 l 294 1108 l 407 1108 l 229 900 z "},"µ":{"ha":743,"x_min":106,"x_max":638,"o":"m 190 -249 l 106 -249 l 106 704 l 190 704 l 190 239 q 244 116 190 160 q 376 72 299 72 q 503 139 454 72 q 553 313 553 206 l 553 704 l 638 704 l 638 0 l 553 0 l 553 113 q 357 -10 503 -10 q 190 57 250 -10 l 190 -249 z "},"¶":{"ha":740,"x_min":42,"x_max":635,"o":"m 635 -206 l 551 -206 l 551 936 l 635 936 l 635 -206 m 383 -206 l 300 -206 l 300 482 q 110 545 178 482 q 42 703 42 608 q 110 867 42 797 q 299 936 179 936 l 383 936 l 383 -206 z "},"·":{"ha":308,"x_min":83,"x_max":225,"o":"m 205 519 q 215 509 205 519 q 225 468 225 499 q 205 417 225 438 q 154 397 185 397 q 103 417 124 397 q 83 468 83 438 q 103 519 83 499 q 154 539 124 539 q 205 519 185 539 z "},"¸":{"ha":556,"x_min":178,"x_max":376,"o":"m 351 -71 q 376 -174 376 -107 q 325 -290 376 -240 q 178 -344 274 -340 l 178 -276 q 299 -175 299 -264 q 267 -71 299 -124 l 351 -71 z "},"¹":{"ha":336,"x_min":14,"x_max":231,"o":"m 231 544 l 158 544 l 158 1053 l 14 972 l 14 1051 l 171 1140 l 231 1140 l 231 544 z "},"º":{"ha":497,"x_min":-14,"x_max":511,"o":"m 251 1082 q 205 1082 251 1082 q 109 1011 158 1082 q 60 841 60 940 q 111 672 60 742 q 250 603 163 603 q 387 671 338 603 q 436 842 436 739 q 390 1014 436 946 q 251 1082 344 1082 m 442 1062 q 477 1018 442 1062 q 511 842 511 975 q 441 622 511 708 q 248 536 371 536 q 56 623 125 536 q -14 840 -14 710 q 58 1060 -14 971 q 251 1149 129 1149 q 442 1062 374 1149 z "},"»":{"ha":629,"x_min":36,"x_max":588,"o":"m 133 126 l 36 126 l 240 351 l 36 576 l 133 576 l 342 351 l 133 126 m 588 351 l 379 126 l 282 126 l 486 351 l 282 576 l 379 576 l 588 351 z "},"¼":{"ha":1157,"x_min":111,"x_max":1081,"o":"m 990 0 l 921 0 l 921 142 l 646 142 l 646 200 l 886 596 l 990 596 l 990 200 l 1081 200 l 1081 142 l 990 142 l 990 0 m 921 200 l 921 536 l 719 200 l 921 200 m 328 392 l 256 392 l 256 900 l 111 819 l 111 899 l 268 988 l 328 988 l 328 392 m 293 0 l 208 0 l 842 989 l 928 989 l 293 0 z "},"½":{"ha":1157,"x_min":111,"x_max":1093,"o":"m 1093 0 l 711 0 l 711 57 q 996 419 996 274 q 965 506 996 478 q 883 535 933 535 q 732 474 808 535 l 732 556 q 883 601 807 601 q 1015 555 958 601 q 1072 425 1072 508 q 1002 247 1072 342 q 819 64 932 151 l 1093 64 l 1093 0 m 328 392 l 256 392 l 256 900 l 111 819 l 111 899 l 268 988 l 328 988 l 328 392 m 293 0 l 208 0 l 842 989 l 928 989 l 293 0 z "},"¾":{"ha":1192,"x_min":118,"x_max":1160,"o":"m 1069 0 l 1000 0 l 1000 142 l 725 142 l 725 200 l 965 596 l 1069 596 l 1069 200 l 1160 200 l 1160 142 l 1069 142 l 1069 0 m 1000 200 l 1000 536 l 799 200 l 1000 200 m 335 696 q 424 651 386 692 q 463 544 463 610 q 413 432 463 478 q 275 386 363 386 q 118 419 188 386 l 118 490 q 256 453 188 453 q 388 553 388 453 q 350 633 388 604 q 247 661 313 661 l 210 661 l 210 725 l 247 725 q 333 753 297 725 q 368 831 368 782 q 260 926 368 926 q 133 883 200 926 l 133 957 q 269 993 190 993 q 396 948 349 993 q 443 835 443 903 q 335 696 443 724 m 372 0 l 288 0 l 921 989 l 1007 989 l 372 0 z "},"¿":{"ha":625,"x_min":56,"x_max":569,"o":"m 385 718 q 400 718 385 718 q 435 699 415 718 q 454 649 454 679 q 434 599 454 619 q 384 578 414 578 q 333 599 354 578 q 313 649 313 619 q 333 699 313 679 q 385 718 354 718 m 346 -240 q 134 -174 213 -240 q 56 13 56 -107 q 138 197 56 132 q 340 274 221 263 l 340 435 l 425 435 l 425 199 q 219 152 294 199 q 144 21 144 106 q 194 -112 144 -64 q 351 -160 244 -160 q 569 -89 458 -160 l 569 -179 q 470 -222 532 -204 q 346 -240 408 -240 z "},"À":{"ha":885,"x_min":53,"x_max":832,"o":"m 474 1013 l 397 1013 l 219 1221 l 332 1221 l 474 1013 m 146 0 l 53 0 l 383 936 l 508 936 l 832 0 l 739 0 l 650 260 l 236 260 l 146 0 m 446 864 q 263 336 393 703 l 625 336 l 446 864 z "},"Á":{"ha":885,"x_min":53,"x_max":832,"o":"m 493 1013 l 417 1013 l 558 1221 l 671 1221 l 493 1013 m 146 0 l 53 0 l 383 936 l 508 936 l 832 0 l 739 0 l 650 260 l 236 260 l 146 0 m 446 864 q 263 336 393 703 l 625 336 l 446 864 z "},"Â":{"ha":885,"x_min":53,"x_max":832,"o":"m 326 1013 l 238 1013 l 403 1221 l 490 1221 l 656 1013 l 567 1013 l 446 1161 l 326 1013 m 146 0 l 53 0 l 383 936 l 508 936 l 832 0 l 739 0 l 650 260 l 236 260 l 146 0 m 446 864 q 263 336 393 703 l 625 336 l 446 864 z "},"Ã":{"ha":885,"x_min":53,"x_max":832,"o":"m 365 1122 q 272 1054 307 1122 l 222 1096 q 277 1163 240 1136 q 355 1190 314 1190 q 456 1158 396 1190 q 542 1126 517 1126 q 611 1186 583 1126 l 669 1147 q 546 1058 628 1058 q 449 1090 511 1058 q 365 1122 388 1122 m 146 0 l 53 0 l 383 936 l 508 936 l 832 0 l 739 0 l 650 260 l 236 260 l 146 0 m 446 864 q 263 336 393 703 l 625 336 l 446 864 z "},"Ä":{"ha":885,"x_min":53,"x_max":832,"o":"m 317 1178 q 330 1178 317 1178 q 360 1161 343 1178 q 378 1119 378 1144 q 360 1076 378 1093 q 317 1058 343 1058 q 275 1076 292 1058 q 258 1119 258 1093 q 275 1161 258 1144 q 317 1178 292 1178 m 574 1178 q 587 1178 574 1178 q 617 1161 600 1178 q 633 1119 633 1144 q 617 1076 633 1093 q 574 1058 600 1058 q 531 1076 549 1058 q 514 1119 514 1093 q 531 1161 514 1144 q 574 1178 549 1178 m 146 0 l 53 0 l 383 936 l 508 936 l 832 0 l 739 0 l 650 260 l 236 260 l 146 0 m 446 864 q 263 336 393 703 l 625 336 l 446 864 z "},"Å":{"ha":885,"x_min":53,"x_max":832,"o":"m 394 1188 q 383 1176 394 1188 q 372 1135 372 1165 q 394 1083 372 1104 q 446 1061 415 1061 q 499 1083 476 1061 q 521 1135 521 1104 q 499 1188 521 1167 q 447 1210 478 1210 q 394 1188 415 1210 m 543 1232 q 563 1212 543 1232 q 583 1135 583 1192 q 543 1038 583 1078 q 446 999 503 999 q 349 1038 389 999 q 310 1135 310 1078 q 349 1232 310 1192 q 446 1272 389 1272 q 543 1232 503 1272 m 146 0 l 53 0 l 383 936 l 508 936 l 832 0 l 739 0 l 650 260 l 236 260 l 146 0 m 446 864 q 263 336 393 703 l 625 336 l 446 864 z "},"Æ":{"ha":1199,"x_min":38,"x_max":1136,"o":"m 629 336 l 629 850 q 331 336 538 683 l 629 336 m 1128 936 l 1128 857 l 715 857 l 715 507 l 1079 507 l 1079 428 l 715 428 l 715 79 l 1136 79 l 1136 0 l 629 0 l 629 260 l 285 260 l 131 0 l 38 0 l 590 936 l 1128 936 z "},"Ç":{"ha":832,"x_min":69,"x_max":776,"o":"m 551 -71 q 576 -174 576 -107 q 525 -290 576 -240 q 378 -344 474 -340 l 378 -276 q 499 -175 499 -264 q 467 -71 499 -124 l 551 -71 m 543 -11 q 200 118 331 -11 q 69 466 69 247 q 204 817 69 685 q 538 949 339 949 q 774 899 675 949 l 774 808 q 665 853 713 840 q 535 867 618 867 q 266 758 374 867 q 158 469 158 649 q 265 181 158 290 q 547 71 371 71 q 776 143 685 71 l 776 49 q 543 -11 692 -11 z "},"È":{"ha":681,"x_min":111,"x_max":618,"o":"m 435 1011 l 358 1011 l 181 1219 l 293 1219 l 435 1011 m 618 0 l 111 0 l 111 936 l 610 936 l 610 857 l 197 857 l 197 507 l 561 507 l 561 428 l 197 428 l 197 79 l 618 79 l 618 0 z "},"É":{"ha":681,"x_min":111,"x_max":618,"o":"m 424 1013 l 347 1013 l 489 1221 l 601 1221 l 424 1013 m 618 0 l 111 0 l 111 936 l 610 936 l 610 857 l 197 857 l 197 507 l 561 507 l 561 428 l 197 428 l 197 79 l 618 79 l 618 0 z "},"Ê":{"ha":681,"x_min":111,"x_max":618,"o":"m 260 1013 l 171 1013 l 336 1221 l 424 1221 l 589 1013 l 500 1013 l 379 1161 l 260 1013 m 618 0 l 111 0 l 111 936 l 610 936 l 610 857 l 197 857 l 197 507 l 561 507 l 561 428 l 197 428 l 197 79 l 618 79 l 618 0 z "},"Ë":{"ha":681,"x_min":111,"x_max":618,"o":"m 242 1175 q 255 1175 242 1175 q 285 1158 268 1175 q 303 1116 303 1142 q 285 1073 303 1090 q 242 1056 268 1056 q 200 1073 217 1056 q 183 1116 183 1090 q 200 1158 183 1142 q 242 1175 217 1175 m 499 1175 q 512 1175 499 1175 q 542 1158 525 1175 q 558 1116 558 1142 q 542 1073 558 1090 q 499 1056 525 1056 q 456 1073 474 1056 q 439 1116 439 1090 q 456 1158 439 1142 q 499 1175 474 1175 m 618 0 l 111 0 l 111 936 l 610 936 l 610 857 l 197 857 l 197 507 l 561 507 l 561 428 l 197 428 l 197 79 l 618 79 l 618 0 z "},"Ì":{"ha":322,"x_min":-61,"x_max":204,"o":"m 193 1013 l 117 1013 l -61 1221 l 51 1221 l 193 1013 m 204 0 l 118 0 l 118 936 l 204 936 l 204 0 z "},"Í":{"ha":322,"x_min":118,"x_max":383,"o":"m 206 1013 l 129 1013 l 271 1221 l 383 1221 l 206 1013 m 204 0 l 118 0 l 118 936 l 204 936 l 204 0 z "},"Î":{"ha":322,"x_min":-47,"x_max":371,"o":"m 42 1013 l -47 1013 l 118 1221 l 206 1221 l 371 1013 l 282 1013 l 161 1161 l 42 1013 m 204 0 l 118 0 l 118 936 l 204 936 l 204 0 z "},"Ï":{"ha":322,"x_min":-25,"x_max":350,"o":"m 34 1176 q 47 1176 34 1176 q 77 1160 60 1176 q 94 1117 94 1143 q 77 1074 94 1092 q 34 1057 60 1057 q -8 1074 8 1057 q -25 1117 -25 1092 q -8 1160 -25 1143 q 34 1176 8 1176 m 291 1176 q 304 1176 291 1176 q 333 1160 317 1176 q 350 1117 350 1143 q 333 1074 350 1092 q 291 1057 317 1057 q 248 1074 265 1057 q 231 1117 231 1092 q 248 1160 231 1143 q 291 1176 265 1176 m 204 0 l 118 0 l 118 936 l 204 936 l 204 0 z "},"Ð":{"ha":1007,"x_min":83,"x_max":944,"o":"m 550 435 l 294 435 l 294 79 l 482 79 q 651 113 578 79 q 768 203 725 146 q 854 475 854 317 q 748 745 854 633 q 475 857 642 857 l 294 857 l 294 508 l 550 508 l 550 435 m 482 0 l 208 0 l 208 435 l 83 435 l 83 508 l 208 508 l 208 936 l 475 936 q 813 808 681 936 q 944 474 944 681 q 739 69 944 200 q 482 0 632 0 z "},"Ñ":{"ha":926,"x_min":111,"x_max":815,"o":"m 396 1121 q 303 1053 338 1121 l 253 1094 q 308 1162 271 1135 q 385 1189 344 1189 q 487 1157 426 1189 q 572 1125 547 1125 q 642 1185 614 1125 l 700 1146 q 576 1057 658 1057 q 480 1089 542 1057 q 396 1121 418 1121 m 197 0 l 111 0 l 111 936 l 229 936 l 732 101 q 729 539 729 246 l 729 936 l 815 936 l 815 0 l 697 0 l 194 835 q 197 396 197 685 l 197 0 z "},"Ò":{"ha":960,"x_min":69,"x_max":890,"o":"m 531 1013 l 454 1013 l 276 1221 l 389 1221 l 531 1013 m 481 872 q 405 872 481 872 q 244 766 329 872 q 158 474 158 660 q 247 180 158 288 q 485 72 335 72 q 718 178 635 72 q 801 473 801 285 q 717 767 801 661 q 481 872 633 872 m 482 956 q 578 956 482 956 q 782 826 674 956 q 890 473 890 696 q 781 119 890 250 q 483 -11 671 -11 q 183 121 296 -11 q 69 473 69 253 q 180 824 69 693 q 482 956 290 956 z "},"Ó":{"ha":960,"x_min":69,"x_max":890,"o":"m 531 1013 l 454 1013 l 596 1221 l 708 1221 l 531 1013 m 481 872 q 405 872 481 872 q 244 766 329 872 q 158 474 158 660 q 247 180 158 288 q 485 72 335 72 q 718 178 635 72 q 801 473 801 285 q 717 767 801 661 q 481 872 633 872 m 482 956 q 578 956 482 956 q 782 826 674 956 q 890 473 890 696 q 781 119 890 250 q 483 -11 671 -11 q 183 121 296 -11 q 69 473 69 253 q 180 824 69 693 q 482 956 290 956 z "},"Ô":{"ha":960,"x_min":69,"x_max":890,"o":"m 371 1013 l 282 1013 l 447 1221 l 535 1221 l 700 1013 l 611 1013 l 490 1161 l 371 1013 m 481 872 q 405 872 481 872 q 244 766 329 872 q 158 474 158 660 q 247 180 158 288 q 485 72 335 72 q 718 178 635 72 q 801 473 801 285 q 717 767 801 661 q 481 872 633 872 m 482 956 q 578 956 482 956 q 782 826 674 956 q 890 473 890 696 q 781 119 890 250 q 483 -11 671 -11 q 183 121 296 -11 q 69 473 69 253 q 180 824 69 693 q 482 956 290 956 z "},"Õ":{"ha":960,"x_min":69,"x_max":890,"o":"m 403 1124 q 310 1056 344 1124 l 260 1097 q 315 1165 278 1138 q 392 1192 351 1192 q 494 1160 433 1192 q 579 1128 554 1128 q 649 1188 621 1128 l 707 1149 q 583 1060 665 1060 q 487 1092 549 1060 q 403 1124 425 1124 m 481 872 q 405 872 481 872 q 244 766 329 872 q 158 474 158 660 q 247 180 158 288 q 485 72 335 72 q 718 178 635 72 q 801 473 801 285 q 717 767 801 661 q 481 872 633 872 m 482 956 q 578 956 482 956 q 782 826 674 956 q 890 473 890 696 q 781 119 890 250 q 483 -11 671 -11 q 183 121 296 -11 q 69 473 69 253 q 180 824 69 693 q 482 956 290 956 z "},"Ö":{"ha":960,"x_min":69,"x_max":890,"o":"m 355 1178 q 368 1178 355 1178 q 398 1161 381 1178 q 415 1119 415 1144 q 398 1076 415 1093 q 355 1058 381 1058 q 313 1076 329 1058 q 296 1119 296 1093 q 313 1161 296 1144 q 355 1178 329 1178 m 612 1178 q 625 1178 612 1178 q 654 1161 638 1178 q 671 1119 671 1144 q 654 1076 671 1093 q 612 1058 638 1058 q 569 1076 586 1058 q 551 1119 551 1093 q 569 1161 551 1144 q 612 1178 586 1178 m 481 872 q 405 872 481 872 q 244 766 329 872 q 158 474 158 660 q 247 180 158 288 q 485 72 335 72 q 718 178 635 72 q 801 473 801 285 q 717 767 801 661 q 481 872 633 872 m 482 956 q 578 956 482 956 q 782 826 674 956 q 890 473 890 696 q 781 119 890 250 q 483 -11 671 -11 q 183 121 296 -11 q 69 473 69 253 q 180 824 69 693 q 482 956 290 956 z "},"×":{"ha":668,"x_min":88,"x_max":579,"o":"m 572 292 l 517 236 l 333 418 l 150 236 l 94 292 l 278 474 l 88 661 l 143 717 l 333 529 l 524 718 l 579 663 l 389 474 l 572 292 z "},"Ø":{"ha":922,"x_min":57,"x_max":881,"o":"m 471 72 q 707 178 624 72 q 790 463 790 285 q 722 744 790 640 l 272 143 q 471 72 354 72 m 468 872 q 233 766 318 872 q 147 484 147 660 q 218 203 147 308 l 668 806 q 468 872 589 872 m 778 818 q 879 468 879 686 q 769 119 879 250 q 471 -11 660 -11 q 219 74 326 -11 l 156 -12 l 57 -12 l 164 131 q 58 476 58 260 q 169 824 58 693 q 468 956 279 956 q 719 875 617 956 l 781 956 l 881 956 l 778 818 z "},"Ù":{"ha":888,"x_min":111,"x_max":776,"o":"m 485 1013 l 408 1013 l 231 1221 l 343 1221 l 485 1013 m 776 354 q 689 81 776 174 q 443 -11 601 -11 q 198 79 285 -11 q 111 343 111 169 l 111 936 l 197 936 l 197 344 q 263 138 197 204 q 442 72 329 72 q 690 351 690 72 l 690 936 l 776 936 l 776 354 z "},"Ú":{"ha":888,"x_min":111,"x_max":776,"o":"m 499 1013 l 422 1013 l 564 1221 l 676 1221 l 499 1013 m 776 354 q 689 81 776 174 q 443 -11 601 -11 q 198 79 285 -11 q 111 343 111 169 l 111 936 l 197 936 l 197 344 q 263 138 197 204 q 442 72 329 72 q 690 351 690 72 l 690 936 l 776 936 l 776 354 z "},"Û":{"ha":888,"x_min":111,"x_max":776,"o":"m 328 1013 l 239 1013 l 404 1221 l 492 1221 l 657 1013 l 568 1013 l 447 1161 l 328 1013 m 776 354 q 689 81 776 174 q 443 -11 601 -11 q 198 79 285 -11 q 111 343 111 169 l 111 936 l 197 936 l 197 344 q 263 138 197 204 q 442 72 329 72 q 690 351 690 72 l 690 936 l 776 936 l 776 354 z "},"Ü":{"ha":888,"x_min":111,"x_max":776,"o":"m 316 1178 q 329 1178 316 1178 q 359 1161 342 1178 q 376 1119 376 1144 q 359 1076 376 1093 q 316 1058 342 1058 q 274 1076 290 1058 q 257 1119 257 1093 q 274 1161 257 1144 q 316 1178 290 1178 m 573 1178 q 586 1178 573 1178 q 615 1161 599 1178 q 632 1119 632 1144 q 615 1076 632 1093 q 573 1058 599 1058 q 530 1076 547 1058 q 513 1119 513 1093 q 530 1161 513 1144 q 573 1178 547 1178 m 776 354 q 689 81 776 174 q 443 -11 601 -11 q 198 79 285 -11 q 111 343 111 169 l 111 936 l 197 936 l 197 344 q 263 138 197 204 q 442 72 329 72 q 690 351 690 72 l 690 936 l 776 936 l 776 354 z "},"Ý":{"ha":806,"x_min":42,"x_max":764,"o":"m 465 1011 l 389 1011 l 531 1219 l 643 1219 l 465 1011 m 444 0 l 358 0 l 358 350 l 42 936 l 140 936 l 214 799 l 401 438 q 665 936 413 464 l 764 936 l 444 350 l 444 0 z "},"Þ":{"ha":735,"x_min":111,"x_max":674,"o":"m 332 682 l 197 682 l 197 254 l 347 254 q 526 311 465 254 q 586 466 586 368 q 523 623 586 564 q 332 682 460 682 m 338 178 l 197 178 l 197 0 l 111 0 l 111 936 l 197 936 l 197 758 l 322 758 q 584 676 494 758 q 674 467 674 594 q 587 258 674 339 q 338 178 500 178 z "},"ß":{"ha":731,"x_min":111,"x_max":686,"o":"m 686 182 q 626 44 686 99 q 458 -10 567 -10 q 350 4 394 -10 l 350 93 q 463 69 401 69 q 563 99 525 69 q 600 170 600 128 q 578 244 600 213 q 526 301 557 276 q 464 353 496 326 q 390 489 390 413 q 409 563 390 528 q 451 621 428 599 q 492 678 474 643 q 511 760 511 713 q 469 842 511 808 q 361 876 428 876 q 197 701 197 876 l 197 0 l 111 0 l 111 701 q 181 894 111 831 q 361 958 251 958 q 534 899 471 958 q 597 751 597 839 q 568 640 597 688 q 510 558 539 592 q 482 492 482 524 q 514 426 482 461 q 584 365 546 392 q 654 290 622 339 q 686 182 686 242 z "},"à":{"ha":675,"x_min":69,"x_max":578,"o":"m 392 781 l 315 781 l 138 989 l 250 989 l 392 781 m 290 -7 q 131 51 193 -7 q 69 204 69 108 q 148 356 69 300 q 356 413 226 413 l 493 413 l 493 444 q 453 587 493 539 q 310 635 413 635 q 121 575 208 635 l 121 667 q 319 715 201 715 q 578 444 578 715 l 578 0 l 493 0 l 493 82 q 290 -7 435 -7 m 160 201 q 160 172 160 201 q 198 107 160 143 q 315 71 236 71 q 443 117 393 71 q 493 233 493 163 l 493 335 l 356 335 q 208 297 257 335 q 160 201 160 258 z "},"á":{"ha":675,"x_min":69,"x_max":578,"o":"m 397 781 l 321 781 l 463 989 l 575 989 l 397 781 m 290 -7 q 131 51 193 -7 q 69 204 69 108 q 148 356 69 300 q 356 413 226 413 l 493 413 l 493 444 q 453 587 493 539 q 310 635 413 635 q 121 575 208 635 l 121 667 q 319 715 201 715 q 578 444 578 715 l 578 0 l 493 0 l 493 82 q 290 -7 435 -7 m 160 201 q 160 172 160 201 q 198 107 160 143 q 315 71 236 71 q 443 117 393 71 q 493 233 493 163 l 493 335 l 356 335 q 208 297 257 335 q 160 201 160 258 z "},"â":{"ha":675,"x_min":69,"x_max":578,"o":"m 232 779 l 143 779 l 308 988 l 396 988 l 561 779 l 472 779 l 351 928 l 232 779 m 290 -7 q 131 51 193 -7 q 69 204 69 108 q 148 356 69 300 q 356 413 226 413 l 493 413 l 493 444 q 453 587 493 539 q 310 635 413 635 q 121 575 208 635 l 121 667 q 319 715 201 715 q 578 444 578 715 l 578 0 l 493 0 l 493 82 q 290 -7 435 -7 m 160 201 q 160 172 160 201 q 198 107 160 143 q 315 71 236 71 q 443 117 393 71 q 493 233 493 163 l 493 335 l 356 335 q 208 297 257 335 q 160 201 160 258 z "},"ã":{"ha":675,"x_min":69,"x_max":578,"o":"m 265 890 q 172 822 207 890 l 122 864 q 177 931 140 904 q 255 958 214 958 q 356 926 296 958 q 442 894 417 894 q 511 954 483 894 l 569 915 q 446 826 528 826 q 349 858 411 826 q 265 890 288 890 m 290 -7 q 131 51 193 -7 q 69 204 69 108 q 148 356 69 300 q 356 413 226 413 l 493 413 l 493 444 q 453 587 493 539 q 310 635 413 635 q 121 575 208 635 l 121 667 q 319 715 201 715 q 578 444 578 715 l 578 0 l 493 0 l 493 82 q 290 -7 435 -7 m 160 201 q 160 172 160 201 q 198 107 160 143 q 315 71 236 71 q 443 117 393 71 q 493 233 493 163 l 493 335 l 356 335 q 208 297 257 335 q 160 201 160 258 z "},"ä":{"ha":675,"x_min":69,"x_max":578,"o":"m 217 940 q 230 940 217 940 q 260 924 243 940 q 278 881 278 907 q 260 838 278 856 q 217 821 243 821 q 175 838 192 821 q 158 881 158 856 q 175 924 158 907 q 217 940 192 940 m 474 940 q 487 940 474 940 q 517 924 500 940 q 533 881 533 907 q 517 838 533 856 q 474 821 500 821 q 431 838 449 821 q 414 881 414 856 q 431 924 414 907 q 474 940 449 940 m 290 -7 q 131 51 193 -7 q 69 204 69 108 q 148 356 69 300 q 356 413 226 413 l 493 413 l 493 444 q 453 587 493 539 q 310 635 413 635 q 121 575 208 635 l 121 667 q 319 715 201 715 q 578 444 578 715 l 578 0 l 493 0 l 493 82 q 290 -7 435 -7 m 160 201 q 160 172 160 201 q 198 107 160 143 q 315 71 236 71 q 443 117 393 71 q 493 233 493 163 l 493 335 l 356 335 q 208 297 257 335 q 160 201 160 258 z "},"å":{"ha":675,"x_min":69,"x_max":578,"o":"m 299 956 q 289 944 299 956 q 278 903 278 933 q 299 851 278 872 q 351 829 321 829 q 404 851 382 829 q 426 903 426 872 q 405 956 426 933 q 352 978 383 978 q 299 956 321 978 m 449 1000 q 469 980 449 1000 q 489 903 489 960 q 449 806 489 846 q 351 767 408 767 q 255 807 294 767 q 215 903 215 847 q 255 1000 215 960 q 351 1040 294 1040 q 449 1000 408 1040 m 290 -7 q 131 51 193 -7 q 69 204 69 108 q 148 356 69 300 q 356 413 226 413 l 493 413 l 493 444 q 453 587 493 539 q 310 635 413 635 q 121 575 208 635 l 121 667 q 319 715 201 715 q 578 444 578 715 l 578 0 l 493 0 l 493 82 q 290 -7 435 -7 m 160 201 q 160 172 160 201 q 198 107 160 143 q 315 71 236 71 q 443 117 393 71 q 493 233 493 163 l 493 335 l 356 335 q 208 297 257 335 q 160 201 160 258 z "},"æ":{"ha":1142,"x_min":76,"x_max":1086,"o":"m 999 424 q 945 579 999 525 q 806 633 892 633 q 658 572 719 633 q 586 392 597 511 l 999 392 l 999 424 m 165 200 q 204 109 165 143 q 318 75 243 75 q 447 122 393 75 q 500 247 500 169 l 500 332 l 386 332 q 165 200 165 332 m 551 142 q 457 33 524 74 q 295 -7 390 -7 q 138 48 200 -7 q 76 201 76 103 q 156 357 76 300 q 367 414 235 414 l 500 414 l 500 444 q 460 587 500 539 q 316 635 419 635 q 128 576 213 635 l 128 664 q 326 715 210 715 q 561 583 510 715 q 810 713 646 713 q 1015 626 944 713 q 1086 382 1086 540 q 1081 314 1086 342 l 586 314 q 668 135 596 197 q 852 74 740 74 q 1035 121 964 74 l 1035 35 q 851 -7 951 -7 q 672 34 750 -7 q 551 142 594 75 z "},"ç":{"ha":656,"x_min":63,"x_max":579,"o":"m 435 -71 q 460 -174 460 -107 q 408 -290 460 -240 q 261 -344 357 -340 l 261 -276 q 382 -175 382 -264 q 350 -71 382 -124 l 435 -71 m 425 -17 q 158 91 254 -17 q 63 348 63 199 q 160 607 63 497 q 425 717 258 717 q 579 679 511 717 l 579 593 q 433 635 517 635 q 228 551 304 635 q 151 348 151 467 q 225 147 151 229 q 435 65 299 65 q 579 110 519 65 l 579 24 q 425 -17 519 -17 z "},"è":{"ha":721,"x_min":63,"x_max":654,"o":"m 436 781 l 360 781 l 182 989 l 294 989 l 436 781 m 567 424 q 513 576 567 519 q 370 633 460 633 q 221 571 281 633 q 151 392 161 508 l 567 392 l 567 424 m 415 -7 q 160 91 258 -7 q 63 353 63 189 q 149 615 63 518 q 368 713 235 713 q 578 628 501 713 q 654 389 654 543 q 649 314 654 342 l 151 314 q 232 135 161 197 q 421 74 303 74 q 610 121 539 74 l 610 35 q 415 -7 526 -7 z "},"é":{"ha":721,"x_min":63,"x_max":654,"o":"m 435 781 l 358 781 l 500 989 l 613 989 l 435 781 m 567 424 q 513 576 567 519 q 370 633 460 633 q 221 571 281 633 q 151 392 161 508 l 567 392 l 567 424 m 415 -7 q 160 91 258 -7 q 63 353 63 189 q 149 615 63 518 q 368 713 235 713 q 578 628 501 713 q 654 389 654 543 q 649 314 654 342 l 151 314 q 232 135 161 197 q 421 74 303 74 q 610 121 539 74 l 610 35 q 415 -7 526 -7 z "},"ê":{"ha":721,"x_min":63,"x_max":654,"o":"m 275 781 l 186 781 l 351 989 l 439 989 l 604 781 l 515 781 l 394 929 l 275 781 m 567 424 q 513 576 567 519 q 370 633 460 633 q 221 571 281 633 q 151 392 161 508 l 567 392 l 567 424 m 415 -7 q 160 91 258 -7 q 63 353 63 189 q 149 615 63 518 q 368 713 235 713 q 578 628 501 713 q 654 389 654 543 q 649 314 654 342 l 151 314 q 232 135 161 197 q 421 74 303 74 q 610 121 539 74 l 610 35 q 415 -7 526 -7 z "},"ë":{"ha":721,"x_min":63,"x_max":654,"o":"m 262 944 q 275 944 262 944 q 305 928 288 944 q 322 885 322 911 q 305 842 322 860 q 262 825 288 825 q 219 842 236 825 q 203 885 203 860 q 219 928 203 911 q 262 944 236 944 m 519 944 q 532 944 519 944 q 561 928 544 944 q 578 885 578 911 q 561 842 578 860 q 519 825 544 825 q 476 842 493 825 q 458 885 458 860 q 476 928 458 911 q 519 944 493 944 m 567 424 q 513 576 567 519 q 370 633 460 633 q 221 571 281 633 q 151 392 161 508 l 567 392 l 567 424 m 415 -7 q 160 91 258 -7 q 63 353 63 189 q 149 615 63 518 q 368 713 235 713 q 578 628 501 713 q 654 389 654 543 q 649 314 654 342 l 151 314 q 232 135 161 197 q 421 74 303 74 q 610 121 539 74 l 610 35 q 415 -7 526 -7 z "},"ì":{"ha":307,"x_min":-68,"x_max":196,"o":"m 186 779 l 110 779 l -68 988 l 44 988 l 186 779 m 196 0 l 111 0 l 111 704 l 196 704 l 196 0 z "},"í":{"ha":307,"x_min":111,"x_max":378,"o":"m 200 781 l 124 781 l 265 989 l 378 989 l 200 781 m 196 0 l 111 0 l 111 704 l 196 704 l 196 0 z "},"î":{"ha":307,"x_min":-54,"x_max":364,"o":"m 35 781 l -54 781 l 111 989 l 199 989 l 364 781 l 275 781 l 154 929 l 35 781 m 196 0 l 111 0 l 111 704 l 196 704 l 196 0 z "},"ï":{"ha":307,"x_min":-33,"x_max":342,"o":"m 26 947 q 39 947 26 947 q 69 931 51 947 q 86 888 86 914 q 69 845 86 863 q 26 828 51 828 q -17 845 0 828 q -33 888 -33 863 q -17 931 -33 914 q 26 947 0 947 m 283 947 q 295 947 283 947 q 325 931 308 947 q 342 888 342 914 q 325 845 342 863 q 283 828 308 828 q 240 845 257 828 q 222 888 222 863 q 240 931 222 914 q 283 947 257 947 m 196 0 l 111 0 l 111 704 l 196 704 l 196 0 z "},"ð":{"ha":703,"x_min":54,"x_max":640,"o":"m 143 280 q 143 231 143 280 q 199 125 143 182 q 346 68 256 68 q 499 142 436 68 q 561 364 561 217 q 333 486 475 486 q 198 432 253 486 q 143 280 143 378 m 640 367 q 560 83 640 178 q 347 -12 479 -12 q 135 74 215 -12 q 54 288 54 160 q 138 492 54 415 q 347 569 222 569 q 553 468 471 569 q 418 753 526 622 l 225 653 l 225 731 l 369 806 q 183 936 279 892 l 333 936 q 444 844 394 899 l 617 933 l 617 856 l 492 792 q 640 367 640 603 z "},"ñ":{"ha":735,"x_min":106,"x_max":638,"o":"m 304 889 q 211 821 246 889 l 161 863 q 216 930 179 903 q 294 957 253 957 q 395 925 335 957 q 481 893 456 893 q 550 953 522 893 l 608 914 q 485 825 567 825 q 388 857 450 825 q 304 889 326 889 m 638 0 l 553 0 l 553 465 q 511 590 553 547 q 392 633 469 633 q 253 567 315 633 q 190 389 190 501 l 190 0 l 106 0 l 106 704 l 190 704 l 190 583 q 414 715 256 715 q 576 653 515 715 q 638 492 638 590 l 638 0 z "},"ò":{"ha":779,"x_min":63,"x_max":717,"o":"m 429 781 l 353 781 l 175 989 l 288 989 l 429 781 m 392 633 q 334 633 392 633 q 214 550 276 633 q 151 350 151 467 q 216 151 151 233 q 391 68 281 68 q 565 149 501 68 q 628 351 628 231 q 568 552 628 471 q 392 633 508 633 m 393 714 q 468 714 393 714 q 630 610 543 714 q 717 349 717 507 q 628 90 717 192 q 389 -12 540 -12 q 150 90 238 -12 q 63 348 63 193 q 153 608 63 503 q 393 714 243 714 z "},"ó":{"ha":779,"x_min":63,"x_max":717,"o":"m 443 781 l 367 781 l 508 989 l 621 989 l 443 781 m 392 633 q 334 633 392 633 q 214 550 276 633 q 151 350 151 467 q 216 151 151 233 q 391 68 281 68 q 565 149 501 68 q 628 351 628 231 q 568 552 628 471 q 392 633 508 633 m 393 714 q 468 714 393 714 q 630 610 543 714 q 717 349 717 507 q 628 90 717 192 q 389 -12 540 -12 q 150 90 238 -12 q 63 348 63 193 q 153 608 63 503 q 393 714 243 714 z "},"ô":{"ha":779,"x_min":63,"x_max":717,"o":"m 274 779 l 185 779 l 350 988 l 438 988 l 603 779 l 514 779 l 393 928 l 274 779 m 392 633 q 334 633 392 633 q 214 550 276 633 q 151 350 151 467 q 216 151 151 233 q 391 68 281 68 q 565 149 501 68 q 628 351 628 231 q 568 552 628 471 q 392 633 508 633 m 393 714 q 468 714 393 714 q 630 610 543 714 q 717 349 717 507 q 628 90 717 192 q 389 -12 540 -12 q 150 90 238 -12 q 63 348 63 193 q 153 608 63 503 q 393 714 243 714 z "},"õ":{"ha":779,"x_min":63,"x_max":717,"o":"m 313 889 q 219 821 254 889 l 169 863 q 224 930 188 903 q 302 957 261 957 q 403 925 343 957 q 489 893 464 893 q 558 953 531 893 l 617 914 q 493 825 575 825 q 397 857 458 825 q 313 889 335 889 m 392 633 q 334 633 392 633 q 214 550 276 633 q 151 350 151 467 q 216 151 151 233 q 391 68 281 68 q 565 149 501 68 q 628 351 628 231 q 568 552 628 471 q 392 633 508 633 m 393 714 q 468 714 393 714 q 630 610 543 714 q 717 349 717 507 q 628 90 717 192 q 389 -12 540 -12 q 150 90 238 -12 q 63 348 63 193 q 153 608 63 503 q 393 714 243 714 z "},"ö":{"ha":779,"x_min":63,"x_max":717,"o":"m 272 942 q 284 942 272 942 q 315 925 297 942 q 332 883 332 908 q 315 840 332 857 q 272 822 297 822 q 229 840 246 822 q 213 883 213 857 q 229 925 213 908 q 272 942 246 942 m 528 942 q 541 942 528 942 q 571 925 554 942 q 588 883 588 908 q 571 840 588 857 q 528 822 554 822 q 485 840 503 822 q 468 883 468 857 q 485 925 468 908 q 528 942 503 942 m 392 633 q 334 633 392 633 q 214 550 276 633 q 151 350 151 467 q 216 151 151 233 q 391 68 281 68 q 565 149 501 68 q 628 351 628 231 q 568 552 628 471 q 392 633 508 633 m 393 714 q 468 714 393 714 q 630 610 543 714 q 717 349 717 507 q 628 90 717 192 q 389 -12 540 -12 q 150 90 238 -12 q 63 348 63 193 q 153 608 63 503 q 393 714 243 714 z "},"÷":{"ha":756,"x_min":83,"x_max":672,"o":"m 423 766 q 432 757 423 766 q 442 721 442 747 q 423 676 442 694 q 378 657 404 657 q 333 676 351 657 q 314 721 314 694 q 333 766 314 747 q 378 785 351 785 q 423 766 404 785 m 423 269 q 432 259 423 269 q 442 224 442 250 q 423 178 442 197 q 378 160 404 160 q 333 178 351 160 q 314 224 314 197 q 333 269 314 250 q 378 288 351 288 q 423 269 404 288 m 672 433 l 83 433 l 83 511 l 672 511 l 672 433 z "},"ø":{"ha":782,"x_min":86,"x_max":740,"o":"m 410 64 q 591 146 526 64 q 656 346 656 228 q 607 539 656 464 l 276 108 q 410 64 336 64 m 410 638 q 235 553 299 638 q 171 357 171 469 q 222 167 171 244 l 551 597 q 410 638 493 638 m 657 606 q 740 349 740 507 q 652 90 740 192 q 410 -12 564 -12 q 226 43 303 -12 l 185 -12 l 86 -12 l 169 96 q 86 349 86 196 q 176 608 86 503 q 410 714 267 714 q 599 660 521 714 l 640 714 l 740 714 l 657 606 z "},"ù":{"ha":735,"x_min":97,"x_max":629,"o":"m 406 779 l 329 779 l 151 988 l 264 988 l 406 779 m 629 0 l 544 0 l 544 126 q 321 -10 489 -10 q 158 52 218 -10 q 97 215 97 114 l 97 704 l 182 704 l 182 239 q 224 115 182 158 q 336 72 267 72 q 487 139 429 72 q 544 313 544 206 l 544 704 l 629 704 l 629 0 z "},"ú":{"ha":735,"x_min":97,"x_max":629,"o":"m 411 781 l 335 781 l 476 989 l 589 989 l 411 781 m 629 0 l 544 0 l 544 126 q 321 -10 489 -10 q 158 52 218 -10 q 97 215 97 114 l 97 704 l 182 704 l 182 239 q 224 115 182 158 q 336 72 267 72 q 487 139 429 72 q 544 313 544 206 l 544 704 l 629 704 l 629 0 z "},"û":{"ha":735,"x_min":97,"x_max":629,"o":"m 246 781 l 157 781 l 322 989 l 410 989 l 575 781 l 486 781 l 365 929 l 246 781 m 629 0 l 544 0 l 544 126 q 321 -10 489 -10 q 158 52 218 -10 q 97 215 97 114 l 97 704 l 182 704 l 182 239 q 224 115 182 158 q 336 72 267 72 q 487 139 429 72 q 544 313 544 206 l 544 704 l 629 704 l 629 0 z "},"ü":{"ha":735,"x_min":97,"x_max":629,"o":"m 241 942 q 254 942 241 942 q 284 925 267 942 q 301 883 301 908 q 284 840 301 857 q 241 822 267 822 q 199 840 215 822 q 182 883 182 857 q 199 925 182 908 q 241 942 215 942 m 498 942 q 511 942 498 942 q 540 925 524 942 q 557 883 557 908 q 540 840 557 857 q 498 822 524 822 q 455 840 472 822 q 438 883 438 857 q 455 925 438 908 q 498 942 472 942 m 629 0 l 544 0 l 544 126 q 321 -10 489 -10 q 158 52 218 -10 q 97 215 97 114 l 97 704 l 182 704 l 182 239 q 224 115 182 158 q 336 72 267 72 q 487 139 429 72 q 544 313 544 206 l 544 704 l 629 704 l 629 0 z "},"ý":{"ha":669,"x_min":13,"x_max":643,"o":"m 385 781 l 308 781 l 450 989 l 563 989 l 385 781 m 99 -233 q 46 -226 71 -233 l 46 -143 q 93 -150 71 -150 q 300 19 242 -150 l 13 704 l 110 704 l 342 129 q 549 704 356 175 l 643 704 l 388 18 q 263 -179 335 -125 q 99 -233 190 -233 z "},"þ":{"ha":771,"x_min":106,"x_max":708,"o":"m 190 349 q 212 213 190 271 q 267 125 233 156 q 403 69 332 69 q 558 145 497 69 q 619 351 619 221 q 560 558 619 482 q 411 635 501 635 q 256 569 321 635 q 190 349 190 503 m 190 -278 l 106 -278 l 106 982 l 190 982 l 190 601 q 407 715 264 715 q 629 612 550 715 q 708 352 708 508 q 624 92 708 196 q 403 -11 539 -11 q 190 106 268 -11 l 190 -278 z "},"ÿ":{"ha":669,"x_min":13,"x_max":643,"o":"m 219 942 q 232 942 219 942 q 262 925 244 942 q 279 883 279 908 q 262 840 279 857 q 219 822 244 822 q 176 840 193 822 q 160 883 160 857 q 176 925 160 908 q 219 942 193 942 m 476 942 q 489 942 476 942 q 518 925 501 942 q 535 883 535 908 q 518 840 535 857 q 476 822 501 822 q 433 840 450 822 q 415 883 415 857 q 433 925 415 908 q 476 942 450 942 m 99 -233 q 46 -226 71 -233 l 46 -143 q 93 -150 71 -150 q 300 19 242 -150 l 13 704 l 110 704 l 342 129 q 549 704 356 175 l 643 704 l 388 18 q 263 -179 335 -125 q 99 -233 190 -233 z "},"Ā":{"ha":885,"x_min":53,"x_max":832,"o":"m 629 1085 l 264 1085 l 264 1147 l 629 1147 l 629 1085 m 146 0 l 53 0 l 383 936 l 508 936 l 832 0 l 739 0 l 650 260 l 236 260 l 146 0 m 446 864 q 263 336 393 703 l 625 336 l 446 864 z "},"ā":{"ha":675,"x_min":69,"x_max":578,"o":"m 522 853 l 157 853 l 157 915 l 522 915 l 522 853 m 290 -7 q 131 51 193 -7 q 69 204 69 108 q 148 356 69 300 q 356 413 226 413 l 493 413 l 493 444 q 453 587 493 539 q 310 635 413 635 q 121 575 208 635 l 121 667 q 319 715 201 715 q 578 444 578 715 l 578 0 l 493 0 l 493 82 q 290 -7 435 -7 m 160 201 q 160 172 160 201 q 198 107 160 143 q 315 71 236 71 q 443 117 393 71 q 493 233 493 163 l 493 335 l 356 335 q 208 297 257 335 q 160 201 160 258 z "},"Ă":{"ha":885,"x_min":53,"x_max":832,"o":"m 661 1219 q 610 1066 661 1125 q 446 1007 558 1007 q 282 1066 333 1007 q 231 1219 231 1125 l 303 1219 q 446 1074 303 1074 q 589 1219 589 1074 l 661 1219 m 146 0 l 53 0 l 383 936 l 508 936 l 832 0 l 739 0 l 650 260 l 236 260 l 146 0 m 446 864 q 263 336 393 703 l 625 336 l 446 864 z "},"ă":{"ha":675,"x_min":69,"x_max":578,"o":"m 558 988 q 507 834 558 893 q 343 775 456 775 q 179 834 231 775 q 128 988 128 893 l 200 988 q 343 842 200 842 q 486 988 486 842 l 558 988 m 290 -7 q 131 51 193 -7 q 69 204 69 108 q 148 356 69 300 q 356 413 226 413 l 493 413 l 493 444 q 453 587 493 539 q 310 635 413 635 q 121 575 208 635 l 121 667 q 319 715 201 715 q 578 444 578 715 l 578 0 l 493 0 l 493 82 q 290 -7 435 -7 m 160 201 q 160 172 160 201 q 198 107 160 143 q 315 71 236 71 q 443 117 393 71 q 493 233 493 163 l 493 335 l 356 335 q 208 297 257 335 q 160 201 160 258 z "},"Ą":{"ha":885,"x_min":53,"x_max":864,"o":"m 864 -304 q 757 -329 825 -329 q 644 -287 689 -329 q 600 -183 600 -244 q 638 -69 600 -121 q 733 15 675 -18 l 650 260 l 236 260 l 146 0 l 53 0 l 383 936 l 508 936 l 832 0 q 678 -172 678 -69 q 704 -240 678 -217 q 778 -262 731 -262 q 864 -235 826 -262 l 864 -304 m 446 864 q 263 336 393 703 l 625 336 l 446 864 z "},"ą":{"ha":675,"x_min":69,"x_max":610,"o":"m 610 -304 q 503 -329 571 -329 q 390 -287 435 -329 q 346 -181 346 -244 q 388 -63 346 -117 q 493 22 429 -10 l 493 88 q 290 -7 415 -7 q 131 48 193 -7 q 69 201 69 103 q 149 357 69 300 q 360 414 228 414 l 493 414 l 493 444 q 453 587 493 539 q 309 635 413 635 q 121 576 206 635 l 121 664 q 319 715 203 715 q 578 444 578 715 l 578 0 q 424 -172 424 -69 q 450 -240 424 -217 q 524 -262 476 -262 q 610 -235 572 -262 l 610 -304 m 158 200 q 197 109 158 143 q 312 75 236 75 q 440 119 388 75 q 493 222 493 164 l 493 332 l 379 332 q 158 200 158 332 z "},"Ć":{"ha":832,"x_min":69,"x_max":776,"o":"m 544 1013 l 468 1013 l 610 1221 l 722 1221 l 544 1013 m 543 -11 q 200 118 331 -11 q 69 466 69 247 q 204 817 69 685 q 538 949 339 949 q 774 899 675 949 l 774 808 q 665 853 713 840 q 535 867 618 867 q 266 758 374 867 q 158 469 158 649 q 265 181 158 290 q 547 71 371 71 q 776 143 685 71 l 776 49 q 543 -11 692 -11 z "},"ć":{"ha":656,"x_min":63,"x_max":622,"o":"m 444 779 l 368 779 l 510 988 l 622 988 l 444 779 m 425 -17 q 158 91 254 -17 q 63 348 63 199 q 160 607 63 497 q 425 717 258 717 q 579 679 511 717 l 579 593 q 433 635 517 635 q 228 551 304 635 q 151 348 151 467 q 225 147 151 229 q 435 65 299 65 q 579 110 519 65 l 579 24 q 425 -17 519 -17 z "},"Č":{"ha":832,"x_min":69,"x_max":776,"o":"m 576 1013 l 489 1013 l 324 1221 l 413 1221 l 533 1072 l 653 1221 l 742 1221 l 576 1013 m 543 -11 q 200 118 331 -11 q 69 466 69 247 q 204 817 69 685 q 538 949 339 949 q 774 899 675 949 l 774 808 q 665 853 713 840 q 535 867 618 867 q 266 758 374 867 q 158 469 158 649 q 265 181 158 290 q 547 71 371 71 q 776 143 685 71 l 776 49 q 543 -11 692 -11 z "},"č":{"ha":656,"x_min":63,"x_max":592,"o":"m 426 781 l 339 781 l 174 989 l 263 989 l 383 840 l 503 989 l 592 989 l 426 781 m 425 -17 q 158 91 254 -17 q 63 348 63 199 q 160 607 63 497 q 425 717 258 717 q 579 679 511 717 l 579 593 q 433 635 517 635 q 228 551 304 635 q 151 348 151 467 q 225 147 151 229 q 435 65 299 65 q 579 110 519 65 l 579 24 q 425 -17 519 -17 z "},"Ď":{"ha":910,"x_min":111,"x_max":847,"o":"m 464 1011 l 376 1011 l 211 1219 l 300 1219 l 421 1071 l 540 1219 l 629 1219 l 464 1011 m 378 857 l 197 857 l 197 79 l 385 79 q 554 113 481 79 q 671 203 628 146 q 757 475 757 317 q 651 745 757 633 q 378 857 544 857 m 385 0 l 111 0 l 111 936 l 378 936 q 715 808 583 936 q 847 474 847 681 q 642 69 847 200 q 385 0 535 0 z "},"ď":{"ha":885,"x_min":63,"x_max":976,"o":"m 824 722 l 749 722 l 871 982 l 976 982 l 824 722 m 665 0 l 581 0 l 581 103 q 364 -11 507 -11 q 142 92 221 -11 q 63 352 63 196 q 147 612 63 508 q 367 715 232 715 q 581 599 503 715 l 581 982 l 665 982 l 665 0 m 368 635 q 213 559 274 635 q 151 353 151 483 q 210 146 151 222 q 360 69 269 69 q 515 135 450 69 q 581 356 581 201 q 559 491 581 433 q 503 578 538 549 q 368 635 439 635 z "},"Đ":{"ha":1007,"x_min":83,"x_max":944,"o":"m 550 435 l 294 435 l 294 79 l 482 79 q 651 113 578 79 q 768 203 725 146 q 854 475 854 317 q 748 745 854 633 q 475 857 642 857 l 294 857 l 294 508 l 550 508 l 550 435 m 482 0 l 208 0 l 208 435 l 83 435 l 83 508 l 208 508 l 208 936 l 475 936 q 813 808 681 936 q 944 474 944 681 q 739 69 944 200 q 482 0 632 0 z "},"đ":{"ha":771,"x_min":63,"x_max":769,"o":"m 665 0 l 581 0 l 581 103 q 364 -11 507 -11 q 142 92 221 -11 q 63 352 63 196 q 147 612 63 508 q 367 715 232 715 q 581 599 503 715 l 581 824 l 296 824 l 296 890 l 581 890 l 581 982 l 665 982 l 665 890 l 769 890 l 769 824 l 665 824 l 665 0 m 368 635 q 213 559 274 635 q 151 353 151 483 q 210 146 151 222 q 360 69 269 69 q 515 135 450 69 q 581 356 581 201 q 559 491 581 433 q 503 578 538 549 q 368 635 439 635 z "},"Ē":{"ha":681,"x_min":111,"x_max":618,"o":"m 544 1085 l 179 1085 l 179 1147 l 544 1147 l 544 1085 m 618 0 l 111 0 l 111 936 l 610 936 l 610 857 l 197 857 l 197 507 l 561 507 l 561 428 l 197 428 l 197 79 l 618 79 l 618 0 z "},"ē":{"ha":721,"x_min":63,"x_max":654,"o":"m 568 853 l 203 853 l 203 915 l 568 915 l 568 853 m 567 424 q 513 576 567 519 q 370 633 460 633 q 221 571 281 633 q 151 392 161 508 l 567 392 l 567 424 m 415 -7 q 160 91 258 -7 q 63 353 63 189 q 149 615 63 518 q 368 713 235 713 q 578 628 501 713 q 654 389 654 543 q 649 314 654 342 l 151 314 q 232 135 161 197 q 421 74 303 74 q 610 121 539 74 l 610 35 q 415 -7 526 -7 z "},"Ė":{"ha":681,"x_min":111,"x_max":618,"o":"m 380 1179 q 393 1179 380 1179 q 422 1163 406 1179 q 439 1120 439 1146 q 422 1077 439 1094 q 380 1060 406 1060 q 337 1077 354 1060 q 319 1120 319 1094 q 337 1163 319 1146 q 380 1179 354 1179 m 618 0 l 111 0 l 111 936 l 610 936 l 610 857 l 197 857 l 197 507 l 561 507 l 561 428 l 197 428 l 197 79 l 618 79 l 618 0 z "},"ė":{"ha":721,"x_min":63,"x_max":654,"o":"m 392 946 q 405 946 392 946 q 435 929 418 946 q 451 887 451 913 q 435 844 451 861 q 392 826 418 826 q 349 844 367 826 q 332 887 332 861 q 349 929 332 913 q 392 946 367 946 m 567 424 q 513 576 567 519 q 370 633 460 633 q 221 571 281 633 q 151 392 161 508 l 567 392 l 567 424 m 415 -7 q 160 91 258 -7 q 63 353 63 189 q 149 615 63 518 q 368 713 235 713 q 578 628 501 713 q 654 389 654 543 q 649 314 654 342 l 151 314 q 232 135 161 197 q 421 74 303 74 q 610 121 539 74 l 610 35 q 415 -7 526 -7 z "},"Ę":{"ha":681,"x_min":111,"x_max":618,"o":"m 493 -304 q 386 -329 454 -329 q 274 -287 318 -329 q 229 -179 229 -244 q 339 0 229 -75 l 111 0 l 111 936 l 610 936 l 610 857 l 197 857 l 197 507 l 561 507 l 561 428 l 197 428 l 197 79 l 618 79 l 618 0 l 461 0 q 307 -172 307 -69 q 333 -240 307 -217 q 408 -262 360 -262 q 493 -235 456 -262 l 493 -304 z "},"ę":{"ha":721,"x_min":63,"x_max":654,"o":"m 511 -306 q 404 -331 472 -331 q 292 -288 336 -331 q 247 -181 247 -246 q 354 -3 247 -78 q 142 111 222 17 q 63 362 63 206 q 149 615 63 518 q 368 713 235 713 q 578 628 501 713 q 654 389 654 543 q 649 314 654 342 l 151 314 q 232 135 161 197 q 421 74 303 74 q 610 121 539 74 l 610 35 q 476 -3 560 10 q 325 -174 325 -72 q 351 -241 325 -218 q 426 -264 378 -264 q 511 -236 474 -264 l 511 -306 m 567 424 q 513 576 567 519 q 370 633 460 633 q 221 571 281 633 q 151 392 161 508 l 567 392 l 567 424 z "},"Ě":{"ha":681,"x_min":111,"x_max":618,"o":"m 418 1011 l 331 1011 l 165 1219 l 254 1219 l 375 1071 l 494 1219 l 583 1219 l 418 1011 m 618 0 l 111 0 l 111 936 l 610 936 l 610 857 l 197 857 l 197 507 l 561 507 l 561 428 l 197 428 l 197 79 l 618 79 l 618 0 z "},"ě":{"ha":721,"x_min":63,"x_max":654,"o":"m 425 781 l 338 781 l 172 989 l 261 989 l 382 840 l 501 989 l 590 989 l 425 781 m 567 424 q 513 576 567 519 q 370 633 460 633 q 221 571 281 633 q 151 392 161 508 l 567 392 l 567 424 m 415 -7 q 160 91 258 -7 q 63 353 63 189 q 149 615 63 518 q 368 713 235 713 q 578 628 501 713 q 654 389 654 543 q 649 314 654 342 l 151 314 q 232 135 161 197 q 421 74 303 74 q 610 121 539 74 l 610 35 q 415 -7 526 -7 z "},"Ğ":{"ha":918,"x_min":69,"x_max":821,"o":"m 724 1221 q 672 1067 724 1126 q 508 1008 621 1008 q 344 1067 396 1008 q 293 1221 293 1126 l 365 1221 q 508 1075 365 1075 q 651 1221 651 1075 l 724 1221 m 543 -11 q 199 117 329 -11 q 69 463 69 246 q 197 817 69 681 q 518 953 324 953 q 790 888 683 953 l 790 792 q 524 867 683 867 q 262 758 365 867 q 158 467 158 649 q 261 180 158 285 q 544 75 364 75 q 735 118 651 75 l 735 439 l 514 439 l 514 515 l 821 515 l 821 69 q 543 -11 711 -11 z "},"ğ":{"ha":749,"x_min":63,"x_max":651,"o":"m 613 989 q 561 835 613 894 q 397 776 510 776 q 233 835 285 776 q 182 989 182 894 l 254 989 q 397 843 254 843 q 540 989 540 843 l 613 989 m 364 635 q 208 557 265 635 q 151 354 151 479 q 215 163 151 229 q 358 97 279 97 q 501 159 436 97 q 567 358 567 221 q 504 565 567 494 q 364 635 442 635 m 651 54 q 565 -185 651 -106 q 351 -265 479 -265 q 138 -225 222 -265 l 138 -142 q 333 -185 224 -185 q 504 -127 442 -185 q 567 54 567 -69 l 567 146 q 356 17 496 17 q 148 107 233 17 q 63 353 63 197 q 141 613 63 510 q 347 715 219 715 q 567 581 499 715 l 567 704 l 651 704 l 651 54 z "},"Ģ":{"ha":918,"x_min":69,"x_max":821,"o":"m 421 -331 l 346 -331 l 468 -71 l 574 -71 l 421 -331 m 543 -11 q 199 117 329 -11 q 69 463 69 246 q 197 817 69 681 q 518 953 324 953 q 790 888 683 953 l 790 792 q 524 867 683 867 q 262 758 365 867 q 158 467 158 649 q 261 180 158 285 q 544 75 364 75 q 735 118 651 75 l 735 439 l 514 439 l 514 515 l 821 515 l 821 69 q 543 -11 711 -11 z "},"ģ":{"ha":749,"x_min":63,"x_max":651,"o":"m 474 779 l 368 779 l 521 1039 l 596 1039 l 474 779 m 364 635 q 208 557 265 635 q 151 354 151 479 q 215 163 151 229 q 358 97 279 97 q 501 159 436 97 q 567 358 567 221 q 504 565 567 494 q 364 635 442 635 m 651 54 q 565 -185 651 -106 q 351 -265 479 -265 q 138 -225 222 -265 l 138 -142 q 333 -185 224 -185 q 504 -127 442 -185 q 567 54 567 -69 l 567 146 q 356 17 496 17 q 148 107 233 17 q 63 353 63 197 q 141 613 63 510 q 347 715 219 715 q 567 581 499 715 l 567 704 l 651 704 l 651 54 z "},"Ī":{"ha":322,"x_min":-21,"x_max":344,"o":"m 344 1085 l -21 1085 l -21 1147 l 344 1147 l 344 1085 m 204 0 l 118 0 l 118 936 l 204 936 l 204 0 z "},"ī":{"ha":307,"x_min":-28,"x_max":338,"o":"m 338 853 l -28 853 l -28 915 l 338 915 l 338 853 m 196 0 l 111 0 l 111 704 l 196 704 l 196 0 z "},"Į":{"ha":322,"x_min":-28,"x_max":236,"o":"m 236 -304 q 129 -329 197 -329 q 17 -287 61 -329 q -28 -181 -28 -244 q 13 -65 -28 -118 q 118 22 54 -11 l 118 936 l 204 936 l 204 0 q 50 -172 50 -69 q 76 -240 50 -217 q 151 -262 103 -262 q 236 -235 199 -262 l 236 -304 z "},"į":{"ha":307,"x_min":-36,"x_max":228,"o":"m 228 -304 q 121 -329 189 -329 q 8 -287 53 -329 q -36 -181 -36 -244 q 6 -63 -36 -117 q 111 22 47 -10 l 111 704 l 196 704 l 196 0 q 42 -172 42 -69 q 68 -240 42 -217 q 142 -262 94 -262 q 228 -235 190 -262 l 228 -304 m 195 972 q 204 963 195 972 q 213 929 213 954 q 195 888 213 904 q 153 871 178 871 q 111 888 128 871 q 94 929 94 904 q 111 972 94 954 q 153 989 128 989 q 195 972 178 989 z "},"İ":{"ha":322,"x_min":103,"x_max":222,"o":"m 163 1181 q 176 1181 163 1181 q 206 1164 189 1181 q 222 1122 222 1147 q 206 1078 222 1096 q 163 1061 189 1061 q 120 1078 138 1061 q 103 1122 103 1096 q 120 1164 103 1147 q 163 1181 138 1181 m 204 0 l 118 0 l 118 936 l 204 936 l 204 0 z "},"ı":{"ha":307,"x_min":111,"x_max":196,"o":"m 196 0 l 111 0 l 111 704 l 196 704 l 196 0 z "},"Ķ":{"ha":763,"x_min":111,"x_max":721,"o":"m 197 0 l 111 0 l 111 936 l 197 936 l 197 0 m 296 -331 l 221 -331 l 343 -71 l 449 -71 l 296 -331 m 721 0 l 607 0 l 222 461 l 593 936 l 701 936 l 332 461 l 721 0 z "},"ķ":{"ha":642,"x_min":106,"x_max":611,"o":"m 226 -331 l 151 -331 l 274 -71 l 379 -71 l 226 -331 m 314 369 l 611 0 l 506 0 l 211 369 l 497 704 l 601 704 l 314 369 m 190 0 l 106 0 l 106 982 l 190 982 l 190 0 z "},"Ĺ":{"ha":658,"x_min":111,"x_max":610,"o":"m 431 1013 l 354 1013 l 496 1221 l 608 1221 l 431 1013 m 610 0 l 111 0 l 111 936 l 197 936 l 197 79 l 610 79 l 610 0 z "},"ĺ":{"ha":307,"x_min":111,"x_max":374,"o":"m 196 1058 l 119 1058 l 261 1267 l 374 1267 l 196 1058 m 196 0 l 111 0 l 111 982 l 196 982 l 196 0 z "},"Ļ":{"ha":658,"x_min":111,"x_max":610,"o":"m 610 0 l 111 0 l 111 936 l 197 936 l 197 79 l 610 79 l 610 0 m 268 -331 l 193 -331 l 315 -71 l 421 -71 l 268 -331 z "},"ļ":{"ha":307,"x_min":-19,"x_max":208,"o":"m 56 -331 l -19 -331 l 103 -71 l 208 -71 l 56 -331 m 196 0 l 111 0 l 111 982 l 196 982 l 196 0 z "},"Ľ":{"ha":658,"x_min":111,"x_max":610,"o":"m 408 715 l 333 715 l 456 975 l 561 975 l 408 715 m 610 0 l 111 0 l 111 936 l 197 936 l 197 79 l 610 79 l 610 0 z "},"ľ":{"ha":353,"x_min":111,"x_max":521,"o":"m 368 722 l 293 722 l 415 982 l 521 982 l 368 722 m 196 0 l 111 0 l 111 982 l 196 982 l 196 0 z "},"Ł":{"ha":671,"x_min":35,"x_max":622,"o":"m 210 79 l 622 79 l 622 0 l 124 0 l 124 356 l 35 289 l 35 381 l 124 447 l 124 936 l 210 936 l 210 511 l 413 661 l 413 569 l 210 419 l 210 79 z "},"ł":{"ha":386,"x_min":49,"x_max":338,"o":"m 225 0 l 140 0 l 140 438 l 49 372 l 49 464 l 140 529 l 140 982 l 225 982 l 225 590 l 338 671 l 338 579 l 225 499 l 225 0 z "},"Ń":{"ha":926,"x_min":111,"x_max":815,"o":"m 538 1011 l 461 1011 l 603 1219 l 715 1219 l 538 1011 m 197 0 l 111 0 l 111 936 l 229 936 l 732 101 q 729 539 729 246 l 729 936 l 815 936 l 815 0 l 697 0 l 194 835 q 197 396 197 685 l 197 0 z "},"ń":{"ha":735,"x_min":106,"x_max":638,"o":"m 449 781 l 372 781 l 514 989 l 626 989 l 449 781 m 638 0 l 553 0 l 553 465 q 511 590 553 547 q 392 633 469 633 q 253 567 315 633 q 190 389 190 501 l 190 0 l 106 0 l 106 704 l 190 704 l 190 583 q 414 715 256 715 q 576 653 515 715 q 638 492 638 590 l 638 0 z "},"Ņ":{"ha":926,"x_min":111,"x_max":815,"o":"m 381 -331 l 306 -331 l 428 -71 l 533 -71 l 381 -331 m 197 0 l 111 0 l 111 936 l 229 936 l 732 101 q 729 539 729 246 l 729 936 l 815 936 l 815 0 l 697 0 l 194 835 q 197 396 197 685 l 197 0 z "},"ņ":{"ha":735,"x_min":106,"x_max":638,"o":"m 282 -331 l 207 -331 l 329 -71 l 435 -71 l 282 -331 m 638 0 l 553 0 l 553 465 q 511 590 553 547 q 392 633 469 633 q 253 567 315 633 q 190 389 190 501 l 190 0 l 106 0 l 106 704 l 190 704 l 190 583 q 414 715 256 715 q 576 653 515 715 q 638 492 638 590 l 638 0 z "},"Ň":{"ha":926,"x_min":111,"x_max":815,"o":"m 533 1013 l 446 1013 l 281 1221 l 369 1221 l 490 1072 l 610 1221 l 699 1221 l 533 1013 m 197 0 l 111 0 l 111 936 l 229 936 l 732 101 q 729 539 729 246 l 729 936 l 815 936 l 815 0 l 697 0 l 194 835 q 197 396 197 685 l 197 0 z "},"ň":{"ha":735,"x_min":106,"x_max":638,"o":"m 439 781 l 351 781 l 186 989 l 275 989 l 396 840 l 515 989 l 604 989 l 439 781 m 638 0 l 553 0 l 553 465 q 511 590 553 547 q 392 633 469 633 q 253 567 315 633 q 190 389 190 501 l 190 0 l 106 0 l 106 704 l 190 704 l 190 583 q 414 715 256 715 q 576 653 515 715 q 638 492 638 590 l 638 0 z "},"Ō":{"ha":960,"x_min":69,"x_max":890,"o":"m 665 1085 l 300 1085 l 300 1147 l 665 1147 l 665 1085 m 481 872 q 405 872 481 872 q 244 766 329 872 q 158 474 158 660 q 247 180 158 288 q 485 72 335 72 q 718 178 635 72 q 801 473 801 285 q 717 767 801 661 q 481 872 633 872 m 482 956 q 578 956 482 956 q 782 826 674 956 q 890 473 890 696 q 781 119 890 250 q 483 -11 671 -11 q 183 121 296 -11 q 69 473 69 253 q 180 824 69 693 q 482 956 290 956 z "},"ō":{"ha":779,"x_min":63,"x_max":717,"o":"m 576 853 l 211 853 l 211 915 l 576 915 l 576 853 m 392 633 q 334 633 392 633 q 214 550 276 633 q 151 350 151 467 q 216 151 151 233 q 391 68 281 68 q 565 149 501 68 q 628 351 628 231 q 568 552 628 471 q 392 633 508 633 m 393 714 q 468 714 393 714 q 630 610 543 714 q 717 349 717 507 q 628 90 717 192 q 389 -12 540 -12 q 150 90 238 -12 q 63 348 63 193 q 153 608 63 503 q 393 714 243 714 z "},"Ő":{"ha":960,"x_min":69,"x_max":890,"o":"m 435 1013 l 367 1013 l 504 1221 l 617 1221 l 435 1013 m 640 1013 l 572 1013 l 715 1221 l 828 1221 l 640 1013 m 481 872 q 405 872 481 872 q 244 766 329 872 q 158 474 158 660 q 247 180 158 288 q 485 72 335 72 q 718 178 635 72 q 801 473 801 285 q 717 767 801 661 q 481 872 633 872 m 482 956 q 578 956 482 956 q 782 826 674 956 q 890 473 890 696 q 781 119 890 250 q 483 -11 671 -11 q 183 121 296 -11 q 69 473 69 253 q 180 824 69 693 q 482 956 290 956 z "},"ő":{"ha":779,"x_min":63,"x_max":744,"o":"m 351 781 l 283 781 l 421 989 l 533 989 l 351 781 m 557 781 l 489 781 l 632 989 l 744 989 l 557 781 m 392 633 q 334 633 392 633 q 214 550 276 633 q 151 350 151 467 q 216 151 151 233 q 391 68 281 68 q 565 149 501 68 q 628 351 628 231 q 568 552 628 471 q 392 633 508 633 m 393 714 q 468 714 393 714 q 630 610 543 714 q 717 349 717 507 q 628 90 717 192 q 389 -12 540 -12 q 150 90 238 -12 q 63 348 63 193 q 153 608 63 503 q 393 714 243 714 z "},"Œ":{"ha":1360,"x_min":69,"x_max":1297,"o":"m 1297 0 l 790 0 l 790 147 q 475 -11 683 -11 q 180 120 290 -11 q 69 473 69 251 q 177 825 69 694 q 472 956 285 956 q 790 800 683 956 l 790 936 l 1289 936 l 1289 857 l 876 857 l 876 507 l 1240 507 l 1240 428 l 876 428 l 876 79 l 1297 79 l 1297 0 m 474 872 q 398 872 474 872 q 240 766 322 872 q 158 473 158 660 q 244 179 158 286 q 478 72 329 72 q 709 178 628 72 q 790 472 790 283 q 708 767 790 661 q 474 872 626 872 z "},"œ":{"ha":1244,"x_min":63,"x_max":1183,"o":"m 1132 35 q 947 -7 1049 -7 q 766 35 844 -7 q 642 153 688 76 q 372 -12 564 -12 q 144 90 225 -12 q 63 348 63 192 q 147 609 63 504 q 372 714 231 714 q 639 556 561 714 q 907 713 722 713 q 1113 626 1042 713 q 1183 382 1183 540 q 1178 314 1183 342 l 683 314 q 765 135 693 197 q 949 74 838 74 q 1132 121 1061 74 l 1132 35 m 1096 424 q 1042 579 1096 525 q 903 633 989 633 q 756 572 817 633 q 683 392 694 511 l 1096 392 l 1096 424 m 372 633 q 208 551 264 633 q 151 350 151 469 q 210 149 151 231 q 377 68 268 68 q 540 147 486 68 q 593 349 593 226 q 372 633 593 633 z "},"Ŕ":{"ha":738,"x_min":111,"x_max":703,"o":"m 404 1013 l 328 1013 l 469 1221 l 582 1221 l 404 1013 m 339 381 l 197 381 l 197 0 l 111 0 l 111 936 l 322 936 q 567 862 486 936 q 649 651 649 788 q 596 489 646 557 q 454 396 546 421 l 703 0 l 600 0 l 365 382 q 339 381 357 381 m 332 860 l 197 860 l 197 457 l 349 457 q 507 514 451 457 q 563 656 563 571 q 332 860 563 860 z "},"ŕ":{"ha":436,"x_min":106,"x_max":490,"o":"m 313 781 l 236 781 l 378 989 l 490 989 l 313 781 m 190 0 l 106 0 l 106 704 l 190 704 l 190 585 q 388 713 249 713 q 422 710 397 713 l 422 624 q 367 632 394 632 q 241 558 292 632 q 190 393 190 483 l 190 0 z "},"Ŗ":{"ha":738,"x_min":111,"x_max":703,"o":"m 290 -331 l 215 -331 l 338 -71 l 443 -71 l 290 -331 m 339 381 l 197 381 l 197 0 l 111 0 l 111 936 l 322 936 q 567 862 486 936 q 649 651 649 788 q 596 489 646 557 q 454 396 546 421 l 703 0 l 600 0 l 365 382 q 339 381 357 381 m 332 860 l 197 860 l 197 457 l 349 457 q 507 514 451 457 q 563 656 563 571 q 332 860 563 860 z "},"ŗ":{"ha":436,"x_min":-28,"x_max":422,"o":"m 190 0 l 106 0 l 106 704 l 190 704 l 190 585 q 388 713 249 713 q 422 710 397 713 l 422 624 q 367 632 394 632 q 241 558 292 632 q 190 393 190 483 l 190 0 m 47 -331 l -28 -331 l 94 -71 l 200 -71 l 47 -331 z "},"Ř":{"ha":738,"x_min":111,"x_max":703,"o":"m 417 1011 l 329 1011 l 164 1219 l 253 1219 l 374 1071 l 493 1219 l 582 1219 l 417 1011 m 339 381 l 197 381 l 197 0 l 111 0 l 111 936 l 322 936 q 567 862 486 936 q 649 651 649 788 q 596 489 646 557 q 454 396 546 421 l 703 0 l 600 0 l 365 382 q 339 381 357 381 m 332 860 l 197 860 l 197 457 l 349 457 q 507 514 451 457 q 563 656 563 571 q 332 860 563 860 z "},"ř":{"ha":436,"x_min":68,"x_max":486,"o":"m 321 779 l 233 779 l 68 988 l 157 988 l 278 839 l 397 988 l 486 988 l 321 779 m 190 0 l 106 0 l 106 704 l 190 704 l 190 585 q 388 713 249 713 q 422 710 397 713 l 422 624 q 367 632 394 632 q 241 558 292 632 q 190 393 190 483 l 190 0 z "},"Ś":{"ha":732,"x_min":101,"x_max":642,"o":"m 436 1011 l 360 1011 l 501 1219 l 614 1219 l 436 1011 m 642 242 q 560 55 642 119 q 342 -10 478 -10 q 104 51 206 -10 l 104 147 q 212 94 146 115 q 361 74 278 74 q 499 117 444 74 q 554 231 554 160 q 513 339 554 301 q 343 433 467 381 q 205 503 228 483 q 160 543 182 522 q 128 585 138 564 q 101 694 101 642 q 186 878 101 813 q 390 944 271 944 q 588 903 510 944 l 588 807 q 500 844 554 829 q 394 860 446 860 q 246 816 301 860 q 190 700 190 772 q 254 581 190 625 q 374 515 306 543 q 467 474 442 486 q 531 438 492 463 q 589 389 569 413 q 642 242 642 325 z "},"ś":{"ha":564,"x_min":79,"x_max":518,"o":"m 340 781 l 264 781 l 406 989 l 518 989 l 340 781 m 328 387 q 369 370 328 387 q 463 306 411 353 q 515 176 515 260 q 455 42 515 93 q 278 -8 394 -8 q 83 33 161 -8 l 83 121 q 283 68 176 68 q 391 97 354 68 q 428 178 428 126 q 390 260 428 229 q 265 324 351 290 q 129 403 179 358 q 79 528 79 447 q 142 660 79 610 q 308 711 204 711 q 474 679 413 711 l 474 594 q 297 632 408 632 q 201 603 236 632 q 165 538 165 575 q 176 481 165 501 q 211 442 186 460 q 328 387 244 421 z "},"Ş":{"ha":732,"x_min":101,"x_max":642,"o":"m 400 -71 q 425 -174 425 -107 q 374 -290 425 -240 q 226 -344 322 -340 l 226 -276 q 347 -175 347 -264 q 315 -71 347 -124 l 400 -71 m 642 242 q 560 55 642 119 q 342 -10 478 -10 q 104 51 206 -10 l 104 147 q 212 94 146 115 q 361 74 278 74 q 499 117 444 74 q 554 231 554 160 q 513 339 554 301 q 343 433 467 381 q 205 503 228 483 q 160 543 182 522 q 128 585 138 564 q 101 694 101 642 q 186 878 101 813 q 390 944 271 944 q 588 903 510 944 l 588 807 q 500 844 554 829 q 394 860 446 860 q 246 816 301 860 q 190 700 190 772 q 254 581 190 625 q 374 515 306 543 q 467 474 442 486 q 531 438 492 463 q 589 389 569 413 q 642 242 642 325 z "},"ş":{"ha":564,"x_min":79,"x_max":515,"o":"m 351 -71 q 376 -174 376 -107 q 325 -290 376 -240 q 178 -344 274 -340 l 178 -276 q 299 -175 299 -264 q 267 -71 299 -124 l 351 -71 m 328 387 q 369 370 328 387 q 463 306 411 353 q 515 176 515 260 q 455 42 515 93 q 278 -8 394 -8 q 83 33 161 -8 l 83 121 q 283 68 176 68 q 391 97 354 68 q 428 178 428 126 q 390 260 428 229 q 265 324 351 290 q 129 403 179 358 q 79 528 79 447 q 142 660 79 610 q 308 711 204 711 q 474 679 413 711 l 474 594 q 297 632 408 632 q 201 603 236 632 q 165 538 165 575 q 176 481 165 501 q 211 442 186 460 q 328 387 244 421 z "},"Š":{"ha":732,"x_min":101,"x_max":642,"o":"m 408 1011 l 321 1011 l 156 1219 l 244 1219 l 365 1071 l 485 1219 l 574 1219 l 408 1011 m 642 242 q 560 55 642 119 q 342 -10 478 -10 q 104 51 206 -10 l 104 147 q 212 94 146 115 q 361 74 278 74 q 499 117 444 74 q 554 231 554 160 q 513 339 554 301 q 343 433 467 381 q 205 503 228 483 q 160 543 182 522 q 128 585 138 564 q 101 694 101 642 q 186 878 101 813 q 390 944 271 944 q 588 903 510 944 l 588 807 q 500 844 554 829 q 394 860 446 860 q 246 816 301 860 q 190 700 190 772 q 254 581 190 625 q 374 515 306 543 q 467 474 442 486 q 531 438 492 463 q 589 389 569 413 q 642 242 642 325 z "},"š":{"ha":564,"x_min":79,"x_max":526,"o":"m 361 781 l 274 781 l 108 989 l 197 989 l 318 840 l 438 989 l 526 989 l 361 781 m 328 387 q 369 370 328 387 q 463 306 411 353 q 515 176 515 260 q 455 42 515 93 q 278 -8 394 -8 q 83 33 161 -8 l 83 121 q 283 68 176 68 q 391 97 354 68 q 428 178 428 126 q 390 260 428 229 q 265 324 351 290 q 129 403 179 358 q 79 528 79 447 q 142 660 79 610 q 308 711 204 711 q 474 679 413 711 l 474 594 q 297 632 408 632 q 201 603 236 632 q 165 538 165 575 q 176 481 165 501 q 211 442 186 460 q 328 387 244 421 z "},"Ţ":{"ha":646,"x_min":21,"x_max":625,"o":"m 365 -71 q 390 -174 390 -107 q 339 -290 390 -240 q 192 -344 288 -340 l 192 -276 q 313 -175 313 -264 q 281 -71 313 -124 l 365 -71 m 625 857 l 365 857 l 365 0 l 279 0 l 279 857 l 21 857 l 21 936 l 625 936 l 625 857 z "},"ţ":{"ha":506,"x_min":35,"x_max":443,"o":"m 310 -71 q 335 -174 335 -107 q 283 -290 335 -240 q 136 -344 232 -340 l 136 -276 q 257 -175 257 -264 q 225 -71 257 -124 l 310 -71 m 350 -7 q 150 199 150 -7 l 150 632 l 35 632 l 35 704 l 150 704 l 150 881 l 236 881 l 236 704 l 438 704 l 438 632 l 236 632 l 236 194 q 349 74 236 74 q 443 106 404 74 l 443 19 q 350 -7 403 -7 z "},"Ť":{"ha":646,"x_min":21,"x_max":625,"o":"m 368 1013 l 281 1013 l 115 1221 l 204 1221 l 325 1072 l 444 1221 l 533 1221 l 368 1013 m 625 857 l 365 857 l 365 0 l 279 0 l 279 857 l 21 857 l 21 936 l 625 936 l 625 857 z "},"ť":{"ha":506,"x_min":35,"x_max":549,"o":"m 396 781 l 321 781 l 443 1040 l 549 1040 l 396 781 m 350 -7 q 150 199 150 -7 l 150 632 l 35 632 l 35 704 l 150 704 l 150 881 l 236 881 l 236 704 l 438 704 l 438 632 l 236 632 l 236 194 q 349 74 236 74 q 443 106 404 74 l 443 19 q 350 -7 403 -7 z "},"Ū":{"ha":888,"x_min":111,"x_max":776,"o":"m 629 1085 l 264 1085 l 264 1147 l 629 1147 l 629 1085 m 776 354 q 689 81 776 174 q 443 -11 601 -11 q 198 79 285 -11 q 111 343 111 169 l 111 936 l 197 936 l 197 344 q 263 138 197 204 q 442 72 329 72 q 690 351 690 72 l 690 936 l 776 936 l 776 354 z "},"ū":{"ha":735,"x_min":97,"x_max":629,"o":"m 546 853 l 181 853 l 181 915 l 546 915 l 546 853 m 629 0 l 544 0 l 544 126 q 321 -10 489 -10 q 158 52 218 -10 q 97 215 97 114 l 97 704 l 182 704 l 182 239 q 224 115 182 158 q 336 72 267 72 q 487 139 429 72 q 544 313 544 206 l 544 704 l 629 704 l 629 0 z "},"Ů":{"ha":888,"x_min":111,"x_max":776,"o":"m 395 1186 q 384 1175 395 1186 q 374 1133 374 1164 q 395 1081 374 1103 q 447 1060 417 1060 q 500 1081 478 1060 q 522 1133 522 1103 q 500 1186 522 1164 q 447 1208 478 1208 q 395 1186 417 1208 m 544 1231 q 565 1210 544 1231 q 585 1133 585 1190 q 544 1037 585 1076 q 448 997 504 997 q 351 1038 392 997 q 311 1134 311 1078 q 351 1231 311 1190 q 447 1271 390 1271 q 544 1231 504 1271 m 776 354 q 689 81 776 174 q 443 -11 601 -11 q 198 79 285 -11 q 111 343 111 169 l 111 936 l 197 936 l 197 344 q 263 138 197 204 q 442 72 329 72 q 690 351 690 72 l 690 936 l 776 936 l 776 354 z "},"ů":{"ha":735,"x_min":97,"x_max":629,"o":"m 323 956 q 312 944 323 956 q 301 903 301 933 q 323 851 301 872 q 375 829 344 829 q 428 851 406 829 q 450 903 450 872 q 428 956 450 933 q 375 978 406 978 q 323 956 344 978 m 472 1000 q 492 980 472 1000 q 513 903 513 960 q 472 806 513 846 q 376 767 432 767 q 279 807 319 767 q 239 903 239 847 q 278 1000 239 960 q 375 1040 318 1040 q 472 1000 432 1040 m 629 0 l 544 0 l 544 126 q 321 -10 489 -10 q 158 52 218 -10 q 97 215 97 114 l 97 704 l 182 704 l 182 239 q 224 115 182 158 q 336 72 267 72 q 487 139 429 72 q 544 313 544 206 l 544 704 l 629 704 l 629 0 z "},"Ű":{"ha":888,"x_min":111,"x_max":776,"o":"m 368 1013 l 300 1013 l 438 1221 l 550 1221 l 368 1013 m 574 1013 l 506 1013 l 649 1221 l 761 1221 l 574 1013 m 776 354 q 689 81 776 174 q 443 -11 601 -11 q 198 79 285 -11 q 111 343 111 169 l 111 936 l 197 936 l 197 344 q 263 138 197 204 q 442 72 329 72 q 690 351 690 72 l 690 936 l 776 936 l 776 354 z "},"ű":{"ha":735,"x_min":97,"x_max":690,"o":"m 297 781 l 229 781 l 367 989 l 479 989 l 297 781 m 503 781 l 435 781 l 578 989 l 690 989 l 503 781 m 629 0 l 544 0 l 544 126 q 321 -10 489 -10 q 158 52 218 -10 q 97 215 97 114 l 97 704 l 182 704 l 182 239 q 224 115 182 158 q 336 72 267 72 q 487 139 429 72 q 544 313 544 206 l 544 704 l 629 704 l 629 0 z "},"Ų":{"ha":888,"x_min":111,"x_max":776,"o":"m 776 354 q 571 8 776 76 q 418 -164 418 -61 q 444 -231 418 -208 q 519 -254 471 -254 q 604 -226 567 -254 l 604 -296 q 497 -321 565 -321 q 385 -278 429 -321 q 340 -171 340 -236 q 425 -11 340 -82 q 193 85 275 -6 q 111 343 111 175 l 111 936 l 197 936 l 197 344 q 263 138 197 204 q 442 72 329 72 q 690 351 690 72 l 690 936 l 776 936 l 776 354 z "},"ų":{"ha":735,"x_min":97,"x_max":661,"o":"m 661 -304 q 554 -329 622 -329 q 442 -287 486 -329 q 397 -181 397 -244 q 439 -63 397 -117 q 544 22 481 -10 l 544 126 q 321 -10 489 -10 q 158 52 218 -10 q 97 215 97 114 l 97 704 l 182 704 l 182 239 q 224 115 182 158 q 336 72 267 72 q 487 139 429 72 q 544 313 544 206 l 544 704 l 629 704 l 629 0 q 475 -172 475 -69 q 501 -240 475 -217 q 576 -262 528 -262 q 661 -235 624 -262 l 661 -304 z "},"Ÿ":{"ha":806,"x_min":42,"x_max":764,"o":"m 273 1176 q 286 1176 273 1176 q 316 1160 299 1176 q 333 1117 333 1143 q 316 1074 333 1092 q 273 1057 299 1057 q 231 1074 247 1057 q 214 1117 214 1092 q 231 1160 214 1143 q 273 1176 247 1176 m 530 1176 q 543 1176 530 1176 q 572 1160 556 1176 q 589 1117 589 1143 q 572 1074 589 1092 q 530 1057 556 1057 q 487 1074 504 1057 q 469 1117 469 1092 q 487 1160 469 1143 q 530 1176 504 1176 m 444 0 l 358 0 l 358 350 l 42 936 l 140 936 l 214 799 l 401 438 q 665 936 413 464 l 764 936 l 444 350 l 444 0 z "},"Ź":{"ha":771,"x_min":69,"x_max":701,"o":"m 439 1013 l 363 1013 l 504 1221 l 617 1221 l 439 1013 m 701 0 l 69 0 l 69 76 l 583 860 l 75 860 l 75 936 l 681 936 l 681 860 l 167 76 l 701 76 l 701 0 z "},"ź":{"ha":619,"x_min":63,"x_max":557,"o":"m 354 781 l 278 781 l 419 989 l 532 989 l 354 781 m 557 0 l 63 0 l 63 71 l 432 622 l 76 622 l 76 704 l 538 704 l 538 640 l 163 83 l 557 83 l 557 0 z "},"Ż":{"ha":771,"x_min":69,"x_max":701,"o":"m 392 1181 q 405 1181 392 1181 q 435 1164 418 1181 q 451 1122 451 1147 q 435 1078 451 1096 q 392 1061 418 1061 q 349 1078 367 1061 q 332 1122 332 1096 q 349 1164 332 1147 q 392 1181 367 1181 m 701 0 l 69 0 l 69 76 l 583 860 l 75 860 l 75 936 l 681 936 l 681 860 l 167 76 l 701 76 l 701 0 z "},"ż":{"ha":619,"x_min":63,"x_max":557,"o":"m 334 944 q 347 944 334 944 q 376 928 360 944 q 393 885 393 911 q 376 842 393 860 q 334 825 360 825 q 291 842 308 825 q 274 885 274 860 q 291 928 274 911 q 334 944 308 944 m 557 0 l 63 0 l 63 71 l 432 622 l 76 622 l 76 704 l 538 704 l 538 640 l 163 83 l 557 83 l 557 0 z "},"Ž":{"ha":771,"x_min":69,"x_max":701,"o":"m 424 1013 l 336 1013 l 171 1221 l 260 1221 l 381 1072 l 500 1221 l 589 1221 l 424 1013 m 701 0 l 69 0 l 69 76 l 583 860 l 75 860 l 75 936 l 681 936 l 681 860 l 167 76 l 701 76 l 701 0 z "},"ž":{"ha":619,"x_min":63,"x_max":557,"o":"m 374 781 l 286 781 l 121 989 l 210 989 l 331 840 l 450 989 l 539 989 l 374 781 m 557 0 l 63 0 l 63 71 l 432 622 l 76 622 l 76 704 l 538 704 l 538 640 l 163 83 l 557 83 l 557 0 z "},"ƒ":{"ha":496,"x_min":-106,"x_max":544,"o":"m -21 -357 q -106 -346 -72 -357 l -106 -262 q -26 -276 -68 -276 q 104 -115 75 -276 l 203 438 l 64 438 l 64 510 l 215 510 l 251 714 q 321 889 272 832 q 460 946 369 946 q 544 935 511 946 l 544 851 q 465 865 507 865 q 335 704 364 865 l 300 510 l 439 510 l 439 438 l 288 438 l 188 -125 q 118 -300 167 -243 q -21 -357 69 -357 z "},"Ș":{"ha":732,"x_min":101,"x_max":642,"o":"m 269 -331 l 194 -331 l 317 -71 l 422 -71 l 269 -331 m 642 242 q 560 55 642 119 q 342 -10 478 -10 q 104 51 206 -10 l 104 147 q 212 94 146 115 q 361 74 278 74 q 499 117 444 74 q 554 231 554 160 q 513 339 554 301 q 343 433 467 381 q 205 503 228 483 q 160 543 182 522 q 128 585 138 564 q 101 694 101 642 q 186 878 101 813 q 390 944 271 944 q 588 903 510 944 l 588 807 q 500 844 554 829 q 394 860 446 860 q 246 816 301 860 q 190 700 190 772 q 254 581 190 625 q 374 515 306 543 q 467 474 442 486 q 531 438 492 463 q 589 389 569 413 q 642 242 642 325 z "},"ș":{"ha":564,"x_min":79,"x_max":515,"o":"m 199 -331 l 124 -331 l 246 -71 l 351 -71 l 199 -331 m 328 387 q 369 370 328 387 q 463 306 411 353 q 515 176 515 260 q 455 42 515 93 q 278 -8 394 -8 q 83 33 161 -8 l 83 121 q 283 68 176 68 q 391 97 354 68 q 428 178 428 126 q 390 260 428 229 q 265 324 351 290 q 129 403 179 358 q 79 528 79 447 q 142 660 79 610 q 308 711 204 711 q 474 679 413 711 l 474 594 q 297 632 408 632 q 201 603 236 632 q 165 538 165 575 q 176 481 165 501 q 211 442 186 460 q 328 387 244 421 z "},"Ț":{"ha":646,"x_min":21,"x_max":625,"o":"m 625 857 l 365 857 l 365 0 l 279 0 l 279 857 l 21 857 l 21 936 l 625 936 l 625 857 m 218 -331 l 143 -331 l 265 -71 l 371 -71 l 218 -331 z "},"ț":{"ha":506,"x_min":35,"x_max":443,"o":"m 232 -331 l 157 -331 l 279 -71 l 385 -71 l 232 -331 m 350 -7 q 150 199 150 -7 l 150 632 l 35 632 l 35 704 l 150 704 l 150 881 l 236 881 l 236 704 l 438 704 l 438 632 l 236 632 l 236 194 q 349 74 236 74 q 443 106 404 74 l 443 19 q 350 -7 403 -7 z "},"ˆ":{"ha":556,"x_min":68,"x_max":486,"o":"m 157 900 l 68 900 l 233 1108 l 321 1108 l 486 900 l 397 900 l 276 1049 l 157 900 z "},"ˇ":{"ha":556,"x_min":68,"x_max":486,"o":"m 321 900 l 233 900 l 68 1108 l 157 1108 l 278 960 l 397 1108 l 486 1108 l 321 900 z "},"ˉ":{"ha":556,"x_min":94,"x_max":460,"o":"m 460 978 l 94 978 l 94 1040 l 460 1040 l 460 978 z "},"˘":{"ha":556,"x_min":63,"x_max":493,"o":"m 493 1108 q 442 955 493 1014 q 278 896 390 896 q 114 955 165 896 q 63 1108 63 1014 l 135 1108 q 278 963 135 963 q 421 1108 421 963 l 493 1108 z "},"˙":{"ha":556,"x_min":218,"x_max":338,"o":"m 278 1069 q 291 1069 278 1069 q 321 1053 304 1069 q 338 1010 338 1036 q 321 967 338 985 q 278 950 304 950 q 235 967 253 950 q 218 1010 218 985 q 235 1053 218 1036 q 278 1069 253 1069 z "},"˚":{"ha":556,"x_min":140,"x_max":414,"o":"m 224 1057 q 214 1046 224 1057 q 203 1004 203 1035 q 224 952 203 974 q 276 931 246 931 q 329 952 307 931 q 351 1005 351 974 q 330 1058 351 1036 q 277 1079 308 1079 q 224 1057 246 1079 m 374 1101 q 394 1081 374 1101 q 414 1004 414 1061 q 374 908 414 947 q 276 868 333 868 q 180 908 219 868 q 140 1004 140 947 q 180 1101 140 1061 q 276 1142 219 1142 q 374 1101 333 1142 z "},"˛":{"ha":556,"x_min":146,"x_max":410,"o":"m 410 -290 q 303 -315 371 -315 q 190 -273 235 -315 q 146 -161 146 -231 q 203 -31 146 -92 q 342 57 261 31 l 378 14 q 224 -158 224 -56 q 250 -226 224 -203 q 324 -249 276 -249 q 410 -221 372 -249 l 410 -290 z "},"˜":{"ha":556,"x_min":69,"x_max":517,"o":"m 213 992 q 119 924 154 992 l 69 965 q 124 1033 88 1006 q 202 1060 161 1060 q 303 1028 243 1060 q 389 996 364 996 q 458 1056 431 996 l 517 1017 q 393 928 475 928 q 297 960 358 928 q 213 992 235 992 z "},"˝":{"ha":556,"x_min":47,"x_max":508,"o":"m 115 900 l 47 900 l 185 1108 l 297 1108 l 115 900 m 321 900 l 253 900 l 396 1108 l 508 1108 l 321 900 z "},"π":{"ha":800,"x_min":35,"x_max":772,"o":"m 772 632 l 633 632 l 633 0 l 549 0 l 549 632 l 258 632 l 258 211 q 205 47 258 94 q 57 0 151 0 l 57 78 q 148 105 122 78 q 174 210 174 132 l 174 632 l 35 632 l 35 704 l 772 704 l 772 632 z "},"।":{"ha":426,"x_min":201,"x_max":288,"o":"m 288 0 l 201 0 l 201 881 l 288 881 l 288 0 z "},"॥":{"ha":715,"x_min":201,"x_max":576,"o":"m 288 0 l 201 0 l 201 881 l 288 881 l 288 0 m 576 0 l 490 0 l 490 881 l 576 881 l 576 0 z "},"ഁ":{"ha":0,"x_min":-461,"x_max":115,"o":"m -169 1256 q -152 1256 -169 1256 q -114 1235 -135 1256 q -93 1178 -93 1214 q -113 1122 -93 1143 q -169 1101 -133 1101 q -226 1123 -206 1101 q -247 1179 -247 1144 q -226 1235 -247 1214 q -169 1256 -204 1256 m 115 1167 q 37 965 115 1038 q -174 893 -42 893 q -383 965 -306 893 q -461 1167 -461 1038 l -378 1167 q -324 1026 -378 1081 q -174 972 -269 972 q -24 1026 -78 972 q 31 1167 31 1081 l 115 1167 z "},"ം":{"ha":571,"x_min":49,"x_max":543,"o":"m 296 -14 q 243 -14 296 -14 q 119 62 190 -14 q 49 248 49 138 q 119 432 49 358 q 297 506 190 506 q 474 432 404 506 q 543 248 543 358 q 472 62 543 138 q 296 -14 401 -14 m 177 376 q 155 350 177 376 q 133 246 133 325 q 178 116 133 167 q 295 65 222 65 q 413 116 368 65 q 458 245 458 167 q 413 375 458 324 q 294 426 368 426 q 177 376 221 426 z "},"ഃ":{"ha":444,"x_min":60,"x_max":385,"o":"m 222 -14 q 189 -14 222 -14 q 108 35 156 -14 q 60 160 60 85 q 107 283 60 235 q 222 331 154 331 q 338 283 290 331 q 385 160 385 235 q 337 35 385 85 q 222 -14 289 -14 m 222 264 q 201 264 222 264 q 157 235 181 264 q 133 158 133 206 q 158 81 133 110 q 223 53 182 53 q 288 81 264 53 q 311 157 311 108 q 287 235 311 206 q 222 264 263 264 m 222 461 q 189 461 222 461 q 108 510 156 461 q 60 635 60 560 q 107 758 60 710 q 222 806 154 806 q 338 758 290 806 q 385 635 385 710 q 337 510 385 560 q 222 461 289 461 m 222 739 q 201 739 222 739 q 157 710 181 739 q 133 633 133 681 q 158 556 133 585 q 223 528 182 528 q 288 556 264 528 q 311 632 311 583 q 287 710 311 681 q 222 739 263 739 z "},"അ":{"ha":2099,"x_min":76,"x_max":2036,"o":"m 1764 418 q 1727 418 1764 418 q 1641 367 1690 418 q 1592 238 1592 315 q 1639 112 1592 161 q 1758 63 1686 63 q 1884 113 1831 63 q 1938 240 1938 163 q 1888 367 1938 317 q 1764 418 1838 418 m 744 706 q 582 576 639 668 q 525 354 525 483 q 597 144 525 225 q 776 63 669 63 q 898 107 856 63 q 940 213 940 151 q 899 308 940 274 q 800 343 858 343 l 763 343 l 763 428 l 800 428 q 883 463 854 428 q 913 554 913 499 q 744 706 913 663 m 410 69 l 410 -14 q 168 98 260 -14 q 76 361 76 210 q 203 686 76 567 q 535 806 331 806 q 725 779 646 806 q 890 806 792 806 q 1090 745 988 806 q 1239 575 1193 685 q 1379 740 1281 674 q 1599 806 1478 806 q 1917 665 1797 806 q 2036 310 2036 524 q 1959 76 2036 167 q 1765 -14 1882 -14 q 1577 62 1647 -14 q 1507 245 1507 138 q 1581 425 1507 353 q 1764 497 1654 497 q 1877 467 1825 497 q 1956 382 1929 436 q 1831 635 1932 543 q 1603 728 1731 728 q 1379 638 1476 728 q 1282 406 1282 547 l 1282 0 l 1199 0 l 1199 406 q 1169 552 1199 488 q 1092 653 1139 617 q 879 728 994 728 q 1003 554 1003 656 q 889 390 1003 421 q 991 333 951 375 q 1031 222 1031 292 q 965 52 1031 118 q 778 -14 900 -14 q 529 91 619 -14 q 439 361 439 196 q 487 571 439 475 q 619 726 535 667 q 535 729 564 729 q 268 634 369 729 q 167 361 167 539 q 238 153 167 236 q 410 69 310 69 z "},"ആ":{"ha":2146,"x_min":76,"x_max":2118,"o":"m 744 706 q 582 576 639 668 q 525 354 525 483 q 597 144 525 225 q 776 63 669 63 q 898 107 856 63 q 940 213 940 151 q 899 308 940 274 q 800 343 858 343 l 763 343 l 763 428 l 800 428 q 883 463 854 428 q 913 554 913 499 q 744 706 913 663 m 725 779 q 890 806 792 806 q 1090 745 988 806 q 1239 575 1193 685 q 1379 740 1281 674 q 1599 806 1478 806 q 1912 671 1792 806 q 2032 361 2032 536 q 2118 110 2118 251 q 2006 -193 2118 -71 q 1718 -315 1893 -315 q 1576 -299 1667 -315 l 1576 -219 q 1717 -236 1651 -236 q 1941 -142 1851 -236 q 2031 110 2031 -47 q 2017 219 2031 174 q 1922 47 1990 108 q 1749 -14 1854 -14 q 1574 62 1644 -14 q 1504 245 1504 138 q 1578 425 1504 353 q 1753 497 1651 497 q 1936 447 1856 497 q 1814 651 1906 574 q 1599 728 1722 728 q 1379 638 1476 728 q 1282 406 1282 547 l 1282 0 l 1199 0 l 1199 406 q 1169 552 1199 488 q 1092 653 1139 617 q 879 728 994 728 q 1003 554 1003 656 q 889 390 1003 421 q 991 333 951 375 q 1031 222 1031 292 q 965 52 1031 118 q 778 -14 900 -14 q 529 91 619 -14 q 439 361 439 196 q 487 571 439 475 q 619 726 535 667 q 535 729 564 729 q 268 634 369 729 q 167 361 167 539 q 238 153 167 236 q 410 69 310 69 l 410 -14 q 168 98 260 -14 q 76 361 76 210 q 203 686 76 567 q 535 806 331 806 q 725 779 646 806 m 1594 239 q 1594 199 1594 239 q 1640 111 1594 160 q 1763 63 1686 63 q 1893 140 1839 63 q 1947 343 1947 218 l 1947 344 q 1764 418 1875 418 q 1642 368 1690 418 q 1594 239 1594 318 z "},"ഇ":{"ha":1250,"x_min":63,"x_max":1174,"o":"m 879 806 q 1086 716 999 806 q 1174 471 1174 626 q 1050 169 1174 281 q 714 57 926 57 l 294 57 q 189 31 225 57 q 153 -39 153 6 q 299 -135 153 -135 l 1144 -135 l 1144 -211 l 279 -211 q 117 -165 171 -211 q 63 -40 63 -119 q 120 87 63 40 q 279 133 178 133 l 672 133 q 1083 471 1083 133 q 1028 653 1083 581 q 881 726 974 726 q 731 660 789 726 q 674 503 674 594 l 674 364 l 590 364 l 590 475 q 515 653 590 581 q 346 726 439 726 q 203 677 253 726 q 153 551 153 628 q 200 431 153 475 q 408 392 275 361 l 408 308 q 325 301 369 301 q 136 365 210 301 q 63 541 63 428 q 135 730 63 654 q 340 806 208 806 q 629 635 525 806 q 721 760 657 714 q 879 806 785 806 z "},"ഈ":{"ha":2392,"x_min":63,"x_max":2315,"o":"m 2315 454 q 2211 148 2315 268 q 1939 28 2107 28 q 1801 51 1865 28 l 1801 132 q 1938 110 1879 110 q 2147 210 2068 110 q 2225 450 2225 310 q 2172 658 2225 590 q 2040 726 2118 726 q 1913 671 1961 726 q 1864 536 1864 615 l 1864 464 l 1775 464 l 1775 536 q 1722 676 1775 625 q 1599 726 1668 726 q 1481 674 1531 726 q 1431 525 1431 621 q 1464 385 1431 467 l 1374 385 q 1343 524 1343 446 q 1418 728 1343 650 q 1601 806 1493 806 q 1731 769 1675 806 q 1818 674 1788 732 q 2019 806 1882 806 q 2235 708 2156 806 q 2315 454 2315 610 m 1144 -211 l 279 -211 q 117 -165 171 -211 q 63 -40 63 -119 q 120 87 63 40 q 279 133 178 133 l 672 133 q 1083 471 1083 133 q 1028 653 1083 581 q 881 726 974 726 q 731 660 789 726 q 674 503 674 594 l 674 364 l 590 364 l 590 475 q 515 653 590 581 q 346 726 439 726 q 203 677 253 726 q 153 551 153 628 q 200 431 153 475 q 408 392 275 361 l 408 308 q 325 301 369 301 q 136 365 210 301 q 63 541 63 428 q 135 730 63 654 q 340 806 208 806 q 629 635 525 806 q 721 760 657 714 q 879 806 785 806 q 1086 716 999 806 q 1174 471 1174 626 q 1050 169 1174 281 q 714 57 926 57 l 294 57 q 189 31 225 57 q 153 -39 153 6 q 299 -135 153 -135 l 1144 -135 l 1144 -211 z "},"ഉ":{"ha":956,"x_min":63,"x_max":879,"o":"m 271 553 q 244 553 271 553 q 183 515 218 553 q 149 427 149 476 q 183 340 149 378 q 271 301 218 301 q 359 340 324 301 q 394 428 394 378 q 359 516 394 479 q 271 553 324 553 m 879 -221 l 293 -221 q 131 -175 185 -221 q 76 -49 76 -129 q 134 77 76 31 q 293 125 192 124 l 482 125 q 719 201 649 125 q 789 416 789 278 q 703 642 789 554 q 471 729 617 729 q 196 608 300 729 q 393 593 306 650 q 481 426 481 536 q 424 286 481 346 q 278 226 368 226 q 125 289 188 226 q 63 454 63 351 q 178 706 63 606 q 471 806 294 806 q 763 699 647 806 q 879 426 879 592 q 788 154 879 260 q 522 49 697 49 l 308 49 q 203 22 239 49 q 167 -49 167 -4 q 313 -144 167 -144 l 879 -144 l 879 -221 z "},"ഊ":{"ha":2072,"x_min":63,"x_max":1996,"o":"m 1996 454 q 1892 148 1996 268 q 1619 28 1788 28 q 1482 51 1546 28 l 1482 132 q 1618 110 1560 110 q 1827 210 1749 110 q 1906 450 1906 310 q 1852 658 1906 590 q 1720 726 1799 726 q 1593 671 1642 726 q 1544 536 1544 615 l 1544 464 l 1456 464 l 1456 536 q 1402 676 1456 625 q 1280 726 1349 726 q 1161 674 1211 726 q 1111 525 1111 621 q 1144 385 1111 467 l 1054 385 q 1024 524 1024 446 q 1099 728 1024 650 q 1282 806 1174 806 q 1412 769 1356 806 q 1499 674 1468 732 q 1699 806 1563 806 q 1916 708 1836 806 q 1996 454 1996 610 m 271 553 q 244 553 271 553 q 183 515 218 553 q 149 427 149 476 q 183 340 149 378 q 271 301 218 301 q 359 340 324 301 q 394 428 394 378 q 359 516 394 479 q 271 553 324 553 m 879 -221 l 293 -221 q 131 -175 185 -221 q 76 -49 76 -129 q 134 77 76 31 q 293 125 192 124 l 482 125 q 719 201 649 125 q 789 416 789 278 q 703 642 789 554 q 471 729 617 729 q 196 608 300 729 q 393 593 306 650 q 481 426 481 536 q 424 286 481 346 q 278 226 368 226 q 125 289 188 226 q 63 454 63 351 q 178 706 63 606 q 471 806 294 806 q 763 699 647 806 q 879 426 879 592 q 788 154 879 260 q 522 49 697 49 l 308 49 q 203 22 239 49 q 167 -49 167 -4 q 313 -144 167 -144 l 879 -144 l 879 -221 z "},"ഋ":{"ha":1208,"x_min":63,"x_max":1146,"o":"m 916 729 q 886 729 916 729 q 816 688 856 729 q 776 588 776 647 q 816 488 776 529 q 916 447 856 447 q 1014 488 976 447 q 1051 588 1051 529 q 1014 688 1051 647 q 916 729 976 729 m 292 729 q 262 729 292 729 q 194 688 232 729 q 157 588 157 647 q 194 488 157 529 q 292 447 232 447 q 392 488 353 447 q 432 588 432 529 q 392 688 432 647 q 292 729 353 729 m 604 135 q 497 135 604 135 q 284 96 390 135 q 178 -28 178 57 q 292 -158 178 -114 q 604 -203 406 -203 q 917 -158 803 -203 q 1031 -28 1031 -114 q 924 96 1031 57 q 604 135 818 135 m 1118 -36 q 1074 -151 1118 -103 q 955 -227 1031 -200 q 792 -267 879 -254 q 604 -279 706 -279 q 416 -267 503 -279 q 253 -227 329 -254 q 134 -151 178 -200 q 90 -36 90 -103 q 321 179 90 135 q 138 316 214 225 q 63 530 63 407 q 128 729 63 653 q 293 806 194 806 q 457 741 392 806 q 522 583 522 676 q 458 431 522 490 q 313 371 394 371 q 179 410 232 371 q 361 247 240 288 q 604 211 464 211 q 953 308 844 211 q 1029 410 999 349 q 895 371 976 371 q 750 431 814 371 q 686 583 686 490 q 751 741 686 676 q 915 806 817 806 q 1080 729 1014 806 q 1146 530 1146 653 q 1070 316 1146 407 q 888 179 994 225 q 1118 -36 1118 135 z "},"ഌ":{"ha":1658,"x_min":63,"x_max":1596,"o":"m 1340 683 q 1229 536 1278 632 q 1181 326 1181 440 q 1224 139 1181 213 q 1343 65 1267 65 q 1463 140 1419 65 q 1507 328 1507 214 q 1458 538 1507 442 q 1340 683 1408 633 m 318 683 q 201 538 250 633 q 151 328 151 442 q 195 140 151 214 q 315 65 239 65 q 435 139 392 65 q 478 326 478 213 q 429 536 478 440 q 318 683 381 632 m 399 714 q 515 561 463 664 q 568 349 568 458 q 544 165 568 239 q 460 38 519 90 q 315 -14 401 -14 q 169 39 229 -14 q 63 332 63 133 q 185 668 63 531 q 490 806 308 806 q 694 742 603 806 q 829 578 785 678 q 965 742 874 678 q 1168 806 1056 806 q 1473 668 1350 806 q 1596 329 1596 531 q 1489 39 1596 133 q 1343 -14 1429 -14 q 1197 39 1257 -14 q 1090 329 1090 133 q 1143 561 1090 458 q 1260 714 1196 664 q 1168 729 1218 729 q 959 635 1047 729 q 871 406 871 540 l 871 0 l 788 0 l 788 406 q 699 635 788 540 q 490 729 611 729 q 399 714 440 729 z "},"എ":{"ha":1831,"x_min":56,"x_max":1747,"o":"m 1146 -190 q 1244 -76 1244 -190 l 1244 0 l 946 0 q 1029 -135 969 -79 q 1146 -190 1089 -190 m 1328 -33 q 1146 -271 1328 -271 q 975 -202 1057 -271 q 854 0 893 -133 l 508 0 l 508 72 q 619 315 619 172 q 556 499 619 424 q 382 575 493 575 q 208 497 271 575 q 146 309 146 419 q 206 134 146 199 q 340 69 267 69 l 340 -14 q 131 87 206 -14 q 56 317 56 188 q 143 549 56 447 q 382 651 231 651 q 622 553 533 651 q 710 315 710 454 q 621 71 710 176 q 743 76 658 76 l 844 76 q 835 239 835 151 q 888 522 835 394 q 1048 728 942 650 q 1294 806 1154 806 q 1540 727 1435 806 q 1696 524 1644 649 q 1747 270 1747 399 q 1710 3 1747 142 q 1613 -243 1672 -136 l 1518 -243 q 1619 -6 1581 -137 q 1657 243 1657 126 q 1558 592 1657 456 q 1294 729 1458 729 q 1028 588 1131 729 q 925 239 925 447 q 935 76 925 156 l 1244 76 l 1244 504 l 1328 504 l 1328 -33 z "},"ഏ":{"ha":1882,"x_min":56,"x_max":1813,"o":"m 1146 -190 q 1244 -76 1244 -190 l 1244 0 l 946 0 q 1029 -135 969 -79 q 1146 -190 1089 -190 m 1328 -33 q 1146 -271 1328 -271 q 975 -202 1057 -271 q 854 0 893 -133 l 508 0 l 508 72 q 619 315 619 172 q 556 499 619 424 q 382 575 493 575 q 208 497 271 575 q 146 309 146 419 q 206 134 146 199 q 340 69 267 69 l 340 -14 q 131 87 206 -14 q 56 317 56 188 q 143 549 56 447 q 382 651 231 651 q 622 553 533 651 q 710 315 710 454 q 621 71 710 176 q 743 76 658 76 l 842 76 q 835 210 835 113 q 985 635 835 464 q 1367 806 1135 806 q 1666 713 1550 806 q 1782 476 1782 621 q 1742 329 1782 390 q 1632 244 1703 268 q 1760 166 1708 226 q 1813 14 1813 106 q 1740 -184 1813 -111 q 1535 -257 1668 -257 q 1422 -243 1481 -257 l 1422 -162 q 1535 -176 1478 -176 q 1672 -125 1622 -176 q 1722 15 1722 -74 q 1663 153 1722 104 q 1514 203 1603 203 l 1468 203 l 1468 286 l 1510 286 q 1644 338 1596 286 q 1692 476 1692 389 q 1600 663 1692 597 q 1367 729 1508 729 q 1053 588 1186 729 q 921 224 921 447 q 928 76 921 118 l 1244 76 l 1244 504 l 1328 504 l 1328 -33 z "},"ഐ":{"ha":2819,"x_min":69,"x_max":2736,"o":"m 2135 -190 q 2233 -76 2233 -190 l 2233 0 l 1935 0 q 2018 -135 1958 -79 q 2135 -190 2078 -190 m 2317 -33 q 2135 -271 2317 -271 q 1964 -202 2046 -271 q 1843 0 1882 -133 l 1497 0 l 1497 72 q 1608 315 1608 172 q 1545 499 1608 424 q 1371 575 1482 575 q 1197 497 1260 575 q 1135 309 1135 419 q 1195 134 1135 199 q 1329 69 1256 69 l 1329 -14 q 1119 87 1194 -14 q 1044 317 1044 188 q 1132 549 1044 447 q 1371 651 1219 651 q 1610 553 1522 651 q 1699 315 1699 454 q 1610 71 1699 176 q 1732 76 1647 76 l 1833 76 q 1824 239 1824 151 q 1877 522 1824 394 q 2037 728 1931 650 q 2283 806 2143 806 q 2528 727 2424 806 q 2685 524 2633 649 q 2736 270 2736 399 q 2699 3 2736 142 q 2601 -243 2661 -136 l 2507 -243 q 2608 -6 2569 -137 q 2646 243 2646 126 q 2547 592 2646 456 q 2283 729 2447 729 q 2017 588 2119 729 q 1914 239 1914 447 q 1924 76 1914 156 l 2233 76 l 2233 504 l 2317 504 l 2317 -33 m 358 497 q 542 425 468 497 q 615 245 615 353 q 545 62 615 138 q 356 -14 475 -14 q 153 90 238 -14 q 69 368 69 194 q 190 674 69 542 q 495 806 310 806 q 801 681 681 806 q 922 388 922 557 q 896 190 922 274 q 815 0 869 106 l 715 0 q 806 195 778 111 q 835 388 835 279 q 730 636 835 544 q 498 728 625 728 q 273 639 371 728 q 151 382 175 550 q 237 466 178 435 q 358 497 296 497 m 358 418 q 322 418 358 418 q 235 367 285 418 q 185 240 185 317 q 238 113 185 163 q 364 63 292 63 q 482 111 436 63 q 528 239 528 160 q 480 368 528 318 q 358 418 432 418 z "},"ഒ":{"ha":1106,"x_min":69,"x_max":1036,"o":"m 216 367 q 190 340 216 367 q 164 242 164 314 q 215 118 164 169 q 341 67 267 67 q 464 117 415 67 q 513 242 513 168 q 464 367 513 315 q 342 419 415 419 q 216 367 268 419 m 604 806 q 889 735 786 806 q 992 553 992 664 q 966 455 992 500 q 892 386 940 410 q 998 324 960 371 q 1036 196 1036 278 q 972 50 1036 114 q 796 -14 907 -14 q 701 -3 753 -14 l 701 76 q 808 65 753 65 q 905 106 864 65 q 946 210 946 146 q 903 307 946 274 q 793 340 861 340 l 747 340 l 747 424 l 789 424 q 874 461 846 424 q 901 553 901 499 q 828 681 901 635 q 599 726 754 726 q 324 642 443 726 q 171 408 204 557 q 250 474 201 450 q 351 499 299 499 q 532 423 461 499 q 603 240 603 347 q 525 59 603 132 q 329 -14 447 -14 q 140 77 211 -14 q 69 306 69 168 q 221 662 69 518 q 604 806 372 806 z "},"ഓ":{"ha":1747,"x_min":69,"x_max":1678,"o":"m 1577 695 q 1627 640 1577 695 q 1678 396 1678 585 q 1577 97 1678 207 q 1318 -14 1476 -14 q 1135 25 1222 -14 l 1135 108 q 1318 63 1238 63 q 1510 153 1432 63 q 1588 398 1588 244 q 1510 640 1588 551 q 1318 729 1433 729 q 1135 683 1238 729 l 1135 767 q 1318 806 1222 806 q 1577 695 1476 806 m 216 367 q 190 340 216 367 q 164 242 164 314 q 215 118 164 169 q 341 67 267 67 q 464 117 415 67 q 513 242 513 168 q 464 367 513 315 q 342 419 415 419 q 216 367 268 419 m 604 806 q 889 735 786 806 q 992 553 992 664 q 966 455 992 500 q 892 386 940 410 q 998 324 960 371 q 1036 196 1036 278 q 972 50 1036 114 q 796 -14 907 -14 q 701 -3 753 -14 l 701 76 q 808 65 753 65 q 905 106 864 65 q 946 210 946 146 q 903 307 946 274 q 793 340 861 340 l 747 340 l 747 424 l 789 424 q 874 461 846 424 q 901 553 901 499 q 828 681 901 635 q 599 726 754 726 q 324 642 443 726 q 171 408 204 557 q 250 474 201 450 q 351 499 299 499 q 532 423 461 499 q 603 240 603 347 q 525 59 603 132 q 329 -14 447 -14 q 140 77 211 -14 q 69 306 69 168 q 221 662 69 518 q 604 806 372 806 z "},"ഔ":{"ha":2218,"x_min":69,"x_max":2142,"o":"m 216 367 q 190 340 216 367 q 164 242 164 314 q 215 118 164 169 q 341 67 267 67 q 464 117 415 67 q 513 242 513 168 q 464 367 513 315 q 342 419 415 419 q 216 367 268 419 m 604 806 q 889 735 786 806 q 992 553 992 664 q 966 455 992 500 q 892 386 940 410 q 998 324 960 371 q 1036 196 1036 278 q 972 50 1036 114 q 796 -14 907 -14 q 701 -3 753 -14 l 701 76 q 808 65 753 65 q 905 106 864 65 q 946 210 946 146 q 903 307 946 274 q 793 340 861 340 l 747 340 l 747 424 l 789 424 q 874 461 846 424 q 901 553 901 499 q 828 681 901 635 q 599 726 754 726 q 324 642 443 726 q 171 408 204 557 q 250 474 201 450 q 351 499 299 499 q 532 423 461 499 q 603 240 603 347 q 525 59 603 132 q 329 -14 447 -14 q 140 77 211 -14 q 69 306 69 168 q 221 662 69 518 q 604 806 372 806 m 2142 454 q 2038 148 2142 268 q 1765 28 1933 28 q 1628 51 1692 28 l 1628 132 q 1764 110 1706 110 q 1973 210 1894 110 q 2051 450 2051 310 q 1998 658 2051 590 q 1866 726 1944 726 q 1739 671 1788 726 q 1690 536 1690 615 l 1690 464 l 1601 464 l 1601 536 q 1548 676 1601 625 q 1426 726 1494 726 q 1307 674 1357 726 q 1257 525 1257 621 q 1290 385 1257 467 l 1200 385 q 1169 524 1169 446 q 1244 728 1169 650 q 1428 806 1319 806 q 1558 769 1501 806 q 1644 674 1614 732 q 1845 806 1708 806 q 2062 708 1982 806 q 2142 454 2142 610 z "},"ക":{"ha":1500,"x_min":69,"x_max":1431,"o":"m 535 389 q 590 151 535 239 q 764 63 646 63 q 990 389 990 63 l 990 410 l 535 411 l 535 389 m 985 488 q 763 729 951 729 q 540 488 575 729 l 985 488 m 1081 389 q 1000 94 1081 203 q 760 -14 919 -14 q 518 104 601 -14 q 440 19 492 53 q 321 -14 389 -14 q 143 57 217 -14 q 69 244 69 128 q 155 424 69 361 q 382 488 240 488 l 450 488 q 551 723 469 640 q 763 806 632 806 q 974 722 893 806 q 1075 488 1054 639 l 1096 488 q 1340 424 1249 488 q 1431 244 1431 361 q 1357 58 1431 128 q 1172 -12 1283 -12 q 1129 -11 1144 -12 l 1129 72 q 1340 244 1340 72 q 1090 410 1340 410 l 1081 410 l 1081 389 m 160 244 q 206 114 160 163 q 316 65 253 65 q 421 103 379 65 q 474 194 463 140 q 444 389 444 278 l 444 411 l 382 411 q 160 244 160 411 z "},"ഖ":{"ha":1383,"x_min":69,"x_max":1258,"o":"m 338 418 q 301 418 338 418 q 214 367 264 418 q 164 240 164 317 q 217 113 164 163 q 343 63 271 63 q 461 111 415 63 q 507 239 507 160 q 459 368 507 318 q 338 418 411 418 m 832 389 q 740 633 832 542 q 510 725 649 725 q 272 633 372 725 q 147 382 172 540 q 226 467 174 436 q 340 497 279 497 q 524 425 450 497 q 597 245 597 353 q 527 62 597 138 q 341 -14 457 -14 q 147 76 225 -14 q 69 333 69 167 q 192 667 69 529 q 503 806 314 806 q 808 688 692 806 q 925 384 925 569 q 792 83 925 199 l 1175 83 l 1175 806 l 1258 806 l 1258 0 l 664 0 l 664 83 q 790 216 749 135 q 832 389 832 297 z "},"ഗ":{"ha":1231,"x_min":76,"x_max":1154,"o":"m 650 303 q 588 63 650 139 q 390 -14 525 -14 q 166 93 256 -14 q 76 396 76 200 q 146 665 76 547 q 259 767 183 729 q 440 806 335 806 l 440 722 q 167 396 167 722 q 226 153 167 244 q 393 63 286 63 q 567 296 567 63 l 567 468 q 640 715 567 624 q 851 806 714 806 q 1071 694 988 806 q 1154 382 1154 583 q 1085 119 1154 232 q 972 22 1047 58 q 790 -14 896 -14 l 790 69 q 998 147 932 69 q 1064 381 1064 225 q 1007 633 1064 536 q 853 729 950 729 q 703 662 756 729 q 650 475 650 594 l 650 303 z "},"ഘ":{"ha":1714,"x_min":56,"x_max":1589,"o":"m 774 471 l 774 381 l 1183 381 l 1183 471 q 1135 659 1183 589 q 981 729 1086 729 q 825 658 876 729 q 774 471 774 588 m 272 294 q 117 367 178 300 q 56 537 56 435 q 125 715 56 639 q 308 792 194 792 q 494 719 422 792 q 565 538 565 646 q 548 449 565 494 q 506 376 531 403 q 614 381 539 381 l 690 381 l 690 471 q 763 717 690 629 q 981 806 836 806 q 1196 717 1125 806 q 1267 471 1267 629 l 1267 304 l 774 304 l 774 76 l 1506 76 l 1506 806 l 1589 806 l 1589 0 l 690 0 l 690 304 l 400 304 l 400 378 q 475 526 475 442 q 432 663 475 611 q 310 715 389 715 q 188 664 231 715 q 146 538 146 613 q 181 424 146 464 q 272 378 217 383 l 272 294 z "},"ങ":{"ha":1575,"x_min":76,"x_max":1506,"o":"m 344 418 q 308 418 344 418 q 221 367 271 418 q 171 240 171 317 q 224 113 171 163 q 350 63 278 63 q 468 111 422 63 q 514 239 514 160 q 466 368 514 318 q 344 418 418 418 m 347 497 q 531 425 457 497 q 604 245 604 353 q 534 62 604 138 q 345 -14 464 -14 q 151 85 226 -14 q 76 360 76 185 q 192 670 76 535 q 500 806 307 806 q 710 744 622 806 q 847 589 797 683 q 974 743 885 681 q 1181 806 1063 806 q 1378 748 1299 806 q 1457 586 1457 690 q 1419 463 1457 514 q 1315 400 1381 411 q 1454 341 1403 388 q 1506 217 1506 294 q 1423 44 1506 103 q 1206 -14 1340 -14 q 1092 -3 1140 -14 l 1092 81 q 1224 68 1147 68 q 1358 106 1301 68 q 1415 217 1415 144 q 1204 351 1415 351 l 1147 351 l 1147 435 l 1190 435 q 1317 474 1268 435 q 1367 584 1367 514 q 1316 690 1367 654 q 1175 726 1265 726 q 975 639 1061 726 q 889 392 889 551 l 889 0 l 806 0 l 806 392 q 717 641 806 554 q 499 728 629 728 q 274 636 369 728 q 154 382 179 544 q 233 467 181 436 q 347 497 286 497 z "},"ച":{"ha":1214,"x_min":14,"x_max":1089,"o":"m 169 356 q 244 562 169 476 q 441 647 319 647 q 636 567 563 647 q 710 361 710 486 q 663 197 710 278 q 544 76 615 117 l 1006 76 l 1006 806 l 1089 806 l 1089 0 l 14 0 l 14 76 l 282 76 q 530 165 440 76 q 619 353 619 254 q 572 511 619 453 q 440 569 525 569 q 308 507 356 569 q 260 353 260 444 q 289 233 260 292 l 194 233 q 169 356 169 296 z "},"ഛ":{"ha":1806,"x_min":14,"x_max":1729,"o":"m 1474 683 q 1363 536 1411 632 q 1314 326 1314 440 q 1357 139 1314 213 q 1476 65 1400 65 q 1597 140 1553 65 q 1640 332 1640 214 q 1592 541 1640 450 q 1474 683 1544 632 m 1622 39 q 1476 -14 1563 -14 q 1331 39 1390 -14 q 1224 329 1224 133 q 1276 561 1224 458 q 1393 714 1329 664 q 1296 729 1351 729 q 1063 628 1161 729 q 965 392 965 528 q 1003 212 965 285 q 1107 75 1042 139 l 1107 0 l 14 0 l 14 76 l 282 76 q 530 165 440 76 q 619 353 619 254 q 572 511 619 453 q 440 569 525 569 q 308 507 356 569 q 260 353 260 444 q 289 233 260 292 l 194 233 q 169 356 169 296 q 244 562 169 476 q 441 647 319 647 q 636 567 563 647 q 710 361 710 486 q 663 197 710 278 q 544 76 615 117 l 997 76 q 905 217 935 150 q 875 392 875 283 q 998 683 875 561 q 1304 806 1121 806 q 1608 669 1488 806 q 1729 333 1729 532 q 1622 39 1729 133 z "},"ജ":{"ha":1104,"x_min":69,"x_max":1014,"o":"m 768 288 q 737 288 768 288 q 661 243 706 288 q 617 135 617 199 q 661 28 617 72 q 770 -17 706 -17 q 879 26 835 -17 q 924 134 924 69 q 877 243 924 199 q 768 288 831 288 m 157 126 q 205 32 157 72 q 319 -8 253 -8 q 565 263 488 -8 l 326 263 q 157 126 157 263 m 556 44 q 463 -51 522 -11 q 306 -92 403 -92 q 140 -27 210 -92 q 69 131 69 38 q 137 281 69 224 q 324 339 204 339 l 590 339 q 822 396 733 339 q 910 558 910 453 q 867 683 910 638 q 748 729 824 729 q 623 676 672 729 q 574 544 574 622 l 574 439 l 490 439 l 490 544 q 441 677 490 625 q 304 729 392 729 q 203 694 243 729 q 163 600 163 660 q 324 483 163 483 q 351 485 339 483 l 351 403 q 318 401 343 401 q 140 451 208 401 q 72 593 72 501 q 136 745 72 685 q 304 806 200 806 q 529 668 471 806 q 749 806 594 806 q 931 736 861 806 q 1000 560 1000 667 q 967 424 1000 483 q 876 336 935 365 q 977 256 940 310 q 1014 117 1014 201 q 942 -31 1014 33 q 781 -94 869 -94 q 637 -53 693 -94 q 556 44 581 -12 z "},"ഝ":{"ha":2275,"x_min":76,"x_max":2199,"o":"m 724 683 q 606 538 656 633 q 557 328 557 442 q 601 140 557 214 q 721 65 644 65 q 840 139 797 65 q 883 326 883 213 q 835 536 883 440 q 724 683 786 632 m 1450 -15 q 1263 70 1325 -15 q 1201 303 1201 156 l 1201 418 q 1132 642 1201 554 q 926 729 1063 729 q 797 707 860 729 q 922 546 874 650 q 969 329 969 442 q 901 76 969 165 q 721 -14 833 -14 q 540 76 608 -14 q 471 329 471 165 q 519 544 471 439 q 636 707 567 650 q 494 729 563 729 q 262 628 357 729 q 167 388 167 528 q 233 159 167 249 q 410 69 299 69 l 410 -14 q 167 95 258 -14 q 76 382 76 204 q 200 683 76 560 q 494 806 324 806 q 714 756 608 806 q 926 806 806 806 q 1172 719 1068 806 q 1254 598 1224 675 q 1285 418 1285 521 l 1285 303 q 1328 128 1285 189 q 1447 68 1371 68 q 1565 127 1524 68 q 1607 303 1607 186 l 1607 806 l 1690 806 l 1690 303 q 1745 130 1690 192 q 1885 68 1800 68 q 2049 153 1989 68 q 2108 396 2108 239 q 2048 638 2108 553 q 1847 722 1988 722 l 1847 806 q 2108 696 2017 806 q 2199 391 2199 586 q 2113 90 2199 196 q 1885 -15 2026 -15 q 1747 20 1813 -15 q 1650 122 1681 56 q 1572 22 1625 58 q 1450 -15 1519 -15 z "},"ഞ":{"ha":2103,"x_min":76,"x_max":2026,"o":"m 1389 683 q 1276 536 1325 632 q 1226 326 1226 440 q 1269 139 1226 213 q 1389 65 1313 65 q 1509 140 1465 65 q 1553 328 1553 214 q 1504 539 1553 443 q 1389 683 1456 635 m 344 418 q 308 418 344 418 q 221 367 271 418 q 171 240 171 317 q 224 113 171 163 q 350 63 278 63 q 468 111 422 63 q 514 239 514 160 q 466 368 514 318 q 344 418 418 418 m 347 497 q 531 425 457 497 q 604 245 604 353 q 534 62 604 138 q 345 -14 464 -14 q 151 85 226 -14 q 76 356 76 185 q 127 571 76 469 q 278 739 178 672 q 505 806 379 806 q 729 740 631 806 q 869 575 828 674 q 1007 745 917 685 q 1194 806 1097 806 q 1396 756 1292 806 q 1608 806 1501 806 q 1903 683 1779 806 q 2026 382 2026 560 q 1935 95 2026 204 q 1693 -14 1844 -14 l 1693 69 q 1870 159 1804 69 q 1936 388 1936 249 q 1841 628 1936 528 q 1608 729 1746 729 q 1474 707 1538 729 q 1591 546 1543 650 q 1639 335 1639 442 q 1570 77 1639 168 q 1389 -14 1501 -14 q 1208 76 1276 -14 q 1140 332 1140 167 q 1188 548 1140 444 q 1314 707 1235 651 q 1201 729 1257 729 q 992 631 1074 729 q 911 406 911 533 l 911 0 l 828 0 l 828 406 q 728 633 828 539 q 503 728 629 728 q 278 635 378 728 q 154 382 178 543 q 233 467 181 436 q 347 497 286 497 z "},"ട":{"ha":744,"x_min":63,"x_max":682,"o":"m 79 118 q 329 65 217 65 q 517 105 442 65 q 592 219 592 144 q 547 311 592 276 q 432 363 510 342 q 357 382 406 369 q 281 403 308 394 q 63 626 63 465 q 149 785 63 722 q 363 847 235 847 q 625 793 490 847 l 625 710 q 378 768 485 768 q 213 732 272 768 q 153 626 153 696 q 236 510 153 550 q 310 481 279 489 q 374 464 340 474 q 442 444 408 454 q 502 426 475 435 q 569 397 529 417 q 631 356 610 378 q 682 219 682 300 q 590 53 682 119 q 324 -14 499 -14 q 79 33 206 -14 l 79 118 z "},"ഠ":{"ha":836,"x_min":63,"x_max":774,"o":"m 415 729 q 352 729 415 729 q 221 635 289 729 q 153 397 153 540 q 224 158 153 254 q 421 61 296 61 q 615 156 546 61 q 683 394 683 251 q 612 633 683 538 q 415 729 540 729 m 419 806 q 505 806 419 806 q 682 692 590 806 q 774 399 774 579 q 681 101 774 218 q 418 -15 588 -15 q 156 101 249 -15 q 63 399 63 218 q 155 692 63 579 q 419 806 247 806 z "},"ഡ":{"ha":1681,"x_min":76,"x_max":1604,"o":"m 832 -14 q 651 75 710 -14 q 593 317 593 164 l 593 468 q 535 663 593 596 q 381 729 476 729 q 226 639 286 729 q 167 375 167 549 q 426 83 167 83 l 426 0 q 258 31 329 0 q 150 117 188 63 q 76 375 76 222 q 159 692 76 579 q 382 806 242 806 q 600 717 522 806 q 678 461 678 629 l 678 317 q 721 124 678 185 q 837 63 764 63 q 956 128 910 63 q 1001 293 1001 193 l 1001 806 l 1085 806 l 1085 293 q 1147 130 1085 197 q 1288 63 1208 63 q 1455 151 1396 63 q 1514 388 1514 239 q 1451 629 1514 536 q 1254 722 1389 722 l 1254 806 q 1404 777 1339 806 q 1506 706 1469 749 q 1567 606 1543 664 q 1604 389 1604 507 q 1519 88 1604 190 q 1288 -14 1433 -14 q 1140 30 1208 -14 q 1043 140 1071 74 q 963 29 1017 72 q 832 -14 908 -14 z "},"ഢ":{"ha":1871,"x_min":76,"x_max":1794,"o":"m 1521 729 q 1485 729 1521 729 q 1401 680 1449 729 q 1354 553 1354 631 q 1403 425 1354 476 q 1526 374 1453 374 q 1650 424 1600 374 q 1700 552 1700 475 q 1647 679 1700 629 q 1521 729 1593 729 m 832 -14 q 652 75 710 -14 q 594 317 594 164 l 593 468 q 535 663 593 596 q 381 729 476 729 q 226 639 286 729 q 167 375 167 549 q 426 83 167 83 l 426 0 q 258 31 329 0 q 150 117 188 63 q 76 375 76 222 q 159 692 76 579 q 382 806 242 806 q 600 717 522 806 q 678 461 678 629 l 678 317 q 721 124 678 185 q 837 63 764 63 q 956 128 910 63 q 1003 293 1003 193 l 1003 806 l 1086 806 l 1086 335 q 1165 143 1086 219 q 1367 67 1243 67 q 1592 158 1490 67 q 1717 410 1693 250 q 1638 325 1690 356 q 1524 294 1585 294 q 1340 367 1414 294 q 1267 547 1267 439 q 1337 730 1267 654 q 1525 806 1407 806 q 1719 713 1643 806 q 1794 468 1794 619 q 1675 124 1794 263 q 1358 -14 1556 -14 q 1177 33 1260 -14 q 1053 167 1094 79 q 832 -14 996 -14 z "},"ണ":{"ha":1918,"x_min":76,"x_max":1842,"o":"m 344 418 q 308 418 344 418 q 221 367 271 418 q 171 240 171 317 q 224 113 171 163 q 350 63 278 63 q 469 112 422 63 q 517 238 517 161 q 467 367 517 315 q 344 418 418 418 m 347 497 q 531 425 457 497 q 604 245 604 353 q 534 62 604 138 q 346 -14 464 -14 q 152 79 228 -14 q 76 324 76 172 q 196 667 76 529 q 513 806 315 806 q 714 756 624 806 q 850 621 804 707 q 937 756 876 707 q 1078 806 997 806 q 1215 754 1160 806 q 1294 621 1269 703 q 1384 753 1318 700 q 1539 806 1450 806 q 1758 697 1675 806 q 1842 389 1842 588 q 1774 135 1842 250 q 1665 37 1738 74 q 1492 0 1592 0 l 1492 83 q 1686 166 1621 83 q 1751 394 1751 249 q 1694 635 1751 540 q 1540 729 1638 729 q 1390 650 1443 729 q 1338 438 1338 571 l 1338 0 l 1254 0 l 1254 438 q 1204 648 1254 567 q 1074 729 1154 729 q 947 654 994 729 q 899 433 899 579 l 899 0 l 815 0 l 815 433 q 726 643 815 561 q 508 725 636 725 q 279 633 381 725 q 154 382 178 542 q 233 467 181 436 q 347 497 286 497 z "},"ത":{"ha":1388,"x_min":76,"x_max":1311,"o":"m 696 683 q 583 536 632 632 q 533 326 533 440 q 576 139 533 213 q 696 65 619 65 q 816 140 772 65 q 860 328 860 214 q 811 539 860 443 q 696 683 763 635 m 396 65 l 396 -14 q 160 92 244 -14 q 76 378 76 199 q 191 682 76 558 q 485 806 306 806 q 690 756 597 806 q 889 806 794 806 q 1190 681 1069 806 q 1311 377 1311 556 q 1227 92 1311 199 q 992 -14 1143 -14 l 992 65 q 1160 147 1099 65 q 1221 378 1221 229 q 1122 628 1221 528 q 889 729 1024 729 q 771 707 825 729 q 901 552 851 650 q 950 335 950 454 q 879 79 950 172 q 696 -14 808 -14 q 513 79 583 -14 q 443 335 443 172 q 491 549 443 451 q 613 707 539 647 q 488 729 557 729 q 260 628 354 729 q 167 378 167 528 q 228 147 167 229 q 396 65 289 65 z "},"ഥ":{"ha":1265,"x_min":125,"x_max":1140,"o":"m 208 76 l 558 76 l 558 449 q 631 712 558 618 q 848 806 703 806 q 1067 712 993 806 q 1140 449 1140 618 l 1140 0 l 125 0 l 125 806 l 208 806 l 208 76 m 1057 449 q 997 665 1057 601 q 846 728 938 728 q 642 449 642 728 l 642 76 l 1057 76 l 1057 449 z "},"ദ":{"ha":967,"x_min":76,"x_max":883,"o":"m 693 414 q 832 352 781 401 q 883 210 883 303 q 807 51 883 117 q 588 -14 731 -14 q 456 -1 518 -14 l 456 82 q 598 65 518 65 q 735 105 678 65 q 793 217 793 144 q 735 328 793 289 q 582 368 678 368 l 525 368 l 525 451 l 554 451 q 694 483 643 451 q 744 583 744 515 q 683 688 744 650 q 511 725 622 725 q 272 626 376 725 q 167 353 167 528 q 285 0 167 179 l 185 0 q 76 360 76 176 q 201 675 76 544 q 511 806 326 806 q 751 744 668 806 q 835 579 835 683 q 693 414 835 439 z "},"ധ":{"ha":1329,"x_min":76,"x_max":1253,"o":"m 421 -14 q 174 90 272 -14 q 76 389 76 194 q 125 606 76 504 q 192 706 151 663 q 301 778 233 750 q 454 806 369 806 l 454 722 q 241 631 315 722 q 167 391 167 539 q 238 153 167 243 q 421 63 310 63 q 565 128 507 63 q 624 293 624 194 l 624 806 l 707 806 l 707 293 q 765 128 707 194 q 908 63 822 63 q 1094 151 1026 63 q 1163 389 1163 239 q 1088 631 1163 539 q 875 722 1014 722 l 875 806 q 1028 778 960 806 q 1137 706 1096 750 q 1206 606 1178 663 q 1253 389 1253 504 q 1159 89 1253 192 q 908 -14 1065 -14 q 756 28 819 -14 q 664 140 693 71 q 421 -14 594 -14 z "},"ന":{"ha":1329,"x_min":76,"x_max":1253,"o":"m 76 403 q 174 701 76 597 q 421 806 272 806 q 664 651 594 806 q 756 763 693 721 q 908 806 819 806 q 1159 703 1065 806 q 1253 403 1253 600 q 1206 186 1253 288 q 1137 85 1178 129 q 1028 14 1096 42 q 875 -14 960 -14 l 875 69 q 1088 161 1014 69 q 1163 403 1163 253 q 1094 641 1163 553 q 908 729 1026 729 q 765 663 822 729 q 707 499 707 597 l 707 -14 l 624 -14 l 624 499 q 565 663 624 597 q 421 729 507 729 q 238 639 310 729 q 167 401 167 549 q 241 161 167 253 q 454 69 315 69 l 454 -14 q 301 14 369 -14 q 192 85 233 42 q 125 186 151 129 q 76 403 76 288 z "},"ഩ":{"ha":1494,"x_min":76,"x_max":1418,"o":"m 344 418 q 308 418 344 418 q 221 367 271 418 q 171 240 171 317 q 224 113 171 163 q 350 63 278 63 q 468 111 422 63 q 514 239 514 160 q 466 368 514 318 q 344 418 418 418 m 347 497 q 531 425 457 497 q 604 245 604 353 q 534 62 604 138 q 345 -14 464 -14 q 151 85 226 -14 q 76 356 76 185 q 127 571 76 469 q 278 739 178 672 q 505 806 379 806 q 717 751 631 806 q 842 607 803 696 q 942 752 869 699 q 1101 806 1014 806 q 1332 697 1246 806 q 1418 389 1418 589 q 1317 89 1418 201 q 1220 25 1281 50 q 1082 0 1160 0 l 1082 83 q 1265 167 1201 83 q 1328 395 1328 250 q 1268 635 1328 540 q 1107 729 1208 729 q 943 650 1006 729 q 883 443 881 571 l 883 0 l 800 0 l 800 443 q 715 651 800 574 q 504 728 631 728 q 278 635 378 728 q 154 382 178 543 q 233 467 181 436 q 347 497 286 497 z "},"പ":{"ha":1272,"x_min":56,"x_max":1144,"o":"m 340 69 l 340 -14 q 131 87 206 -14 q 56 317 56 188 q 143 549 56 447 q 382 651 231 651 q 622 553 533 651 q 710 315 710 454 q 621 71 710 176 q 743 76 658 76 l 1061 76 l 1061 806 l 1144 806 l 1144 0 l 508 0 l 508 72 q 619 315 619 172 q 556 499 619 424 q 382 575 493 575 q 208 497 271 575 q 146 309 146 419 q 206 134 146 199 q 340 69 267 69 z "},"ഫ":{"ha":1629,"x_min":56,"x_max":1504,"o":"m 1006 485 l 1006 76 l 1421 76 l 1421 485 q 1361 663 1421 599 q 1210 726 1301 726 q 1063 663 1119 726 q 1006 485 1006 599 m 340 69 l 340 -14 q 131 87 206 -14 q 56 317 56 188 q 143 549 56 447 q 382 651 231 651 q 622 553 533 651 q 710 315 710 454 q 621 71 710 176 q 743 76 658 76 l 922 76 l 922 485 q 997 722 922 639 q 1211 806 1072 806 q 1427 722 1350 806 q 1504 485 1504 639 l 1504 0 l 508 0 l 508 72 q 619 315 619 172 q 556 499 619 424 q 382 575 493 575 q 208 497 271 575 q 146 309 146 419 q 206 134 146 199 q 340 69 267 69 z "},"ബ":{"ha":1944,"x_min":76,"x_max":1819,"o":"m 344 418 q 308 418 344 418 q 221 367 271 418 q 171 240 171 317 q 224 113 171 163 q 350 63 278 63 q 468 111 422 63 q 514 239 514 160 q 466 368 514 318 q 344 418 418 418 m 1328 400 q 1267 636 1328 543 q 1106 729 1207 729 q 943 650 1006 729 q 883 443 881 571 l 883 0 l 800 0 l 800 443 q 715 651 800 574 q 504 728 631 728 q 278 635 378 728 q 154 382 178 543 q 233 467 181 436 q 347 497 286 497 q 531 425 457 497 q 604 245 604 353 q 534 62 604 138 q 345 -14 464 -14 q 151 85 226 -14 q 76 356 76 185 q 127 571 76 469 q 278 739 178 672 q 510 806 379 806 q 842 593 736 806 q 941 750 869 694 q 1101 806 1013 806 q 1331 699 1244 806 q 1418 403 1418 593 q 1382 221 1418 310 q 1289 76 1346 132 l 1736 76 l 1736 806 l 1819 806 l 1819 0 l 1172 0 l 1172 76 q 1283 210 1239 124 q 1328 400 1328 297 z "},"ഭ":{"ha":928,"x_min":125,"x_max":865,"o":"m 654 469 l 572 472 q 454 390 454 472 q 497 322 454 344 q 643 299 540 299 q 865 147 865 299 q 793 24 865 69 q 598 -21 721 -21 q 385 18 475 -21 l 385 103 q 589 58 493 58 q 775 147 775 58 q 735 206 775 192 q 593 219 696 219 q 427 267 490 219 q 364 387 364 314 q 419 503 364 460 q 550 547 474 547 l 622 544 q 716 565 688 544 q 744 628 744 585 q 690 701 744 672 q 528 729 635 729 q 295 643 382 729 q 208 407 208 557 l 208 0 l 125 0 l 125 407 q 235 699 125 593 q 528 806 344 806 q 755 755 675 806 q 835 632 835 704 q 790 515 835 560 q 654 469 746 469 z "},"മ":{"ha":1036,"x_min":125,"x_max":911,"o":"m 125 0 l 125 396 q 235 697 125 589 q 518 806 344 806 q 801 697 692 806 q 911 396 911 589 l 911 0 l 125 0 m 828 396 q 772 602 828 515 q 613 717 717 689 q 640 529 657 636 q 550 339 629 458 q 321 76 493 253 l 828 76 l 828 396 m 208 396 l 208 78 q 449 332 386 251 q 524 729 635 569 l 518 729 q 290 635 371 729 q 208 396 208 542 z "},"യ":{"ha":1460,"x_min":56,"x_max":1383,"o":"m 517 63 q 669 92 596 63 q 511 367 568 183 q 484 460 500 401 q 459 549 468 518 q 434 619 450 579 q 403 681 418 660 q 308 729 365 729 q 188 656 231 729 q 146 475 146 583 q 253 183 146 303 q 517 63 361 63 m 753 139 q 877 288 832 197 q 922 483 922 379 q 874 658 922 588 q 744 729 825 729 q 612 671 664 729 q 557 519 560 613 q 594 389 588 413 q 753 139 640 226 m 1013 475 q 965 268 1013 371 q 828 94 917 165 q 965 65 892 65 q 1201 176 1110 65 q 1293 428 1293 286 q 1231 646 1293 569 q 1050 722 1168 722 l 1050 806 q 1294 709 1204 806 q 1383 432 1383 613 q 1267 119 1383 251 q 965 -14 1150 -14 q 743 39 838 -14 q 517 -14 640 -14 q 183 128 310 -14 q 56 471 56 271 q 125 710 56 614 q 308 806 194 806 q 430 769 383 806 q 511 653 476 732 q 601 762 536 718 q 739 806 667 806 q 938 710 864 806 q 1013 475 1013 615 z "},"ര":{"ha":1021,"x_min":76,"x_max":938,"o":"m 682 683 q 569 550 617 635 q 522 349 522 465 q 567 149 522 232 q 687 65 611 65 q 806 148 763 65 q 849 349 849 231 q 801 553 849 468 q 682 683 753 638 m 831 42 q 685 -14 772 -14 q 539 43 597 -14 q 432 360 432 146 q 485 572 432 475 q 601 714 538 669 q 503 729 557 729 q 265 626 364 729 q 167 351 167 524 q 285 0 167 179 l 185 0 q 76 358 76 176 q 195 673 76 540 q 501 806 314 806 q 813 676 688 806 q 938 345 938 547 q 831 42 938 143 z "},"റ":{"ha":867,"x_min":76,"x_max":790,"o":"m 349 0 q 144 114 213 0 q 76 406 76 228 q 173 694 76 583 q 433 806 269 806 q 694 696 597 806 q 790 408 790 586 q 722 115 790 229 q 517 0 653 0 l 517 83 q 651 168 601 83 q 700 404 700 253 q 627 641 700 556 q 431 726 554 726 q 238 640 308 726 q 167 403 167 554 q 215 167 167 251 q 349 83 264 83 l 349 0 z "},"ല":{"ha":1210,"x_min":125,"x_max":1085,"o":"m 208 500 l 208 428 l 624 428 l 624 499 q 567 668 624 607 q 415 729 510 729 q 265 669 321 729 q 208 500 208 608 m 125 472 q 197 717 125 628 q 415 806 268 806 q 635 716 563 806 q 707 472 707 626 l 707 351 l 208 351 l 208 76 l 1001 76 l 1001 806 l 1085 806 l 1085 0 l 125 0 l 125 472 z "},"ള":{"ha":1015,"x_min":63,"x_max":939,"o":"m 290 547 q 257 547 290 547 q 185 505 224 547 q 146 398 146 463 q 188 292 146 333 q 292 251 231 251 q 395 294 354 251 q 436 399 436 336 q 396 504 436 461 q 290 547 356 547 m 668 10 l 285 11 q 169 -68 169 11 q 208 -128 169 -110 q 301 -147 247 -147 l 911 -147 l 911 -224 l 263 -224 q 133 -185 188 -224 q 79 -72 79 -147 q 133 46 79 4 q 279 88 188 88 l 635 88 q 850 221 850 88 q 682 354 850 354 l 636 354 l 636 446 l 682 446 q 774 481 744 446 q 804 565 804 515 q 526 733 804 733 q 319 690 404 733 q 190 579 233 647 q 323 624 244 624 q 463 559 401 624 q 524 399 524 494 q 456 240 524 303 q 290 178 389 178 q 126 242 190 178 q 63 419 63 307 q 192 694 63 582 q 524 806 322 806 q 792 742 690 806 q 894 565 894 678 q 772 401 894 433 q 897 344 856 393 q 939 221 939 296 q 668 10 939 10 z "},"ഴ":{"ha":904,"x_min":63,"x_max":835,"o":"m 368 71 q 519 206 519 71 q 517 231 519 214 q 465 228 483 228 q 172 317 282 228 q 63 567 63 406 q 122 792 63 656 l 213 792 q 153 567 153 656 q 240 374 153 438 q 465 310 326 310 l 475 310 q 452 341 471 317 q 425 376 433 365 q 402 413 417 388 q 381 458 388 439 q 363 571 363 511 q 429 735 363 665 q 599 806 496 806 q 769 731 703 806 q 835 543 835 657 q 773 353 835 429 q 604 246 711 276 q 610 206 610 229 q 542 46 610 106 q 371 -14 475 -14 q 183 14 267 -14 l 183 101 q 368 71 293 71 m 599 729 q 564 729 599 729 q 490 682 528 729 q 453 581 453 635 q 467 485 453 526 q 492 425 481 443 q 567 319 503 406 q 744 543 744 357 q 708 674 744 618 q 599 729 671 729 z "},"വ":{"ha":1351,"x_min":69,"x_max":1226,"o":"m 396 0 q 244 37 310 0 q 142 133 178 74 q 69 386 69 250 q 168 685 69 564 q 447 806 267 806 q 724 689 626 806 q 822 386 822 572 q 699 76 822 200 l 1143 76 l 1143 806 l 1226 806 l 1226 0 l 594 0 l 594 76 q 733 386 733 208 q 656 633 733 536 q 445 729 578 729 q 236 629 313 729 q 160 384 160 529 q 234 161 160 239 q 396 83 308 83 l 396 0 z "},"ശ":{"ha":1418,"x_min":76,"x_max":1335,"o":"m 1085 683 q 972 536 1021 632 q 922 326 922 440 q 965 139 922 213 q 1085 65 1008 65 q 1205 140 1161 65 q 1249 328 1249 214 q 1200 539 1249 443 q 1085 683 1151 635 m 676 331 q 599 74 676 163 q 383 -14 522 -14 q 160 98 243 -14 q 76 399 76 210 q 164 697 76 588 q 426 806 251 806 l 426 722 q 167 396 167 722 q 231 151 167 239 q 385 63 294 63 q 535 129 476 63 q 593 324 593 196 l 593 461 q 685 709 593 613 q 911 806 776 806 q 1209 664 1083 806 q 1335 347 1335 522 q 1266 78 1335 171 q 1085 -14 1197 -14 q 904 78 972 -14 q 836 342 836 171 q 885 551 836 446 q 1013 713 935 657 q 911 729 971 729 q 748 663 819 729 q 676 461 676 597 l 676 331 z "},"ഷ":{"ha":1842,"x_min":56,"x_max":1717,"o":"m 1269 76 l 1633 76 l 1633 358 q 1644 522 1633 457 q 1486 369 1592 431 q 1269 290 1381 307 l 1269 76 m 1054 729 q 945 678 986 729 q 904 560 904 626 q 935 453 904 493 q 1014 396 967 414 q 1186 368 1103 361 l 1186 549 q 1054 729 1186 729 m 340 69 l 340 -14 q 131 87 206 -14 q 56 317 56 188 q 143 549 56 447 q 382 651 231 651 q 622 553 533 651 q 710 318 710 454 q 617 69 710 182 q 743 75 654 75 l 1186 76 l 1186 285 l 1183 285 q 915 356 1010 285 q 819 544 819 426 q 883 734 819 663 q 1054 806 947 806 q 1215 738 1161 806 q 1269 549 1269 671 l 1269 375 q 1485 466 1383 390 q 1633 654 1588 542 l 1717 654 l 1717 0 l 508 0 l 508 72 q 619 315 619 172 q 556 499 619 424 q 382 575 493 575 q 208 497 271 575 q 146 309 146 419 q 206 134 146 199 q 340 69 267 69 z "},"സ":{"ha":1667,"x_min":76,"x_max":1590,"o":"m 1590 396 q 1510 98 1590 210 q 1292 -14 1429 -14 q 1079 78 1154 -14 q 1004 331 1004 169 l 1004 461 q 963 660 1004 590 q 847 729 922 729 q 724 664 771 729 q 678 499 678 599 l 678 0 l 594 0 l 594 499 q 535 663 594 596 q 393 729 476 729 q 226 635 286 729 q 167 395 167 540 q 230 167 167 250 q 413 83 293 83 l 413 0 q 274 25 335 0 q 178 90 214 50 q 118 182 142 129 q 76 389 76 275 q 163 697 76 589 q 393 806 249 806 q 542 763 476 806 q 638 651 608 719 q 718 763 664 719 q 849 806 772 806 q 1031 711 974 806 q 1088 461 1088 617 l 1088 324 q 1142 132 1088 201 q 1286 63 1196 63 q 1500 396 1500 63 q 1438 646 1500 569 q 1240 722 1375 722 l 1240 806 q 1391 779 1326 806 q 1492 713 1456 753 q 1553 615 1529 672 q 1590 396 1590 521 z "},"ഹ":{"ha":1657,"x_min":56,"x_max":1581,"o":"m 340 69 l 340 -14 q 131 87 206 -14 q 56 317 56 188 q 143 549 56 447 q 382 651 231 651 q 622 553 533 651 q 710 319 710 454 q 621 78 710 183 q 743 83 658 83 l 871 83 q 979 76 950 83 q 854 387 854 201 q 953 689 854 572 q 1218 806 1053 806 q 1482 691 1383 806 q 1581 398 1581 576 q 1501 103 1581 219 q 1281 -14 1422 -14 l 1281 69 q 1428 156 1367 72 q 1490 388 1490 240 q 1415 633 1490 536 q 1218 729 1340 729 q 1020 633 1096 729 q 944 386 944 536 q 1083 76 944 208 l 1083 0 l 508 0 l 508 78 q 619 315 619 178 q 556 499 619 424 q 382 575 493 575 q 208 497 271 575 q 146 309 146 419 q 206 134 146 199 q 340 69 267 69 z "},"ഺ":{"ha":799,"x_min":125,"x_max":826,"o":"m 125 0 l 125 806 l 208 806 l 208 76 l 826 76 l 826 0 l 614 0 l 614 -278 l 531 -278 l 531 0 l 125 0 z "},"ഽ":{"ha":568,"x_min":139,"x_max":526,"o":"m 378 -132 q 326 -328 378 -261 q 179 -394 275 -394 q 139 -393 151 -394 l 139 -310 q 179 -311 151 -311 q 265 -268 242 -311 q 288 -132 288 -225 l 288 849 q 339 1044 288 978 q 486 1111 390 1111 q 526 1110 514 1111 l 526 1026 q 486 1028 514 1028 q 401 985 424 1028 q 378 849 378 942 l 378 -132 z "},"ാ":{"ha":654,"x_min":42,"x_max":585,"o":"m 484 695 q 534 640 484 695 q 585 396 585 585 q 484 97 585 207 q 225 -14 383 -14 q 42 25 129 -14 l 42 108 q 225 63 144 63 q 417 153 339 63 q 494 398 494 244 q 417 640 494 551 q 225 729 340 729 q 42 683 144 729 l 42 767 q 225 806 129 806 q 484 695 383 806 z "},"ി":{"ha":361,"x_min":-211,"x_max":236,"o":"m 236 0 l 153 0 l 153 988 q 114 1097 153 1058 q 12 1136 75 1136 q -90 1098 -51 1136 q -128 988 -128 1060 l -128 964 l -211 964 l -211 989 q -149 1156 -211 1097 q 13 1214 -87 1214 q 174 1156 113 1214 q 236 989 236 1097 l 236 0 z "},"ീ":{"ha":361,"x_min":-349,"x_max":236,"o":"m -157 1147 q -182 1147 -157 1147 q -237 1115 -207 1147 q -267 1036 -267 1083 q -236 957 -267 989 q -158 925 -206 925 q -78 957 -110 925 q -46 1036 -46 989 q -76 1115 -46 1083 q -157 1147 -107 1147 m 236 0 l 153 0 l 153 853 q -26 1161 153 1129 q 36 1037 36 1115 q -21 906 36 958 q -160 853 -78 853 q -296 905 -243 853 q -349 1041 -349 957 q -278 1185 -349 1125 q -93 1244 -207 1244 q 146 1148 56 1244 q 236 881 236 1051 l 236 0 z "},"ു":{"ha":446,"x_min":-28,"x_max":397,"o":"m 183 -92 q 152 -92 183 -92 q 87 -139 121 -92 q 53 -258 53 -186 q 88 -377 53 -329 q 187 -425 124 -425 q 284 -378 250 -425 q 318 -259 318 -331 q 282 -140 318 -187 q 183 -92 246 -92 m 242 -21 q 356 -103 315 -39 q 397 -265 397 -167 q 340 -433 397 -362 q 185 -503 283 -503 q 30 -433 88 -503 q -28 -261 -28 -362 q 20 -94 -28 -160 q 153 -17 68 -28 l 203 161 q 272 515 272 407 q 74 729 272 729 q 15 722 50 729 l 15 801 q 74 806 47 806 q 284 735 206 806 q 363 525 363 665 q 358 455 363 481 q 352 415 354 429 q 344 374 350 400 q 336 335 339 347 q 325 292 333 324 q 315 252 317 261 q 303 206 313 243 l 242 -21 z "},"ൂ":{"ha":446,"x_min":-28,"x_max":397,"o":"m 54 -300 q 98 -392 64 -357 q 186 -428 132 -428 q 274 -393 240 -428 q 318 -300 308 -358 l 54 -300 m 318 -222 q 274 -126 310 -164 q 183 -89 239 -89 q 94 -126 128 -89 q 53 -222 61 -162 l 318 -222 m 242 -21 q 356 -103 315 -39 q 397 -265 397 -167 q 340 -433 397 -362 q 185 -503 283 -503 q 30 -433 88 -503 q -28 -261 -28 -362 q 20 -94 -28 -160 q 153 -17 68 -28 l 203 161 q 272 515 272 407 q 74 729 272 729 q 15 722 50 729 l 15 801 q 74 806 47 806 q 284 735 206 806 q 363 525 363 665 q 358 455 363 481 q 352 415 354 429 q 344 374 350 400 q 336 335 339 347 q 325 292 333 324 q 315 252 317 261 q 303 206 313 243 l 242 -21 z "},"ൃ":{"ha":399,"x_min":-139,"x_max":413,"o":"m 47 -207 q 27 -207 47 -207 q -22 -237 7 -207 q -50 -306 -50 -267 q -22 -374 -50 -346 q 47 -403 6 -403 q 117 -374 89 -403 q 144 -306 144 -346 q 116 -237 144 -267 q 47 -207 88 -207 m 413 -146 q 320 -406 413 -311 q 112 -501 228 -501 q -72 -447 -4 -501 q -139 -310 -139 -393 q -81 -174 -139 -226 q 52 -121 -24 -121 q 181 -172 128 -121 q 233 -297 233 -222 q 171 -422 233 -372 q 282 -328 242 -403 q 322 -165 322 -253 q 290 6 322 -76 q 219 156 258 88 q 149 331 181 224 q 117 558 117 438 q 158 806 117 678 l 246 806 q 207 571 207 679 q 228 381 207 463 q 279 237 249 300 q 340 114 310 174 q 413 -146 413 -28 z "},"ൄ":{"ha":399,"x_min":-232,"x_max":413,"o":"m -124 -361 q -132 -320 -132 -344 q -112 -278 -132 -296 q -58 -261 -92 -261 q 1 -287 -25 -261 q 61 -261 28 -261 q 115 -278 94 -261 q 135 -320 135 -296 q 126 -361 135 -344 l 85 -361 q 94 -325 94 -344 q 64 -294 94 -294 q 31 -307 43 -294 q 19 -337 19 -319 l 19 -361 l -18 -361 l -18 -337 q -30 -307 -18 -319 q -61 -294 -42 -294 q -92 -325 -92 -294 q -82 -361 -92 -344 l -124 -361 m 6 -204 q -33 -204 6 -204 q -117 -235 -72 -204 q -162 -316 -162 -265 q -117 -399 -162 -367 q 7 -432 -71 -432 q 126 -401 85 -432 q 167 -318 167 -369 q 126 -235 167 -267 q 6 -204 85 -204 m 413 -144 q 304 -405 413 -310 q 55 -500 196 -500 q -159 -451 -86 -500 q -232 -322 -232 -403 q -166 -191 -232 -240 q 6 -142 -100 -142 q 176 -190 113 -142 q 239 -308 239 -239 q 221 -385 239 -353 q 292 -290 261 -353 q 322 -158 322 -228 q 301 -25 322 -87 q 250 97 281 38 q 189 219 219 156 q 117 550 117 372 q 158 806 117 678 l 246 806 q 207 562 207 679 q 239 343 207 444 q 310 175 271 242 q 381 22 349 108 q 413 -144 413 -65 z "},"െ":{"ha":992,"x_min":69,"x_max":922,"o":"m 69 368 q 69 455 69 368 q 190 674 69 542 q 495 806 310 806 q 801 681 681 806 q 922 388 922 557 q 896 190 922 274 q 815 0 869 106 l 715 0 q 806 195 778 111 q 835 388 835 279 q 730 636 835 544 q 498 728 625 728 q 273 639 371 728 q 151 382 175 550 q 237 466 178 435 q 358 497 296 497 q 542 425 468 497 q 615 245 615 353 q 545 62 615 138 q 356 -14 475 -14 q 153 90 238 -14 q 69 368 69 194 m 358 418 q 322 418 358 418 q 235 367 285 418 q 185 240 185 317 q 238 113 185 163 q 364 63 292 63 q 482 111 436 63 q 528 239 528 160 q 480 368 528 318 q 358 418 432 418 z "},"േ":{"ha":849,"x_min":49,"x_max":786,"o":"m 596 715 q 574 715 596 715 q 523 685 551 715 q 494 609 494 654 q 523 533 494 564 q 596 503 551 503 q 670 533 640 503 q 700 608 700 564 q 670 684 700 653 q 596 715 640 715 m 596 289 q 574 289 596 289 q 523 258 551 289 q 494 183 494 228 q 523 107 494 138 q 596 76 551 76 q 670 108 640 76 q 700 183 700 139 q 670 258 700 228 q 596 289 640 289 m 601 364 q 645 364 601 364 q 738 310 690 364 q 786 176 786 256 q 708 41 786 96 q 493 -14 631 -14 q 174 105 299 -14 q 49 396 49 224 q 174 687 49 568 q 493 806 299 806 q 708 751 631 806 q 786 616 786 696 q 738 482 786 536 q 601 428 690 428 q 459 480 511 428 q 407 601 407 532 q 428 676 407 640 q 476 729 449 713 q 235 631 332 718 q 139 396 139 543 q 235 161 139 249 q 476 63 332 74 q 428 115 449 79 q 407 190 407 151 q 459 312 407 260 q 601 364 511 364 z "},"ൈ":{"ha":1936,"x_min":69,"x_max":1867,"o":"m 1014 368 q 1014 455 1014 368 q 1134 674 1014 542 q 1440 806 1254 806 q 1746 681 1625 806 q 1867 388 1867 557 q 1840 190 1867 274 q 1760 0 1814 106 l 1660 0 q 1751 195 1722 111 q 1779 388 1779 279 q 1674 636 1779 544 q 1442 728 1569 728 q 1217 639 1315 728 q 1096 382 1119 550 q 1181 466 1122 435 q 1303 497 1240 497 q 1486 425 1413 497 q 1560 245 1560 353 q 1490 62 1560 138 q 1301 -14 1419 -14 q 1098 90 1182 -14 q 1014 368 1014 194 m 1303 418 q 1266 418 1303 418 q 1179 367 1229 418 q 1129 240 1129 317 q 1183 113 1129 163 q 1308 63 1236 63 q 1426 111 1381 63 q 1472 239 1472 160 q 1424 368 1472 318 q 1303 418 1376 418 m 69 368 q 69 455 69 368 q 190 674 69 542 q 495 806 310 806 q 801 681 681 806 q 922 388 922 557 q 896 190 922 274 q 815 0 869 106 l 715 0 q 806 195 778 111 q 835 388 835 279 q 730 636 835 544 q 498 728 625 728 q 273 639 371 728 q 151 382 175 550 q 237 466 178 435 q 358 497 296 497 q 542 425 468 497 q 615 245 615 353 q 545 62 615 138 q 356 -14 475 -14 q 153 90 238 -14 q 69 368 69 194 m 358 418 q 322 418 358 418 q 235 367 285 418 q 185 240 185 317 q 238 113 185 163 q 364 63 292 63 q 482 111 436 63 q 528 239 528 160 q 480 368 528 318 q 358 418 432 418 z "},"ൊ":{"ha":2515,"x_min":69,"x_max":2446,"o":"m 2345 695 q 2395 640 2345 695 q 2446 396 2446 585 q 2345 97 2446 207 q 2086 -14 2244 -14 q 1903 25 1990 -14 l 1903 108 q 2086 63 2006 63 q 2278 153 2200 63 q 2356 398 2356 244 q 2278 640 2356 551 q 2086 729 2201 729 q 1903 683 2006 729 l 1903 767 q 2086 806 1990 806 q 2345 695 2244 806 m 1747 676 q 1754 669 1747 676 q 1761 643 1761 663 q 1747 610 1761 624 q 1713 596 1733 596 q 1679 610 1693 596 q 1665 643 1665 624 q 1679 676 1665 663 q 1713 690 1693 690 q 1747 676 1733 690 m 1617 771 q 1624 764 1617 771 q 1631 738 1631 757 q 1617 704 1631 718 q 1583 690 1603 690 q 1549 704 1563 690 q 1535 738 1535 718 q 1549 771 1535 757 q 1583 785 1563 785 q 1617 771 1603 785 m 1817 511 q 1824 504 1817 511 q 1831 478 1831 497 q 1817 444 1831 458 q 1783 431 1803 431 q 1749 444 1763 431 q 1735 478 1735 458 q 1749 511 1735 497 q 1783 525 1763 525 q 1817 511 1803 525 m 1440 790 q 1447 783 1440 790 q 1454 757 1454 776 q 1440 724 1454 738 q 1406 710 1426 710 q 1372 724 1386 710 q 1358 757 1358 738 q 1372 790 1358 776 q 1406 804 1386 804 q 1440 790 1426 804 m 1803 325 q 1810 318 1803 325 q 1817 292 1817 311 q 1803 258 1817 272 q 1769 244 1789 244 q 1735 258 1749 244 q 1721 292 1721 272 q 1735 325 1721 311 q 1769 339 1749 339 q 1803 325 1789 339 m 1276 731 q 1283 724 1276 731 q 1290 697 1290 717 q 1276 664 1290 678 q 1242 650 1263 650 q 1208 664 1222 650 q 1194 697 1194 678 q 1208 731 1194 717 q 1242 744 1222 744 q 1276 731 1263 744 m 1703 189 q 1710 182 1703 189 q 1717 156 1717 175 q 1703 122 1717 136 q 1669 108 1689 108 q 1635 122 1649 108 q 1621 156 1621 136 q 1635 189 1621 175 q 1669 203 1649 203 q 1703 189 1689 203 m 1165 578 q 1172 571 1165 578 q 1179 544 1179 564 q 1165 511 1179 525 q 1131 497 1151 497 q 1097 511 1111 497 q 1083 544 1083 525 q 1097 578 1083 564 q 1131 592 1111 592 q 1165 578 1151 592 m 1535 115 q 1542 108 1535 115 q 1549 82 1549 101 q 1535 49 1549 63 q 1501 35 1521 35 q 1467 49 1481 35 q 1453 82 1453 63 q 1467 115 1453 101 q 1501 129 1481 129 q 1535 115 1521 129 m 1146 404 q 1153 397 1146 404 q 1160 371 1160 390 q 1146 338 1160 351 q 1112 324 1132 324 q 1078 338 1092 324 q 1064 371 1064 351 q 1078 404 1064 390 q 1112 418 1092 418 q 1146 404 1132 418 m 1358 136 q 1365 129 1358 136 q 1372 103 1372 122 q 1358 69 1372 83 q 1324 56 1344 56 q 1290 69 1304 56 q 1276 103 1276 83 q 1290 136 1276 122 q 1324 150 1304 150 q 1358 136 1344 150 m 1217 242 q 1224 235 1217 242 q 1231 208 1231 228 q 1217 175 1231 189 q 1183 161 1203 161 q 1149 175 1163 161 q 1135 208 1135 189 q 1149 242 1135 228 q 1183 256 1163 256 q 1217 242 1203 256 m 358 418 q 322 418 358 418 q 235 367 285 418 q 185 240 185 317 q 238 113 185 163 q 364 63 292 63 q 482 111 436 63 q 528 239 528 160 q 480 368 528 318 q 358 418 432 418 m 358 497 q 542 425 468 497 q 615 245 615 353 q 545 62 615 138 q 356 -14 475 -14 q 153 90 238 -14 q 69 368 69 194 q 190 674 69 542 q 495 806 310 806 q 801 681 681 806 q 922 388 922 557 q 896 190 922 274 q 815 0 869 106 l 715 0 q 806 195 778 111 q 835 388 835 279 q 730 636 835 544 q 498 728 625 728 q 273 639 371 728 q 151 382 175 550 q 237 466 178 435 q 358 497 296 497 z "},"ോ":{"ha":2356,"x_min":49,"x_max":2286,"o":"m 2185 695 q 2236 640 2185 695 q 2286 396 2286 585 q 2185 97 2286 207 q 1926 -14 2085 -14 q 1743 25 1831 -14 l 1743 108 q 1926 63 1846 63 q 2118 153 2040 63 q 2196 398 2196 244 q 2119 640 2196 551 q 1926 729 2042 729 q 1743 683 1846 729 l 1743 767 q 1926 806 1831 806 q 2185 695 2085 806 m 1596 676 q 1603 669 1596 676 q 1610 643 1610 663 q 1596 610 1610 624 q 1562 596 1582 596 q 1528 610 1542 596 q 1514 643 1514 624 q 1528 676 1514 663 q 1562 690 1542 690 q 1596 676 1582 690 m 1465 771 q 1472 764 1465 771 q 1479 738 1479 757 q 1465 704 1479 718 q 1431 690 1451 690 q 1397 704 1411 690 q 1383 738 1383 718 q 1397 771 1383 757 q 1431 785 1411 785 q 1465 771 1451 785 m 1665 511 q 1672 504 1665 511 q 1679 478 1679 497 q 1665 444 1679 458 q 1631 431 1651 431 q 1597 444 1611 431 q 1583 478 1583 458 q 1597 511 1583 497 q 1631 525 1611 525 q 1665 511 1651 525 m 1289 790 q 1296 783 1289 790 q 1303 757 1303 776 q 1289 724 1303 738 q 1255 710 1275 710 q 1221 724 1235 710 q 1207 757 1207 738 q 1221 790 1207 776 q 1255 804 1235 804 q 1289 790 1275 804 m 1651 325 q 1658 318 1651 325 q 1665 292 1665 311 q 1651 258 1665 272 q 1617 244 1638 244 q 1583 258 1597 244 q 1569 292 1569 272 q 1583 325 1569 311 q 1617 339 1597 339 q 1651 325 1638 339 m 1125 731 q 1132 724 1125 731 q 1139 697 1139 717 q 1125 664 1139 678 q 1091 650 1111 650 q 1057 664 1071 650 q 1043 697 1043 678 q 1057 731 1043 717 q 1091 744 1071 744 q 1125 731 1111 744 m 1551 189 q 1558 182 1551 189 q 1565 156 1565 175 q 1551 122 1565 136 q 1517 108 1538 108 q 1483 122 1497 108 q 1469 156 1469 136 q 1483 189 1469 175 q 1517 203 1497 203 q 1551 189 1538 203 m 1014 578 q 1021 571 1014 578 q 1028 544 1028 564 q 1014 511 1028 525 q 980 497 1000 497 q 946 511 960 497 q 932 544 932 525 q 946 578 932 564 q 980 592 960 592 q 1014 578 1000 592 m 1383 115 q 1390 108 1383 115 q 1397 82 1397 101 q 1383 49 1397 63 q 1349 35 1369 35 q 1315 49 1329 35 q 1301 82 1301 63 q 1315 115 1301 101 q 1349 129 1329 129 q 1383 115 1369 129 m 994 404 q 1001 397 994 404 q 1008 371 1008 390 q 994 338 1008 351 q 960 324 981 324 q 926 338 940 324 q 913 371 913 351 q 926 404 913 390 q 960 418 940 418 q 994 404 981 418 m 1207 136 q 1214 129 1207 136 q 1221 103 1221 122 q 1207 69 1221 83 q 1173 56 1193 56 q 1139 69 1153 56 q 1125 103 1125 83 q 1139 136 1125 122 q 1173 150 1153 150 q 1207 136 1193 150 m 1065 242 q 1072 235 1065 242 q 1079 208 1079 228 q 1065 175 1079 189 q 1031 161 1051 161 q 997 175 1011 161 q 983 208 983 189 q 997 242 983 228 q 1031 256 1011 256 q 1065 242 1051 256 m 596 715 q 574 715 596 715 q 523 685 551 715 q 494 609 494 654 q 523 533 494 564 q 596 503 551 503 q 670 533 640 503 q 700 608 700 564 q 670 684 700 653 q 596 715 640 715 m 596 289 q 574 289 596 289 q 523 258 551 289 q 494 183 494 228 q 523 107 494 138 q 596 76 551 76 q 670 108 640 76 q 700 183 700 139 q 670 258 700 228 q 596 289 640 289 m 601 364 q 645 364 601 364 q 738 310 690 364 q 786 176 786 256 q 708 41 786 96 q 493 -14 631 -14 q 174 105 299 -14 q 49 396 49 224 q 174 687 49 568 q 493 806 299 806 q 708 751 631 806 q 786 616 786 696 q 738 482 786 536 q 601 428 690 428 q 459 480 511 428 q 407 601 407 532 q 428 676 407 640 q 476 729 449 713 q 235 631 332 718 q 139 396 139 543 q 235 161 139 249 q 476 63 332 74 q 428 115 449 79 q 407 190 407 151 q 459 312 407 260 q 601 364 511 364 z "},"ൌ":{"ha":1985,"x_min":69,"x_max":1908,"o":"m 753 672 q 760 665 753 672 q 767 639 767 658 q 753 606 767 619 q 719 592 739 592 q 685 606 699 592 q 671 639 671 619 q 685 672 671 658 q 719 686 699 686 q 753 672 739 686 m 622 767 q 629 760 622 767 q 636 733 636 753 q 622 700 636 714 q 588 686 608 686 q 554 700 568 686 q 540 733 540 714 q 554 767 540 753 q 588 781 568 781 q 622 767 608 781 m 822 507 q 829 500 822 507 q 836 474 836 493 q 822 440 836 454 q 788 426 808 426 q 754 440 768 426 q 740 474 740 454 q 754 507 740 493 q 788 521 768 521 q 822 507 808 521 m 446 786 q 453 779 446 786 q 460 753 460 772 q 446 719 460 733 q 412 706 432 706 q 378 719 392 706 q 364 753 364 733 q 378 786 364 772 q 412 800 392 800 q 446 786 432 800 m 808 321 q 815 314 808 321 q 822 288 822 307 q 808 254 822 268 q 774 240 794 240 q 740 254 754 240 q 726 288 726 268 q 740 321 726 307 q 774 335 754 335 q 808 321 794 335 m 282 726 q 289 719 282 726 q 296 693 296 713 q 282 660 296 674 q 248 646 268 646 q 214 660 228 646 q 200 693 200 674 q 214 726 200 713 q 248 740 228 740 q 282 726 268 740 m 708 185 q 715 178 708 185 q 722 151 722 171 q 708 118 722 132 q 674 104 694 104 q 640 118 654 104 q 626 151 626 132 q 640 185 626 171 q 674 199 654 199 q 708 185 694 199 m 171 574 q 178 567 171 574 q 185 540 185 560 q 171 507 185 521 q 137 493 157 493 q 103 507 117 493 q 89 540 89 521 q 103 574 89 560 q 137 588 117 588 q 171 574 157 588 m 540 111 q 547 104 540 111 q 554 78 554 97 q 540 44 554 58 q 506 31 526 31 q 472 44 486 31 q 458 78 458 58 q 472 111 458 97 q 506 125 486 125 q 540 111 526 125 m 151 400 q 158 393 151 400 q 165 367 165 386 q 151 333 165 347 q 117 319 138 319 q 83 333 97 319 q 69 367 69 347 q 83 400 69 386 q 117 414 97 414 q 151 400 138 414 m 364 132 q 371 125 364 132 q 378 99 378 118 q 364 65 378 79 q 330 51 350 51 q 296 65 310 51 q 282 99 282 79 q 296 132 282 118 q 330 146 310 146 q 364 132 350 146 m 222 238 q 229 231 222 238 q 236 204 236 224 q 222 171 236 185 q 188 157 208 157 q 154 171 168 157 q 140 204 140 185 q 154 238 140 224 q 188 251 168 251 q 222 238 208 251 m 1908 454 q 1804 148 1908 268 q 1532 28 1700 28 q 1394 51 1458 28 l 1394 132 q 1531 110 1472 110 q 1740 210 1661 110 q 1818 450 1818 310 q 1765 658 1818 590 q 1633 726 1711 726 q 1506 671 1554 726 q 1457 536 1457 615 l 1457 464 l 1368 464 l 1368 536 q 1315 676 1368 625 q 1192 726 1261 726 q 1074 674 1124 726 q 1024 525 1024 621 q 1057 385 1024 467 l 967 385 q 936 524 936 446 q 1011 728 936 650 q 1194 806 1086 806 q 1324 769 1268 806 q 1411 674 1381 732 q 1612 806 1475 806 q 1828 708 1749 806 q 1908 454 1908 610 z "},"്":{"ha":0,"x_min":-442,"x_max":107,"o":"m 107 1167 q 31 966 107 1039 q -168 893 -46 893 q -366 966 -290 893 q -442 1167 -442 1039 l -358 1167 q -307 1027 -358 1082 q -168 972 -256 972 q -29 1027 -81 972 q 22 1167 22 1082 l 107 1167 z "},"ൎ":{"ha":0,"x_min":-246,"x_max":-92,"o":"m -168 1158 q -151 1158 -168 1158 q -112 1138 -133 1158 q -92 1081 -92 1117 q -112 1025 -92 1046 q -167 1004 -132 1004 q -224 1026 -203 1004 q -246 1082 -246 1047 q -224 1138 -246 1117 q -168 1158 -203 1158 z "},"ൗ":{"ha":1090,"x_min":42,"x_max":1014,"o":"m 1014 454 q 910 148 1014 268 q 638 28 806 28 q 500 51 564 28 l 500 132 q 636 110 578 110 q 845 210 767 110 q 924 450 924 310 q 870 658 924 590 q 738 726 817 726 q 611 671 660 726 q 563 536 563 615 l 563 464 l 474 464 l 474 536 q 420 676 474 625 q 298 726 367 726 q 179 674 229 726 q 129 525 129 621 q 163 385 129 467 l 72 385 q 42 524 42 446 q 117 728 42 650 q 300 806 192 806 q 430 769 374 806 q 517 674 486 732 q 717 806 581 806 q 934 708 854 806 q 1014 454 1014 610 z "},"ൠ":{"ha":1208,"x_min":63,"x_max":1146,"o":"m 916 729 q 886 729 916 729 q 816 688 856 729 q 776 588 776 647 q 816 488 776 529 q 916 447 856 447 q 1014 488 976 447 q 1051 588 1051 529 q 1014 688 1051 647 q 916 729 976 729 m 292 729 q 262 729 292 729 q 194 688 232 729 q 157 588 157 647 q 194 488 157 529 q 292 447 232 447 q 392 488 353 447 q 432 588 432 529 q 392 688 432 647 q 292 729 353 729 m 382 -110 q 367 -35 367 -79 q 401 40 367 8 q 497 71 436 71 q 604 21 558 71 q 711 71 650 71 q 807 40 772 71 q 842 -35 842 8 q 826 -110 842 -79 l 764 -110 q 782 -46 782 -76 q 764 3 782 -15 q 714 21 746 21 q 657 -3 682 21 q 632 -67 632 -26 l 632 -110 l 576 -110 l 576 -67 q 551 -3 576 -26 q 494 21 526 21 q 444 3 463 21 q 426 -46 426 -15 q 444 -110 426 -76 l 382 -110 m 604 135 q 497 135 604 135 q 284 96 390 135 q 178 -28 178 57 q 292 -158 178 -114 q 604 -203 406 -203 q 917 -158 803 -203 q 1031 -28 1031 -114 q 924 96 1031 57 q 604 135 818 135 m 1118 -36 q 1074 -151 1118 -103 q 955 -227 1031 -200 q 792 -267 879 -254 q 604 -279 706 -279 q 416 -267 503 -279 q 253 -227 329 -254 q 134 -151 178 -200 q 90 -36 90 -103 q 321 179 90 135 q 138 316 214 225 q 63 530 63 407 q 128 729 63 653 q 293 806 194 806 q 457 741 392 806 q 522 583 522 676 q 458 431 522 490 q 313 371 394 371 q 179 410 232 371 q 361 247 240 288 q 604 211 464 211 q 953 308 844 211 q 1029 410 999 349 q 895 371 976 371 q 750 431 814 371 q 686 583 686 490 q 751 741 686 676 q 915 806 817 806 q 1080 729 1014 806 q 1146 530 1146 653 q 1070 316 1146 407 q 888 179 994 225 q 1118 -36 1118 135 z "},"ൡ":{"ha":1801,"x_min":76,"x_max":1746,"o":"m 344 418 q 308 418 344 418 q 221 367 271 418 q 171 240 171 317 q 224 113 171 163 q 350 63 278 63 q 468 111 422 63 q 514 239 514 160 q 466 368 514 318 q 344 418 418 418 m 1746 110 q 1633 -193 1746 -71 q 1346 -315 1521 -315 q 1204 -299 1294 -315 l 1204 -219 q 1344 -236 1279 -236 q 1567 -143 1476 -236 q 1658 110 1658 -50 q 1644 219 1658 174 q 1550 47 1618 108 q 1377 -14 1482 -14 q 1202 62 1272 -14 q 1132 245 1132 138 q 1206 425 1132 353 q 1381 497 1279 497 q 1564 447 1483 497 q 1442 651 1533 574 q 1227 728 1350 728 q 1008 638 1104 728 q 913 406 913 547 l 913 0 l 822 0 l 824 406 q 726 633 824 539 q 503 728 629 728 q 278 635 378 728 q 154 382 178 543 q 233 467 181 436 q 347 497 286 497 q 531 425 457 497 q 604 245 604 353 q 534 62 604 138 q 345 -14 464 -14 q 151 85 226 -14 q 76 356 76 185 q 127 571 76 469 q 278 739 178 672 q 505 806 379 806 q 728 740 631 806 q 867 575 825 675 q 1007 740 908 674 q 1226 806 1106 806 q 1540 671 1419 806 q 1660 361 1660 536 q 1746 110 1746 251 m 1222 239 q 1222 199 1222 239 q 1268 111 1222 160 q 1390 63 1314 63 q 1521 140 1467 63 q 1575 343 1575 218 l 1575 344 q 1392 418 1503 418 q 1270 368 1318 418 q 1222 239 1222 318 z "},"ൢ":{"ha":0,"x_min":-1110,"x_max":-125,"o":"m -376 -379 q -294 -531 -376 -531 q -233 -489 -256 -531 q -211 -372 -211 -447 q -294 -199 -211 -261 q -353 -275 -331 -226 q -376 -379 -376 -324 m -1024 -372 q -1001 -489 -1024 -447 q -939 -531 -979 -531 q -858 -379 -858 -531 q -939 -199 -858 -262 q -1024 -372 -1024 -261 m -771 -379 q -815 -542 -771 -481 q -940 -603 -858 -603 q -1065 -540 -1021 -603 q -1110 -365 -1110 -476 q -1031 -176 -1110 -253 q -835 -100 -951 -100 q -702 -136 -758 -100 q -617 -221 -646 -172 q -533 -135 -589 -169 q -403 -100 -478 -100 q -205 -176 -285 -100 q -125 -365 -125 -253 q -169 -540 -125 -476 q -294 -603 -214 -603 q -419 -542 -375 -603 q -462 -379 -462 -481 q -433 -261 -462 -317 q -362 -176 -404 -206 q -509 -210 -444 -161 q -574 -344 -574 -260 l -574 -594 l -660 -594 l -660 -344 q -725 -210 -660 -260 q -871 -176 -790 -160 q -800 -260 -829 -206 q -771 -379 -771 -315 z "},"ൣ":{"ha":0,"x_min":-1149,"x_max":-65,"o":"m -965 -358 q -985 -358 -965 -358 q -1031 -384 -1004 -358 q -1057 -447 -1057 -410 q -1029 -508 -1057 -483 q -963 -533 -1001 -533 q -900 -508 -925 -533 q -875 -446 -875 -483 q -901 -383 -875 -408 q -965 -358 -926 -358 m -65 -536 q -140 -724 -65 -651 q -336 -797 -215 -797 q -433 -786 -382 -797 l -433 -711 q -337 -724 -378 -724 q -198 -673 -251 -724 q -144 -521 -144 -622 q -146 -494 -144 -503 q -308 -604 -194 -604 q -431 -558 -382 -604 q -479 -444 -479 -512 q -429 -331 -479 -376 q -306 -286 -379 -286 q -215 -306 -258 -286 q -286 -208 -236 -243 q -409 -172 -336 -172 q -537 -224 -482 -172 q -593 -361 -593 -275 l -593 -596 l -678 -596 l -678 -357 q -735 -225 -678 -276 q -866 -174 -793 -174 q -994 -219 -939 -174 q -1067 -342 -1050 -264 q -1020 -302 -1051 -318 q -954 -286 -989 -286 q -837 -331 -883 -286 q -792 -442 -792 -375 q -839 -557 -792 -510 q -966 -604 -886 -604 q -1097 -544 -1046 -604 q -1149 -376 -1149 -483 q -1071 -185 -1149 -269 q -868 -101 -993 -101 q -726 -139 -790 -101 q -636 -232 -662 -176 q -544 -138 -606 -175 q -406 -101 -482 -101 q -204 -181 -279 -101 q -125 -372 -129 -260 q -65 -536 -65 -446 m -394 -447 q -394 -466 -394 -447 q -369 -509 -394 -485 q -302 -533 -344 -533 q -231 -496 -260 -533 q -201 -396 -201 -458 q -296 -358 -247 -358 q -369 -383 -344 -358 q -394 -447 -394 -408 z "},"൦":{"ha":808,"x_min":63,"x_max":746,"o":"m 405 -15 q 323 -15 405 -15 q 151 101 240 -15 q 63 399 63 218 q 151 693 63 581 q 406 806 239 806 q 659 693 572 806 q 746 399 746 581 q 658 101 746 217 q 405 -15 569 -15 m 401 729 q 341 729 401 729 q 217 635 281 729 q 153 397 153 542 q 219 157 153 253 q 407 61 286 61 q 592 156 528 61 q 656 394 656 250 q 589 634 656 539 q 401 729 522 729 z "},"൧":{"ha":874,"x_min":-56,"x_max":749,"o":"m 250 449 l 250 76 l 665 76 l 665 449 q 606 665 665 601 q 454 728 546 728 q 250 449 250 728 m 406 -265 l 161 -265 q -1 -219 53 -265 q -56 -93 -56 -174 q 4 32 -56 -12 q 167 76 64 76 l 167 449 q 239 712 167 618 q 456 806 311 806 q 675 712 601 806 q 749 449 749 618 l 749 0 l 176 0 q 35 -93 35 0 q 181 -189 35 -189 l 406 -189 l 406 -265 z "},"൨":{"ha":938,"x_min":76,"x_max":979,"o":"m 571 0 l 571 74 q 676 203 639 121 q 713 386 713 286 q 637 633 713 536 q 439 729 561 729 q 242 633 317 729 q 167 389 167 536 q 228 164 167 242 q 376 83 289 86 l 376 0 q 155 112 233 1 q 76 399 76 222 q 175 691 76 576 q 439 806 274 806 q 703 691 604 806 q 803 392 803 576 q 681 68 803 178 q 979 76 778 76 l 979 0 l 571 0 z "},"൩":{"ha":1375,"x_min":76,"x_max":1403,"o":"m 454 83 l 454 0 q 301 26 369 0 q 192 94 233 53 q 125 192 151 136 q 76 403 76 288 q 168 703 76 600 q 407 806 260 806 q 650 651 581 806 q 742 763 679 721 q 894 806 806 806 q 1132 690 1038 806 q 1226 392 1226 574 q 1104 68 1226 178 q 1403 76 1201 76 l 1403 0 l 994 0 l 994 74 q 1099 203 1063 121 q 1136 386 1136 286 q 1066 631 1136 533 q 902 729 996 729 q 751 663 808 729 q 693 499 693 597 l 693 0 l 610 0 l 610 499 q 551 663 610 597 q 407 729 493 729 q 232 640 297 729 q 167 407 167 551 q 241 173 167 263 q 454 83 315 83 z "},"൪":{"ha":1025,"x_min":83,"x_max":935,"o":"m 493 264 q 544 120 493 175 q 671 65 594 65 q 796 145 747 65 q 844 368 844 225 q 805 543 844 460 q 693 675 765 626 q 630 582 674 644 q 561 481 586 519 q 515 383 536 443 q 493 264 493 322 m 935 368 q 866 94 935 203 q 672 -14 797 -14 q 474 69 546 -14 q 403 264 403 151 q 426 399 403 331 q 475 510 450 468 q 548 619 500 551 q 613 714 596 688 q 510 729 564 729 q 272 626 371 729 q 174 351 174 524 q 292 0 174 179 l 192 0 q 83 358 83 176 q 202 673 83 540 q 511 806 321 806 q 650 781 583 806 q 676 894 676 840 q 613 1044 676 993 q 444 1096 549 1096 q 303 1069 379 1096 l 303 1150 q 444 1172 385 1172 q 676 1097 586 1172 q 767 894 767 1022 q 731 742 767 818 q 879 584 824 683 q 935 368 935 485 z "},"൫":{"ha":1388,"x_min":69,"x_max":1318,"o":"m 1053 108 q 946 -112 1053 -15 q 656 -208 839 -208 q 241 -42 413 -208 q 69 401 69 125 q 244 858 69 678 q 701 1038 418 1038 q 1035 947 892 1038 q 1248 713 1178 856 q 1318 401 1318 571 q 1279 117 1318 258 q 1267 72 1269 81 q 1253 27 1265 64 q 1242 -12 1242 -10 l 1140 -12 q 1228 401 1228 206 q 1080 803 1228 646 q 701 961 932 961 q 429 898 550 961 q 234 704 308 835 q 160 415 160 574 q 208 149 160 256 q 333 -17 257 42 q 644 -129 485 -129 q 883 -58 804 -129 q 963 103 963 14 q 905 237 963 192 q 751 282 847 282 l 694 282 l 694 367 l 738 367 q 865 406 815 367 q 914 515 914 444 q 732 657 914 657 q 572 583 638 657 q 506 350 506 508 l 506 83 l 422 83 l 422 350 q 451 534 422 456 q 528 656 481 613 q 735 736 621 736 q 926 681 849 736 q 1004 517 1004 626 q 966 393 1004 444 q 863 331 928 342 q 1000 259 947 319 q 1053 108 1053 199 z "},"൬":{"ha":1697,"x_min":76,"x_max":1607,"o":"m 624 621 q 703 754 649 703 q 839 806 758 806 q 976 757 919 806 q 1060 621 1033 708 q 1149 753 1083 700 q 1304 806 1215 806 q 1524 697 1440 806 q 1607 389 1607 588 q 1531 47 1607 199 q 1430 -95 1490 -35 q 1276 -192 1369 -156 q 1069 -229 1183 -229 l 1069 -150 q 1402 -1 1288 -150 q 1517 389 1517 149 q 1460 635 1517 540 q 1306 729 1403 729 q 1157 648 1210 729 q 1104 433 1104 567 l 1104 0 l 1021 0 l 1021 433 q 972 654 1021 579 q 844 729 924 729 q 714 648 764 729 q 664 438 664 567 l 664 0 l 581 0 l 581 438 q 528 650 581 571 q 378 729 475 729 q 224 635 281 729 q 167 394 167 540 q 232 166 167 249 q 426 83 297 83 l 426 0 q 253 37 326 0 q 144 135 181 74 q 76 389 76 250 q 160 697 76 588 q 379 806 243 806 q 534 753 468 806 q 624 621 600 700 z "},"൭":{"ha":1017,"x_min":76,"x_max":933,"o":"m 344 446 q 308 446 344 446 q 221 395 271 446 q 171 267 171 344 q 224 140 171 190 q 350 90 278 90 q 469 140 422 90 q 517 266 517 189 q 467 394 517 343 q 344 446 418 446 m 892 567 q 913 523 892 567 q 933 365 933 479 q 903 156 933 251 q 812 -19 874 60 q 641 -144 750 -99 q 386 -193 532 -190 l 386 -114 q 726 14 608 -114 q 843 365 843 142 q 749 626 843 526 q 519 725 656 725 q 281 638 382 725 q 154 410 179 551 q 233 494 181 464 q 347 525 286 525 q 531 453 457 525 q 604 273 604 381 q 534 90 604 165 q 346 14 464 14 q 152 107 228 14 q 76 351 76 200 q 197 672 76 538 q 513 806 317 806 q 786 706 658 806 q 892 567 851 656 z "},"൮":{"ha":1351,"x_min":69,"x_max":1226,"o":"m 396 0 q 244 37 310 0 q 142 133 178 74 q 69 386 69 250 q 168 685 69 564 q 447 806 267 806 q 724 689 626 806 q 822 396 822 572 q 706 76 822 219 l 1143 76 l 1143 806 l 1226 806 l 1226 0 q 1131 -253 1226 -161 q 844 -358 1036 -344 l 844 -275 q 1146 0 1146 -254 l 594 0 l 594 76 q 733 386 733 213 q 656 633 733 536 q 445 729 578 729 q 236 629 313 729 q 160 384 160 529 q 234 161 160 239 q 396 83 308 83 l 396 0 z "},"൯":{"ha":1492,"x_min":76,"x_max":1401,"o":"m 960 264 q 1010 120 960 175 q 1138 65 1061 65 q 1263 145 1214 65 q 1311 368 1311 225 q 1272 543 1311 460 q 1160 675 1232 626 q 1097 582 1140 644 q 1028 481 1053 519 q 981 383 1003 443 q 960 264 960 322 m 1401 368 q 1333 94 1401 203 q 1138 -14 1264 -14 q 941 69 1013 -14 q 869 264 869 151 q 893 399 869 331 q 942 510 917 468 q 1015 619 967 551 q 1079 714 1063 688 q 976 729 1031 729 q 781 647 868 729 q 693 438 693 565 l 693 0 l 610 0 l 610 499 q 551 663 610 597 q 407 729 493 729 q 232 640 297 729 q 167 407 167 551 q 241 173 167 263 q 454 83 315 83 l 454 0 q 301 26 369 0 q 192 94 233 53 q 125 192 151 136 q 76 403 76 288 q 168 703 76 600 q 407 806 260 806 q 562 755 494 806 q 663 631 629 704 q 792 756 704 706 q 965 806 881 806 q 1117 782 1050 806 q 1143 894 1143 839 q 1079 1044 1143 993 q 911 1096 1015 1096 q 769 1069 846 1096 l 769 1150 q 911 1172 851 1172 q 1143 1097 1053 1172 q 1233 894 1233 1022 q 1197 743 1233 818 q 1346 585 1290 685 q 1401 368 1401 486 z "},"൰":{"ha":1281,"x_min":125,"x_max":1204,"o":"m 399 0 q 208 96 283 0 l 208 -151 l 125 -151 l 125 806 l 208 806 l 208 279 q 281 127 228 178 q 399 76 335 76 q 535 142 483 76 q 588 307 588 207 l 588 806 l 671 806 l 671 307 q 729 142 671 208 q 874 76 788 76 q 1049 165 983 76 q 1114 399 1114 254 q 1040 633 1114 543 q 826 722 965 722 l 826 806 q 979 779 911 806 q 1088 711 1047 753 q 1156 614 1129 669 q 1204 403 1204 518 q 1113 103 1204 206 q 874 0 1021 0 q 631 154 700 0 q 399 0 565 0 z "},"൱":{"ha":1317,"x_min":76,"x_max":1226,"o":"m 1226 397 q 1117 -61 1226 140 q 964 -226 1061 -164 q 740 -287 867 -287 l 740 -204 q 1029 -36 922 -204 q 1136 397 1136 132 q 1071 635 1136 546 q 896 724 1006 724 q 751 660 808 724 q 693 499 693 597 l 693 0 l 610 0 l 610 499 q 551 663 610 597 q 407 729 493 729 q 232 640 297 729 q 167 407 167 551 q 241 173 167 263 q 454 83 315 83 l 454 0 q 301 26 369 0 q 192 94 233 53 q 125 192 151 136 q 76 403 76 288 q 168 703 76 600 q 407 806 260 806 q 650 651 581 806 q 750 760 686 721 q 896 800 814 800 q 1135 697 1043 800 q 1226 397 1226 594 z "},"൲":{"ha":1953,"x_min":76,"x_max":1939,"o":"m 1602 764 q 1582 743 1602 764 q 1561 658 1561 722 q 1602 551 1561 594 q 1704 508 1643 508 q 1807 551 1765 508 q 1849 658 1849 593 q 1806 765 1849 724 q 1703 806 1764 806 q 1602 764 1643 806 m 1140 63 q 1277 142 1232 63 q 1322 354 1322 221 q 1318 418 1322 386 l 1200 418 q 1033 367 1090 418 q 975 235 975 315 q 1022 108 975 154 q 1140 63 1069 63 m 1413 356 q 1338 85 1413 185 q 1144 -14 1263 -14 q 956 56 1026 -14 q 885 238 885 125 q 968 424 885 350 q 1197 497 1051 497 l 1299 497 q 1171 667 1260 606 q 971 728 1082 728 q 776 651 860 728 q 693 443 693 574 l 693 0 l 610 0 l 610 499 q 551 663 610 597 q 407 729 493 729 q 232 640 297 729 q 167 407 167 551 q 241 173 167 263 q 454 83 315 83 l 454 0 q 301 26 369 0 q 192 94 233 53 q 125 192 151 136 q 76 403 76 288 q 168 703 76 600 q 407 806 260 806 q 563 760 496 806 q 661 640 629 714 q 979 806 767 806 q 1240 718 1132 806 q 1390 497 1349 631 l 1540 497 q 1471 654 1471 557 q 1535 817 1471 751 q 1702 882 1599 882 q 1872 819 1806 882 q 1939 652 1939 757 q 1857 483 1939 547 q 1644 418 1775 418 l 1408 418 q 1413 356 1413 386 z "},"൳":{"ha":874,"x_min":69,"x_max":901,"o":"m 901 806 l 901 726 l 497 726 q 250 629 340 726 q 160 356 160 532 q 212 143 160 221 q 358 65 264 65 q 505 143 453 65 q 557 356 557 221 q 526 522 557 442 l 613 522 q 647 356 647 428 q 571 88 647 189 q 358 -14 494 -14 q 146 88 222 -14 q 69 356 69 189 q 185 684 69 563 q 497 806 300 806 l 901 806 z "},"൴":{"ha":1311,"x_min":76,"x_max":1221,"o":"m 351 418 q 315 418 351 418 q 228 367 278 418 q 178 240 178 317 q 231 113 178 163 q 357 63 285 63 q 476 112 429 63 q 524 238 524 161 q 474 367 524 315 q 351 418 425 418 m 779 264 q 779 219 779 264 q 830 120 779 175 q 957 65 881 65 q 1082 137 1033 65 q 1131 322 1131 208 q 963 650 1131 542 q 914 581 947 628 q 863 506 881 535 q 822 436 844 478 q 779 264 779 353 m 354 497 q 538 425 464 497 q 611 245 611 353 q 541 62 611 138 q 353 -14 471 -14 q 156 79 235 -14 q 76 324 76 172 q 225 670 76 535 q 657 806 374 806 q 924 756 801 806 q 963 894 963 829 q 899 1044 963 993 q 731 1096 835 1096 q 589 1069 665 1096 l 589 1150 q 731 1172 671 1172 q 963 1097 872 1172 q 1053 894 1053 1022 q 1003 717 1053 806 q 1163 556 1106 653 q 1221 340 1221 458 q 1152 86 1221 186 q 958 -14 1083 -14 q 760 69 832 -14 q 689 264 689 151 q 736 458 689 367 q 883 690 778 543 q 657 729 783 729 q 314 638 443 729 q 161 382 185 546 q 240 467 188 436 q 354 497 293 497 z "},"൵":{"ha":1697,"x_min":76,"x_max":1607,"o":"m 351 418 q 315 418 351 418 q 228 367 278 418 q 178 240 178 317 q 231 113 178 163 q 357 63 285 63 q 476 112 429 63 q 524 238 524 161 q 474 367 524 315 q 351 418 425 418 m 1165 264 q 1216 120 1165 175 q 1343 65 1267 65 q 1468 145 1419 65 q 1517 368 1517 225 q 1477 543 1517 460 q 1365 675 1438 626 q 1302 582 1346 644 q 1233 481 1258 519 q 1187 383 1208 443 q 1165 264 1165 322 m 354 497 q 538 425 464 497 q 611 245 611 353 q 541 62 611 138 q 353 -14 471 -14 q 156 79 235 -14 q 76 324 76 172 q 196 667 76 529 q 513 806 315 806 q 716 750 621 806 q 857 607 811 694 q 992 753 903 701 q 1186 806 1082 806 q 1322 782 1256 806 q 1349 894 1349 839 q 1285 1044 1349 993 q 1117 1096 1221 1096 q 975 1069 1051 1096 l 975 1150 q 1117 1172 1057 1172 q 1349 1097 1258 1172 q 1439 894 1439 1022 q 1403 743 1439 818 q 1551 585 1496 685 q 1607 368 1607 486 q 1538 94 1607 203 q 1344 -14 1469 -14 q 1147 69 1218 -14 q 1075 264 1075 151 q 1099 399 1075 331 q 1147 510 1122 468 q 1220 619 1172 551 q 1285 714 1268 688 q 1182 729 1236 729 q 983 644 1067 729 q 899 426 899 558 l 899 0 l 815 0 l 815 422 q 725 638 815 551 q 508 725 635 725 q 279 633 381 725 q 154 382 178 542 q 236 466 181 435 q 354 497 292 497 z "},"൹":{"ha":1672,"x_min":76,"x_max":1644,"o":"m 1140 63 q 1277 142 1232 63 q 1322 354 1322 221 q 1318 418 1322 386 l 1200 418 q 1033 367 1090 418 q 975 235 975 315 q 1022 108 975 154 q 1140 63 1069 63 m 1413 356 q 1338 85 1413 185 q 1144 -14 1263 -14 q 956 56 1026 -14 q 885 238 885 125 q 968 424 885 350 q 1197 497 1051 497 l 1299 497 q 1171 667 1260 606 q 971 728 1082 728 q 776 651 860 728 q 693 443 693 574 l 693 0 l 610 0 l 610 499 q 551 663 610 597 q 407 729 493 729 q 232 640 297 729 q 167 407 167 551 q 241 173 167 263 q 454 83 315 83 l 454 0 q 301 26 369 0 q 192 94 233 53 q 125 192 151 136 q 76 403 76 288 q 168 703 76 600 q 407 806 260 806 q 563 760 496 806 q 661 640 629 714 q 979 806 767 806 q 1240 718 1132 806 q 1390 497 1349 631 l 1644 497 l 1644 418 l 1408 418 q 1413 356 1413 386 z "},"ൺ":{"ha":2136,"x_min":76,"x_max":2046,"o":"m 344 418 q 308 418 344 418 q 221 367 271 418 q 171 240 171 317 q 224 113 171 163 q 350 63 278 63 q 469 112 422 63 q 517 238 517 161 q 467 367 517 315 q 344 418 418 418 m 1604 253 q 1604 214 1604 253 q 1655 120 1604 175 q 1782 65 1706 65 q 1907 145 1858 65 q 1956 368 1956 225 q 1917 541 1956 458 q 1807 672 1878 624 q 1725 551 1789 642 q 1633 396 1661 460 q 1604 253 1604 332 m 347 497 q 531 425 457 497 q 604 245 604 353 q 534 62 604 138 q 346 -14 464 -14 q 152 79 228 -14 q 76 324 76 172 q 196 667 76 529 q 513 806 315 806 q 714 756 624 806 q 850 621 804 707 q 937 756 876 707 q 1077 806 997 806 q 1215 757 1157 806 q 1300 618 1274 708 q 1425 751 1339 696 q 1625 806 1511 806 q 1763 782 1696 806 q 1788 894 1788 842 q 1724 1044 1788 993 q 1556 1096 1660 1096 q 1414 1069 1490 1096 l 1414 1150 q 1556 1172 1496 1172 q 1788 1097 1697 1172 q 1878 894 1878 1022 q 1843 742 1878 822 q 1991 585 1936 683 q 2046 368 2046 486 q 1977 94 2046 203 q 1783 -14 1908 -14 q 1585 69 1657 -14 q 1514 264 1514 151 q 1543 413 1514 343 q 1644 589 1572 483 q 1726 713 1715 694 q 1621 729 1678 729 q 1425 647 1513 729 q 1338 438 1338 565 l 1338 0 l 1254 0 l 1254 438 q 1204 648 1254 567 q 1074 729 1154 729 q 947 654 994 729 q 899 433 899 579 l 899 0 l 815 0 l 815 433 q 726 643 815 561 q 508 725 636 725 q 279 633 381 725 q 154 382 178 542 q 233 467 181 436 q 347 497 286 497 z "},"ൻ":{"ha":1492,"x_min":76,"x_max":1401,"o":"m 960 253 q 960 214 960 253 q 1010 120 960 175 q 1138 65 1061 65 q 1263 145 1214 65 q 1311 368 1311 225 q 1272 541 1311 458 q 1163 672 1233 624 q 1081 551 1144 642 q 988 396 1017 460 q 960 253 960 332 m 407 806 q 572 753 504 806 q 663 628 639 701 q 785 754 703 703 q 981 806 867 806 q 1118 782 1051 806 q 1143 894 1143 842 q 1079 1044 1143 993 q 911 1096 1015 1096 q 769 1069 846 1096 l 769 1150 q 911 1172 851 1172 q 1143 1097 1053 1172 q 1233 894 1233 1022 q 1199 742 1233 822 q 1347 585 1292 683 q 1401 368 1401 486 q 1333 94 1401 203 q 1138 -14 1264 -14 q 941 69 1013 -14 q 869 264 869 151 q 899 413 869 343 q 999 589 928 483 q 1082 713 1071 694 q 976 729 1035 729 q 780 649 867 729 q 693 433 693 569 l 693 0 l 610 0 l 610 499 q 551 663 610 597 q 407 729 493 729 q 232 640 297 729 q 167 407 167 551 q 241 173 167 263 q 454 83 315 83 l 454 0 q 301 26 369 0 q 192 94 233 53 q 125 192 151 136 q 76 403 76 288 q 168 703 76 600 q 407 806 260 806 z "},"ർ":{"ha":1025,"x_min":83,"x_max":935,"o":"m 493 253 q 493 214 493 253 q 544 120 493 175 q 671 65 594 65 q 796 145 747 65 q 844 368 844 225 q 806 541 844 458 q 696 672 767 624 q 614 551 678 642 q 522 396 550 460 q 493 253 493 332 m 935 368 q 866 94 935 203 q 672 -14 797 -14 q 474 69 546 -14 q 403 264 403 151 q 432 413 403 343 q 533 589 461 483 q 615 713 604 694 q 510 729 567 729 q 272 626 371 729 q 174 351 174 524 q 292 0 174 179 l 192 0 q 83 358 83 176 q 202 673 83 540 q 511 806 321 806 q 651 781 585 806 q 676 894 676 842 q 613 1044 676 993 q 444 1096 549 1096 q 303 1069 379 1096 l 303 1150 q 444 1172 385 1172 q 676 1097 586 1172 q 767 894 767 1022 q 732 742 767 821 q 880 585 825 683 q 935 368 935 486 z "},"ൽ":{"ha":1672,"x_min":83,"x_max":1582,"o":"m 1140 264 q 1191 120 1140 175 q 1318 65 1242 65 q 1443 137 1394 65 q 1492 321 1492 208 q 1326 647 1492 539 q 1266 557 1310 621 q 1201 458 1222 493 q 1160 369 1181 424 q 1140 264 1140 314 m 544 349 q 592 138 544 208 q 705 67 639 67 q 817 138 771 67 q 863 326 863 208 q 718 661 863 549 q 586 526 628 610 q 544 349 544 443 m 403 69 l 403 -14 q 167 92 251 -14 q 83 375 83 199 q 206 678 83 551 q 518 806 329 806 q 722 749 626 806 q 1006 806 849 806 q 1286 756 1164 806 q 1324 894 1324 833 q 1260 1044 1324 993 q 1092 1096 1196 1096 q 950 1069 1026 1096 l 950 1150 q 1092 1172 1032 1172 q 1324 1097 1233 1172 q 1414 894 1414 1022 q 1367 715 1414 810 q 1525 556 1468 653 q 1582 340 1582 458 q 1513 86 1582 186 q 1319 -14 1444 -14 q 1122 69 1193 -14 q 1050 264 1050 151 q 1097 450 1050 357 q 1185 594 1138 524 q 1249 689 1233 664 q 1017 729 1143 729 q 796 696 892 729 q 910 540 868 632 q 953 349 953 449 q 884 83 953 179 q 704 -14 815 -14 q 524 83 593 -14 q 454 349 454 179 q 502 547 454 453 q 643 706 550 640 q 518 729 585 729 q 275 631 376 729 q 174 368 174 532 q 235 150 174 231 q 403 69 296 69 z "},"ൾ":{"ha":1461,"x_min":76,"x_max":1371,"o":"m 929 253 q 929 214 929 253 q 980 120 929 175 q 1107 65 1031 65 q 1232 145 1183 65 q 1281 368 1281 225 q 1242 541 1281 458 q 1132 672 1203 624 q 1050 551 1114 642 q 958 396 986 460 q 929 253 929 332 m 676 331 q 599 74 676 163 q 383 -14 522 -14 q 160 98 243 -14 q 76 399 76 210 q 164 697 76 588 q 426 806 251 806 l 426 722 q 167 396 167 722 q 231 151 167 239 q 385 63 294 63 q 535 129 476 63 q 593 324 593 196 l 593 461 q 694 706 593 606 q 946 806 794 806 q 1086 781 1022 806 q 1113 894 1113 840 q 1049 1044 1113 993 q 881 1096 985 1096 q 739 1069 815 1096 l 739 1150 q 881 1172 821 1172 q 1113 1097 1022 1172 q 1203 894 1203 1022 q 1168 740 1203 821 q 1315 583 1260 682 q 1371 368 1371 485 q 1302 94 1371 203 q 1108 -14 1233 -14 q 910 69 982 -14 q 839 264 839 151 q 868 413 839 343 q 969 589 897 483 q 1051 713 1040 694 q 946 729 1004 729 q 756 660 836 729 q 676 461 676 590 l 676 331 z "},"ൿ":{"ha":1785,"x_min":69,"x_max":1694,"o":"m 535 389 q 590 151 535 239 q 764 63 646 63 q 990 389 990 63 l 990 410 l 535 411 l 535 389 m 985 488 q 763 729 951 729 q 540 488 575 729 l 985 488 m 1081 389 q 1000 94 1081 203 q 760 -14 919 -14 q 518 104 601 -14 q 440 19 492 53 q 321 -14 389 -14 q 143 57 217 -14 q 69 244 69 128 q 155 424 69 361 q 382 488 240 488 l 450 488 q 551 723 469 640 q 763 806 632 806 q 974 722 893 806 q 1075 488 1054 639 l 1274 488 q 1325 576 1311 550 q 1357 658 1339 603 q 1375 765 1375 713 q 1326 895 1375 851 q 1198 939 1276 939 q 1043 913 1119 939 l 1043 993 q 1185 1015 1125 1015 q 1390 948 1314 1015 q 1465 765 1465 881 q 1419 572 1465 669 q 1374 488 1403 539 q 1608 422 1521 485 q 1694 243 1694 358 q 1621 57 1694 128 q 1434 -14 1547 -14 q 1253 51 1321 -14 q 1185 216 1185 117 q 1232 410 1185 315 l 1081 410 l 1081 389 m 1275 228 q 1275 188 1275 228 q 1319 106 1275 147 q 1439 65 1364 65 q 1559 117 1514 65 q 1604 244 1604 168 q 1354 410 1604 410 l 1331 410 q 1275 228 1275 308 m 160 244 q 206 114 160 163 q 316 65 253 65 q 421 103 379 65 q 474 194 463 140 q 444 389 444 278 l 444 411 l 382 411 q 160 244 160 411 z "},"‌":{"ha":0,"x_min":-33,"x_max":38,"o":"m -33 1103 l 38 1103 l 38 -481 l -33 -481 l -33 1103 z "},"‍":{"ha":0,"x_min":-207,"x_max":185,"o":"m 25 -481 l -46 -481 l -46 839 l -149 738 l -207 792 l -62 924 l -207 1057 l -150 1110 l -10 972 l 129 1110 l 185 1057 l 40 924 l 185 792 l 128 738 l 25 840 l 25 -481 z "},"–":{"ha":744,"x_min":83,"x_max":661,"o":"m 661 338 l 83 338 l 83 414 l 661 414 l 661 338 z "},"—":{"ha":1138,"x_min":83,"x_max":1054,"o":"m 1054 340 l 83 340 l 83 417 l 1054 417 l 1054 340 z "},"‘":{"ha":218,"x_min":10,"x_max":232,"o":"m 122 668 l 10 668 l 169 965 l 232 965 l 122 668 z "},"’":{"ha":219,"x_min":11,"x_max":233,"o":"m 74 668 l 11 668 l 121 965 l 233 965 l 74 668 z "},"‚":{"ha":219,"x_min":6,"x_max":228,"o":"m 68 -169 l 6 -169 l 115 128 l 228 128 l 68 -169 z "},"“":{"ha":403,"x_min":11,"x_max":417,"o":"m 307 668 l 194 668 l 354 965 l 417 965 l 307 668 m 124 668 l 11 668 l 171 965 l 233 965 l 124 668 z "},"”":{"ha":401,"x_min":11,"x_max":417,"o":"m 257 668 l 194 668 l 304 965 l 417 965 l 257 668 m 74 668 l 11 668 l 121 965 l 233 965 l 74 668 z "},"„":{"ha":401,"x_min":6,"x_max":411,"o":"m 251 -169 l 189 -169 l 299 128 l 411 128 l 251 -169 m 68 -169 l 6 -169 l 115 128 l 228 128 l 68 -169 z "},"†":{"ha":714,"x_min":63,"x_max":651,"o":"m 651 614 l 390 614 l 390 0 l 311 0 l 311 614 l 63 614 l 63 692 l 311 692 l 311 936 l 390 936 l 390 692 l 651 692 l 651 614 z "},"‡":{"ha":714,"x_min":63,"x_max":651,"o":"m 651 263 l 390 263 l 390 0 l 311 0 l 311 263 l 63 263 l 63 340 l 311 340 l 311 614 l 63 614 l 63 692 l 311 692 l 311 936 l 390 936 l 390 692 l 651 692 l 651 614 l 390 614 l 390 340 l 651 340 l 651 263 z "},"•":{"ha":632,"x_min":132,"x_max":500,"o":"m 447 626 q 473 599 447 626 q 500 494 500 572 q 447 363 500 417 q 316 310 394 310 q 185 363 238 310 q 132 494 132 415 q 184 626 132 574 q 315 679 236 679 q 447 626 393 679 z "},"…":{"ha":919,"x_min":42,"x_max":878,"o":"m 858 110 q 868 100 858 110 q 878 60 878 90 q 858 9 878 29 q 807 -11 838 -11 q 756 9 776 -11 q 736 60 736 29 q 756 110 736 90 q 807 131 776 131 q 858 110 838 131 m 510 110 q 520 100 510 110 q 531 60 531 90 q 510 9 531 29 q 460 -11 490 -11 q 409 9 429 -11 q 389 60 389 29 q 409 110 389 90 q 460 131 429 131 q 510 110 490 131 m 163 110 q 173 100 163 110 q 183 60 183 90 q 163 9 183 29 q 113 -11 143 -11 q 62 9 82 -11 q 42 60 42 29 q 62 110 42 90 q 113 131 82 131 q 163 110 143 131 z "},"‰":{"ha":1610,"x_min":63,"x_max":1575,"o":"m 1274 291 q 1255 272 1274 291 q 1236 199 1236 253 q 1274 106 1236 144 q 1367 68 1313 68 q 1459 106 1421 68 q 1497 199 1497 144 q 1459 291 1497 253 q 1367 329 1421 329 q 1274 291 1313 329 m 1367 407 q 1410 407 1367 407 q 1514 345 1453 407 q 1575 198 1575 283 q 1514 51 1575 113 q 1367 -10 1453 -10 q 1219 51 1281 -10 q 1158 199 1158 113 q 1219 346 1158 285 q 1367 407 1281 407 m 753 291 q 734 272 753 291 q 715 199 715 253 q 753 106 715 144 q 846 68 792 68 q 938 106 900 68 q 976 199 976 144 q 938 291 976 253 q 846 329 900 329 q 753 291 792 329 m 845 407 q 888 407 845 407 q 992 345 931 407 q 1054 198 1054 283 q 993 51 1054 113 q 846 -10 932 -10 q 699 51 760 -10 q 638 199 638 113 q 699 346 638 285 q 845 407 760 407 m 178 801 q 159 782 178 801 q 140 708 140 763 q 178 616 140 654 q 271 578 217 578 q 363 616 325 578 q 401 708 401 654 q 363 801 401 763 q 271 839 325 839 q 178 801 217 839 m 417 856 q 448 825 417 856 q 479 708 479 794 q 418 561 479 622 q 271 500 357 500 q 124 561 185 500 q 63 708 63 622 q 124 856 63 794 q 270 917 185 917 q 417 856 356 917 m 356 -1 l 271 -1 l 760 908 l 846 908 l 356 -1 z "},"‹":{"ha":389,"x_min":42,"x_max":347,"o":"m 143 351 l 347 126 l 250 126 l 42 351 l 250 576 l 347 576 l 143 351 z "},"›":{"ha":385,"x_min":42,"x_max":347,"o":"m 347 351 l 139 126 l 42 126 l 246 351 l 42 576 l 139 576 l 347 351 z "},"⁄":{"ha":450,"x_min":-97,"x_max":622,"o":"m -12 0 l -97 0 l 536 989 l 622 989 l -12 0 z "},"€":{"ha":808,"x_min":76,"x_max":753,"o":"m 590 -11 q 356 76 457 -11 q 221 314 254 164 l 76 314 l 76 382 l 211 382 q 207 458 207 415 q 213 535 207 500 l 76 535 l 76 603 l 224 603 q 360 833 260 750 q 600 915 461 915 q 753 889 700 915 l 753 807 q 601 833 701 833 q 423 774 500 833 q 315 603 346 715 l 597 603 l 597 535 l 301 535 q 296 458 296 500 q 300 382 296 415 l 597 382 l 597 314 l 313 314 q 422 135 343 199 q 600 71 500 71 q 753 100 700 71 l 753 18 q 590 -11 696 -11 z "},"₹":{"ha":744,"x_min":90,"x_max":675,"o":"m 231 367 l 192 367 l 481 0 l 374 0 l 90 367 l 90 443 l 231 443 q 395 489 336 443 q 461 618 454 535 l 90 618 l 90 697 l 456 697 q 231 857 422 857 l 90 857 l 90 936 l 675 936 l 675 857 l 443 857 q 543 697 526 807 l 675 697 l 675 618 l 547 618 q 455 435 540 504 q 231 367 369 367 z "},"₺":{"ha":803,"x_min":90,"x_max":728,"o":"m 283 0 l 222 0 l 222 413 l 90 343 l 90 428 l 222 497 l 222 614 l 90 544 l 90 629 l 222 699 l 222 910 l 307 910 l 307 743 l 468 828 l 468 743 l 307 658 l 307 542 l 468 626 l 468 542 l 307 457 l 307 78 q 551 212 456 88 q 646 504 646 336 l 728 504 q 601 140 728 281 q 283 0 475 0 z "},"₽":{"ha":825,"x_min":53,"x_max":757,"o":"m 581 126 l 294 126 l 294 0 l 208 0 l 208 126 l 53 126 l 53 203 l 208 203 l 208 356 l 53 356 l 53 432 l 208 432 l 208 910 l 406 910 q 664 834 571 910 q 757 630 757 758 q 668 428 757 501 q 421 356 579 356 l 294 356 l 294 203 l 581 203 l 581 126 m 415 833 l 294 833 l 294 432 l 431 432 q 606 481 543 432 q 669 626 669 529 q 603 778 669 724 q 415 833 538 833 z "},"ℓ":{"ha":689,"x_min":63,"x_max":624,"o":"m 624 38 q 456 -7 556 -7 q 292 58 357 -7 q 228 249 228 124 l 228 285 q 150 281 197 281 q 63 296 103 281 l 63 376 q 155 360 113 360 q 228 364 197 360 l 228 668 q 274 867 228 792 q 415 943 319 943 q 558 874 510 943 q 606 683 606 804 q 527 452 606 561 q 313 301 449 343 l 313 293 q 348 125 313 181 q 467 69 383 69 q 624 113 551 69 l 624 38 m 313 664 l 313 385 q 467 506 413 421 q 521 701 521 590 q 494 819 521 772 q 415 867 467 867 q 338 812 364 867 q 313 664 313 757 z "},"™":{"ha":942,"x_min":0,"x_max":897,"o":"m 193 458 l 122 458 l 122 872 l 0 872 l 0 936 l 311 936 l 311 872 l 193 872 l 193 458 m 428 460 l 354 460 l 392 936 l 492 936 l 579 686 l 622 550 q 763 936 647 625 l 865 936 l 897 460 l 825 460 l 810 692 l 803 849 q 663 471 778 775 l 583 471 l 451 849 q 428 460 446 803 z "},"Ω":{"ha":1081,"x_min":76,"x_max":1004,"o":"m 478 0 l 76 0 l 76 79 l 306 79 q 170 238 217 135 q 124 479 124 342 q 235 824 124 692 q 537 956 347 956 q 835 824 726 956 q 944 479 944 693 q 774 79 944 188 l 1004 79 l 1004 0 l 603 0 l 603 79 q 792 208 729 100 q 856 488 856 317 q 771 765 856 658 q 535 872 686 872 q 299 765 385 872 q 213 489 213 657 q 284 210 213 321 q 478 79 356 100 l 478 0 z "},"℮":{"ha":1157,"x_min":47,"x_max":1118,"o":"m 243 476 l 922 476 l 922 761 q 777 877 867 835 q 586 919 688 919 q 396 878 485 919 q 243 761 307 836 l 243 476 m 582 -14 q 203 125 358 -14 q 47 464 47 264 q 203 807 47 664 q 582 950 360 950 q 961 807 804 950 q 1118 463 1118 664 l 1118 449 l 243 449 l 243 172 q 582 13 378 13 q 929 172 786 13 l 1006 172 q 819 36 931 86 q 582 -14 708 -14 z "},"∂":{"ha":703,"x_min":56,"x_max":642,"o":"m 335 69 q 497 160 442 69 q 556 386 553 250 q 340 503 472 503 q 199 444 253 503 q 144 290 144 386 q 196 131 144 193 q 335 69 247 69 m 333 936 q 544 711 446 868 q 642 385 642 554 q 560 103 642 217 q 324 -11 478 -11 q 127 77 199 -11 q 56 293 56 165 q 143 501 56 421 q 348 581 231 581 q 544 493 465 581 q 414 752 514 628 q 211 936 314 876 l 333 936 z "},"∆":{"ha":835,"x_min":42,"x_max":793,"o":"m 421 868 q 135 76 360 708 l 701 76 l 601 363 l 421 868 m 42 0 l 42 79 l 358 936 l 483 936 l 793 79 l 793 0 l 42 0 z "},"∏":{"ha":806,"x_min":-62,"x_max":700,"o":"m 225 -24 q 22 -256 225 -256 q -62 -240 -26 -256 l -62 -157 q 14 -174 -29 -174 q 139 -37 139 -174 l 139 936 l 700 936 l 700 -250 l 614 -250 l 614 857 l 225 857 l 225 -24 z "},"∑":{"ha":597,"x_min":42,"x_max":660,"o":"m 660 -199 l 660 -278 l 42 -278 l 42 -199 l 303 339 l 42 857 l 42 936 l 660 936 l 660 857 l 142 857 l 403 339 l 142 -199 l 660 -199 z "},"−":{"ha":756,"x_min":83,"x_max":672,"o":"m 672 433 l 83 433 l 83 511 l 672 511 l 672 433 z "},"∕":{"ha":450,"x_min":-97,"x_max":622,"o":"m -12 0 l -97 0 l 536 989 l 622 989 l -12 0 z "},"∙":{"ha":308,"x_min":83,"x_max":225,"o":"m 205 519 q 215 509 205 519 q 225 468 225 499 q 205 417 225 438 q 154 397 185 397 q 103 417 124 397 q 83 468 83 438 q 103 519 83 499 q 154 539 124 539 q 205 519 185 539 z "},"√":{"ha":1022,"x_min":47,"x_max":1086,"o":"m 632 -278 l 499 -278 l 215 493 l 47 493 l 63 571 l 281 571 l 439 138 l 564 -214 q 664 147 604 -50 l 997 1243 l 1086 1243 l 632 -278 z "},"∞":{"ha":1161,"x_min":69,"x_max":1092,"o":"m 638 482 q 740 369 693 407 q 858 332 788 332 q 967 374 928 332 q 1007 481 1007 417 q 964 590 1007 546 q 849 635 921 635 q 638 482 742 635 m 194 594 q 173 573 194 594 q 153 488 153 553 q 195 376 153 422 q 310 331 238 331 q 524 482 417 331 q 465 556 490 526 q 396 610 439 585 q 308 635 353 635 q 194 594 235 635 m 300 257 q 131 319 192 257 q 69 481 69 381 q 134 644 69 581 q 308 708 199 708 q 455 663 392 708 q 582 535 518 618 q 710 664 646 618 q 872 710 775 710 q 1030 649 968 710 q 1092 488 1092 588 q 1027 323 1092 389 q 865 257 963 257 q 706 300 767 257 q 578 426 644 343 q 300 257 444 257 z "},"∫":{"ha":432,"x_min":8,"x_max":418,"o":"m 256 -10 q 206 -162 256 -106 q 65 -219 156 -219 q 8 -211 39 -219 l 8 -128 q 74 -139 38 -139 q 141 -106 111 -139 q 171 -8 171 -74 l 171 771 q 221 924 171 867 q 361 981 271 981 q 418 972 388 981 l 418 889 q 352 900 389 900 q 285 867 315 900 q 256 769 256 835 l 256 -10 z "},"≈":{"ha":868,"x_min":81,"x_max":786,"o":"m 301 350 q 136 250 204 350 l 81 301 q 292 428 171 428 q 456 372 361 428 q 599 317 551 317 q 721 400 676 317 l 786 356 q 599 238 713 238 q 437 294 536 238 q 301 350 338 350 m 301 626 q 136 526 204 626 l 81 578 q 292 704 171 704 q 456 649 361 704 q 599 593 551 593 q 721 676 676 593 l 786 632 q 599 514 713 514 q 437 570 536 514 q 301 626 338 626 z "},"≠":{"ha":756,"x_min":83,"x_max":672,"o":"m 672 299 l 338 299 l 282 174 l 211 174 l 267 299 l 83 299 l 83 376 l 300 376 l 385 569 l 83 569 l 83 646 l 418 646 l 474 771 l 544 771 l 489 646 l 672 646 l 672 569 l 456 569 l 371 376 l 672 376 l 672 299 z "},"≤":{"ha":749,"x_min":76,"x_max":665,"o":"m 665 181 l 76 181 l 76 257 l 665 257 l 665 181 m 665 679 l 104 556 l 665 431 l 665 347 l 76 488 l 76 622 l 665 763 l 665 679 z "},"≥":{"ha":749,"x_min":83,"x_max":672,"o":"m 672 181 l 83 181 l 83 257 l 672 257 l 672 181 m 672 622 l 672 488 l 83 347 l 83 431 l 644 556 l 83 679 l 83 763 l 672 622 z "},"◊":{"ha":768,"x_min":81,"x_max":688,"o":"m 438 0 l 324 0 l 81 468 l 324 936 l 438 936 l 688 468 l 438 0 m 181 468 l 383 75 l 588 468 l 383 861 q 181 468 317 732 z "},"◌":{"ha":917,"x_min":61,"x_max":856,"o":"m 374 733 q 366 742 374 733 q 357 778 357 750 q 374 822 357 806 q 418 839 392 839 q 462 822 444 839 q 479 778 479 806 q 462 733 479 750 q 418 717 444 717 q 374 733 392 717 m 594 696 q 581 696 594 696 q 550 714 568 696 q 532 758 532 732 q 549 801 532 783 q 594 819 567 819 q 638 802 621 819 q 654 758 654 785 q 637 714 654 732 q 594 696 619 696 m 681 619 q 673 627 681 619 q 664 663 664 636 q 681 707 664 689 q 725 725 699 725 q 769 708 751 725 q 786 663 786 690 q 769 619 786 636 q 725 601 751 601 q 681 619 699 601 m 750 455 q 742 464 750 455 q 733 499 733 472 q 750 542 733 525 q 794 560 767 560 q 838 542 821 560 q 856 499 856 525 q 838 455 856 472 q 794 438 821 438 q 750 455 767 438 m 738 269 q 728 277 738 269 q 719 313 719 286 q 738 357 719 339 q 781 375 756 375 q 824 357 807 375 q 842 313 842 339 q 824 269 842 286 q 781 251 807 251 q 738 269 756 251 m 635 133 q 627 141 635 133 q 618 176 618 150 q 635 220 618 203 q 679 238 653 238 q 724 220 706 238 q 742 176 742 203 q 724 133 742 150 q 679 115 706 115 q 635 133 653 115 m 467 58 q 458 67 467 58 q 450 103 450 75 q 467 147 450 131 q 511 164 483 164 q 556 147 539 164 q 574 103 574 129 q 556 59 574 76 q 511 42 539 42 q 467 58 483 42 m 336 61 q 323 61 336 61 q 292 79 310 61 q 274 124 274 97 q 292 168 274 150 q 336 186 310 186 q 380 168 363 186 q 397 124 397 150 q 380 79 397 97 q 336 61 363 61 m 150 185 q 142 194 150 185 q 133 229 133 203 q 151 273 133 256 q 194 290 168 290 q 238 273 221 290 q 256 229 256 256 q 238 185 256 203 q 194 168 221 168 q 150 185 167 168 m 78 347 q 70 356 78 347 q 61 390 61 364 q 78 435 61 417 q 122 453 96 453 q 166 435 149 453 q 183 391 183 418 q 166 347 183 364 q 122 331 149 331 q 78 347 96 331 m 97 522 q 88 530 97 522 q 79 565 79 539 q 97 609 79 592 q 142 626 115 626 q 186 609 168 626 q 204 565 204 592 q 186 522 204 539 q 142 504 168 504 q 97 522 115 504 m 254 656 q 241 656 254 656 q 210 673 228 656 q 193 717 193 690 q 210 762 193 744 q 254 779 228 779 q 298 762 281 779 q 315 717 315 744 q 298 673 315 690 q 254 656 281 656 z "},"ﬁ":{"ha":692,"x_min":42,"x_max":586,"o":"m 256 0 l 171 0 l 171 632 l 42 632 l 42 704 l 171 704 l 171 779 q 222 932 171 875 q 366 989 272 989 q 542 944 460 989 l 542 861 q 364 908 451 908 q 256 778 256 908 l 256 704 l 586 704 l 586 0 l 501 0 l 501 632 l 256 632 l 256 0 z "},"ﬂ":{"ha":678,"x_min":42,"x_max":572,"o":"m 417 632 l 256 632 l 256 0 l 171 0 l 171 632 l 42 632 l 42 704 l 171 704 l 171 779 q 222 933 171 876 q 374 989 272 989 q 572 926 475 989 l 572 0 l 488 0 l 488 882 q 371 908 422 908 q 256 778 256 908 l 256 704 l 417 704 l 417 632 z "}}}
